{
copyright = "Copyright (C) Yann Vanhalewyn";
customParameters = (
{
name = vendorID;
value = APPL;
},
{
name = glyphOrder;
value = (
    ".notdef",
    space,
    uni0000,
    uni000D,
    exclam,
    quotedbl,
    numbersign,
    dollar,
    percent,
    ampersand,
    quotesingle,
    parenleft,
    parenright,
    asterisk,
    plus,
    comma,
    hyphen,
    period,
    slash,
    zero,
    one,
    two,
    three,
    four,
    five,
    six,
    seven,
    eight,
    nine,
    colon,
    semicolon,
    less,
    equal,
    greater,
    question,
    at,
    A,
    B,
    C,
    D,
    E,
    F,
    G,
    H,
    I,
    J,
    K,
    L,
    M,
    N,
    O,
    P,
    Q,
    R,
    S,
    T,
    U,
    V,
    W,
    X,
    Y,
    Z,
    bracketleft,
    backslash,
    bracketright,
    asciicircum,
    underscore,
    grave,
    a,
    b,
    c,
    d,
    e,
    f,
    g,
    h,
    i,
    j,
    k,
    l,
    m,
    n,
    o,
    p,
    q,
    r,
    s,
    t,
    u,
    v,
    w,
    x,
    y,
    z,
    braceleft,
    bar,
    braceright,
    asciitilde,
    florin,
    guillemotleft,
    guillemotright,
    ellipsis,
    emdash,
    divide,
    guilsinglleft,
    guilsinglright,
    periodcentered,
    daggerdbl,
    quotesinglbase,
    perthousand,
    quotedblbase,
    Acircumflex,
    Aacute,
    Egrave,
    Edieresis,
    Iacute,
    Icircumflex,
    Igrave,
    Idieresis,
    Oacute,
    Ocircumflex,
    Ograve,
    Ucircumflex,
    Uacute,
    Ugrave,
    circumflex,
    dotlessi,
    ring,
    cedilla,
    Udieresis,
    cent,
    sterling,
    germandbls,
    idieresis,
    AE,
    copyright,
    ocircumflex,
    yen,
    registered,
    ydieresis,
    plusminus,
    bullet,
    mu,
    trademark,
    Ecircumflex,
    macron,
    oslash,
    degree,
    dieresis,
    Eacute,
    acute,
    ordfeminine,
    Odieresis,
    dagger,
    questiondown,
    quoteright,
    aring,
    uacute,
    ntilde,
    oacute,
    igrave,
    icircumflex,

glyphs = (
{
glyphname = .notdef;
layers = (
{
layerId = "0B97357B-A10C-4E6B-A805-18EA08AD0246";
name = Regular;
paths = (
{
closed = 1;
nodes = (
"63 1062 LINE",
"63 0 LINE",
"438 0 LINE",
"438 1062 LINE"
);
},
{
closed = 1;
nodes = (
"375 63 LINE",
"125 63 LINE",
"125 1000 LINE",
"375 1000 LINE"
);
}
);
width = 500;
}
);
},
{
glyphname = exclam;
layers = (
{
layerId = "0B97357B-A10C-4E6B-A805-18EA08AD0246";
name = Regular;
paths = (
{
closed = 1;
nodes = (
"469 713 OFFCURVE",
"454 715 OFFCURVE",
"445 715 CURVE SMOOTH",
"434 715 OFFCURVE",
"426 714 OFFCURVE",
"420 711 CURVE",
"396 702 OFFCURVE",
"379 649 OFFCURVE",
"363 592 CURVE",
"302 407 OFFCURVE",
"271 307 OFFCURVE",
"272 290 CURVE SMOOTH",
"273 258 LINE",
"299 256 LINE SMOOTH",
"343 252 OFFCURVE",
"371 294 OFFCURVE",
"372 347 CURVE SMOOTH",
"375 470 OFFCURVE",
"409 562 OFFCURVE",
"489 709 CURVE"
);
},
{
closed = 1;
nodes = (
"247 101 OFFCURVE",
"228 103 OFFCURVE",
"206 103 CURVE SMOOTH",
"165 103 OFFCURVE",
"144 91 OFFCURVE",
"144 66 CURVE SMOOTH",
"144 34 OFFCURVE",
"159 18 OFFCURVE",
"190 18 CURVE SMOOTH",
"226 18 OFFCURVE",
"248 30 OFFCURVE",
"256 55 CURVE",
"259 75 OFFCURVE",
"262 89 OFFCURVE",
"263 96 CURVE"
);
}
);
width = 489;
}
);
unicode = 0021;
},
{
glyphname = quotedbl;
layers = (
{
layerId = "0B97357B-A10C-4E6B-A805-18EA08AD0246";
name = Regular;
paths = (
{
closed = 1;
nodes = (
"490 638 OFFCURVE",
"488 640 OFFCURVE",
"461 661 CURVE",
"420 633 OFFCURVE",
"376 556 OFFCURVE",
"376 509 CURVE SMOOTH",
"376 476 OFFCURVE",
"395 460 OFFCURVE",
"432 460 CURVE",
"433 469 OFFCURVE",
"447 503 OFFCURVE",
"474 560 CURVE SMOOTH",
"485 582 OFFCURVE",
"490 601 OFFCURVE",
"490 618 CURVE SMOOTH"
);
},
{
closed = 1;
nodes = (
"356 630 OFFCURVE",
"340 649 OFFCURVE",
"320 649 CURVE SMOOTH",
"296 649 OFFCURVE",
"259 592 OFFCURVE",
"235 530 CURVE SMOOTH",
"222 499 OFFCURVE",
"216 476 OFFCURVE",
"216 463 CURVE SMOOTH",
"216 461 OFFCURVE",
"219 457 OFFCURVE",
"226 450 CURVE",
"225 440 LINE",
"259 440 OFFCURVE",
"281 450 OFFCURVE",
"291 471 CURVE",
"309 513 LINE SMOOTH",
"316 528 OFFCURVE",
"319 536 OFFCURVE",
"319 536 CURVE",
"323 543 OFFCURVE",
"331 556 OFFCURVE",
"343 573 CURVE SMOOTH",
"352 586 OFFCURVE",
"356 598 OFFCURVE",
"356 610 CURVE SMOOTH"
);
}
);
width = 461;
}
);
unicode = 0022;
},
{
glyphname = numbersign;
layers = (
{
layerId = "0B97357B-A10C-4E6B-A805-18EA08AD0246";
name = Regular;
paths = (
{
closed = 1;
nodes = (
"543 498 LINE",
"527 514 OFFCURVE",
"502 527 OFFCURVE",
"468 536 CURVE",
"499 612 LINE SMOOTH",
"510 637 OFFCURVE",
"515 659 OFFCURVE",
"515 676 CURVE SMOOTH",
"515 703 OFFCURVE",
"501 730 OFFCURVE",
"481 730 CURVE SMOOTH",
"470 730 OFFCURVE",
"457 712 OFFCURVE",
"444 676 CURVE SMOOTH",
"427 630 LINE SMOOTH",
"412 587 OFFCURVE",
"401 559 OFFCURVE",
"392 545 CURVE SMOOTH",
"383 530 OFFCURVE",
"369 524 OFFCURVE",
"352 525 CURVE SMOOTH",
"308 527 LINE",
"298 536 LINE",
"309 571 OFFCURVE",
"314 594 OFFCURVE",
"314 605 CURVE",
"307 629 LINE",
"296 638 OFFCURVE",
"283 643 OFFCURVE",
"268 643 CURVE SMOOTH",
"253 643 OFFCURVE",
"243 633 OFFCURVE",
"238 613 CURVE",
"232 565 LINE SMOOTH",
"229 540 OFFCURVE",
"213 521 OFFCURVE",
"186 510 CURVE",
"159 502 LINE SMOOTH",
"120 491 OFFCURVE",
"94 483 OFFCURVE",
"81 476 CURVE SMOOTH",
"68 469 OFFCURVE",
"58 457 OFFCURVE",
"53 440 CURVE",
"66 440 LINE",
"71 441 OFFCURVE",
"76 441 OFFCURVE",
"81 441 CURVE SMOOTH",
"115 441 LINE SMOOTH",
"150 441 OFFCURVE",
"176 437 OFFCURVE",
"194 430 CURVE",
"179 383 OFFCURVE",
"156 360 OFFCURVE",
"123 360 CURVE SMOOTH",
"116 360 OFFCURVE",
"105 361 OFFCURVE",
"90 363 CURVE SMOOTH",
"75 365 OFFCURVE",
"64 366 OFFCURVE",
"57 366 CURVE SMOOTH",
"19 366 OFFCURVE",
"0 352 OFFCURVE",
"0 323 CURVE SMOOTH",
"0 310 OFFCURVE",
"11 300 OFFCURVE",
"32 295 CURVE",
"53 289 OFFCURVE",
"88 283 OFFCURVE",
"137 278 CURVE",
"140 270 OFFCURVE",
"154 258 OFFCURVE",
"162 258 CURVE SMOOTH",
"180 258 OFFCURVE",
"194 261 OFFCURVE",
"203 267 CURVE",
"212 290 OFFCURVE",
"218 306 OFFCURVE",
"222 314 CURVE SMOOTH",
"229 329 OFFCURVE",
"239 336 OFFCURVE",
"263 336 CURVE SMOOTH",
"272 336 OFFCURVE",
"290 333 OFFCURVE",
"317 326 CURVE",
"290 251 OFFCURVE",
"289 247 OFFCURVE",
"289 210 CURVE",
"317 217 OFFCURVE",
"335 230 OFFCURVE",
"344 247 CURVE SMOOTH",
"362 280 OFFCURVE",
"372 297 OFFCURVE",
"374 299 CURVE SMOOTH",
"395 321 OFFCURVE",
"432 339 OFFCURVE",
"486 354 CURVE",
"483 368 OFFCURVE",
"472 382 OFFCURVE",
"452 395 CURVE SMOOTH",
"433 408 OFFCURVE",
"422 419 OFFCURVE",
"420 428 CURVE",
"427 450 OFFCURVE",
"444 467 OFFCURVE",
"472 478 CURVE",
"489 483 OFFCURVE",
"502 487 OFFCURVE",
"511 489 CURVE"
);
},
{
closed = 1;
nodes = (
"368 402 OFFCURVE",
"335 372 OFFCURVE",
"294 372 CURVE SMOOTH",
"261 372 OFFCURVE",
"244 389 OFFCURVE",
"244 423 CURVE SMOOTH",
"244 468 OFFCURVE",
"267 491 OFFCURVE",
"314 491 CURVE SMOOTH",
"350 491 OFFCURVE",
"368 475 OFFCURVE",
"368 442 CURVE SMOOTH"
);
}
);
width = 543;
}
);
unicode = 0023;
},
{
glyphname = dollar;
layers = (
{
layerId = "0B97357B-A10C-4E6B-A805-18EA08AD0246";
name = Regular;
paths = (
{
closed = 1;
nodes = (
"715 664 OFFCURVE",
"662 605 OFFCURVE",
"609 530 CURVE SMOOTH",
"595 511 LINE",
"562 476 OFFCURVE",
"520 455 OFFCURVE",
"471 449 CURVE",
"477 474 OFFCURVE",
"493 503 OFFCURVE",
"518 536 CURVE SMOOTH",
"571 605 OFFCURVE",
"600 648 OFFCURVE",
"604 664 CURVE",
"597 683 OFFCURVE",
"587 693 OFFCURVE",
"574 693 CURVE SMOOTH",
"549 693 OFFCURVE",
"533 673 OFFCURVE",
"506 629 CURVE SMOOTH",
"481 586 OFFCURVE",
"445 530 OFFCURVE",
"399 459 CURVE SMOOTH",
"291 296 LINE SMOOTH",
"268 263 OFFCURVE",
"234 208 OFFCURVE",
"187 133 CURVE",
"184 126 LINE",
"184 121 OFFCURVE",
"183 117 OFFCURVE",
"180 114 CURVE SMOOTH",
"159 94 LINE",
"136 131 OFFCURVE",
"125 168 OFFCURVE",
"125 203 CURVE SMOOTH",
"125 226 OFFCURVE",
"127 247 OFFCURVE",
"131 268 CURVE",
"94 251 OFFCURVE",
"75 219 OFFCURVE",
"75 172 CURVE SMOOTH",
"75 159 OFFCURVE",
"82 140 OFFCURVE",
"95 113 CURVE SMOOTH",
"109 85 OFFCURVE",
"118 65 OFFCURVE",
"123 54 CURVE",
"117 41 OFFCURVE",
"111 28 OFFCURVE",
"104 16 CURVE",
"99 3 OFFCURVE",
"95 -10 OFFCURVE",
"93 -23 CURVE",
"100 -38 OFFCURVE",
"110 -46 OFFCURVE",
"121 -46 CURVE SMOOTH",
"138 -46 OFFCURVE",
"154 -35 OFFCURVE",
"169 -14 CURVE",
"175 -3 OFFCURVE",
"185 14 OFFCURVE",
"198 37 CURVE",
"227 24 OFFCURVE",
"246 3 OFFCURVE",
"254 -26 CURVE",
"324 3 LINE",
"347 13 LINE",
"370 22 OFFCURVE",
"384 28 OFFCURVE",
"389 31 CURVE",
"526 92 OFFCURVE",
"594 160 OFFCURVE",
"594 237 CURVE SMOOTH",
"594 257 OFFCURVE",
"586 281 OFFCURVE",
"569 310 CURVE SMOOTH",
"552 339 OFFCURVE",
"544 355 OFFCURVE",
"544 358 CURVE SMOOTH",
"544 389 OFFCURVE",
"601 403 OFFCURVE",
"640 410 CURVE SMOOTH",
"679 417 OFFCURVE",
"721 417 OFFCURVE",
"721 454 CURVE SMOOTH",
"721 477 OFFCURVE",
"707 498 OFFCURVE",
"678 517 CURVE",
"697 540 LINE SMOOTH",
"729 579 OFFCURVE",
"750 606 OFFCURVE",
"759 620 CURVE SMOOTH",
"768 633 OFFCURVE",
"775 650 OFFCURVE",
"782 671 CURVE"
);
},
{
closed = 1;
nodes = (
"536 420 LINE",
"513 360 OFFCURVE",
"486 330 OFFCURVE",
"454 330 CURVE",
"437 335 OFFCURVE",
"424 340 OFFCURVE",
"415 343 CURVE",
"428 381 OFFCURVE",
"449 407 OFFCURVE",
"480 421 CURVE",
"498 426 OFFCURVE",
"514 429 OFFCURVE",
"528 429 CURVE"
);
},
{
closed = 1;
nodes = (
"370 183 OFFCURVE",
"283 66 OFFCURVE",
"236 66 CURVE SMOOTH",
"216 66 OFFCURVE",
"206 78 OFFCURVE",
"206 103 CURVE SMOOTH",
"206 115 OFFCURVE",
"215 129 OFFCURVE",
"233 146 CURVE SMOOTH",
"286 195 OFFCURVE",
"328 242 OFFCURVE",
"357 285 CURVE",
"360 288 OFFCURVE",
"365 297 OFFCURVE",
"372 310 CURVE",
"379 319 OFFCURVE",
"386 323 OFFCURVE",
"395 323 CURVE SMOOTH",
"405 323 OFFCURVE",
"418 313 OFFCURVE",
"433 294 CURVE"
);
},
{
closed = 1;
nodes = (
"547 193 OFFCURVE",
"543 182 OFFCURVE",
"536 171 CURVE",
"521 151 OFFCURVE",
"462 114 OFFCURVE",
"410 91 CURVE SMOOTH",
"384 79 OFFCURVE",
"365 73 OFFCURVE",
"354 74 CURVE SMOOTH",
"339 75 LINE",
"362 115 LINE",
"400 180 LINE SMOOTH",
"414 205 OFFCURVE",
"430 225 OFFCURVE",
"448 240 CURVE",
"477 266 OFFCURVE",
"494 281 OFFCURVE",
"498 286 CURVE",
"531 253 OFFCURVE",
"547 226 OFFCURVE",
"547 204 CURVE SMOOTH"
);
}
);
width = 782;
}
);
unicode = 0024;
},
{
glyphname = percent;
layers = (
{
layerId = "0B97357B-A10C-4E6B-A805-18EA08AD0246";
name = Regular;
paths = (
{
closed = 1;
nodes = (
"549 657 OFFCURVE",
"548 658 OFFCURVE",
"524 658 CURVE SMOOTH",
"514 658 OFFCURVE",
"502 657 OFFCURVE",
"489 654 CURVE",
"471 651 OFFCURVE",
"459 649 OFFCURVE",
"453 649 CURVE SMOOTH",
"441 649 OFFCURVE",
"424 661 OFFCURVE",
"403 684 CURVE SMOOTH",
"382 707 OFFCURVE",
"363 719 OFFCURVE",
"348 719 CURVE SMOOTH",
"289 719 OFFCURVE",
"207 679 OFFCURVE",
"156 624 CURVE SMOOTH",
"131 597 OFFCURVE",
"118 570 OFFCURVE",
"118 543 CURVE SMOOTH",
"118 494 OFFCURVE",
"152 462 OFFCURVE",
"201 462 CURVE SMOOTH",
"245 462 OFFCURVE",
"266 474 OFFCURVE",
"281 498 CURVE SMOOTH",
"288 509 OFFCURVE",
"300 531 OFFCURVE",
"315 562 CURVE SMOOTH",
"327 585 OFFCURVE",
"341 597 OFFCURVE",
"357 597 CURVE",
"390 595 LINE",
"423 593 LINE",
"433 584 LINE",
"424 528 OFFCURVE",
"389 461 OFFCURVE",
"326 382 CURVE SMOOTH",
"313 365 OFFCURVE",
"300 350 OFFCURVE",
"288 335 CURVE",
"275 320 OFFCURVE",
"264 306 OFFCURVE",
"253 292 CURVE SMOOTH",
"185 209 OFFCURVE",
"138 150 OFFCURVE",
"113 113 CURVE SMOOTH",
"88 76 OFFCURVE",
"75 44 OFFCURVE",
"75 18 CURVE",
"93 13 OFFCURVE",
"108 11 OFFCURVE",
"121 11 CURVE SMOOTH",
"126 11 OFFCURVE",
"134 13 OFFCURVE",
"145 16 CURVE",
"263 214 LINE",
"340 317 LINE",
"418 420 LINE SMOOTH",
"489 511 OFFCURVE",
"528 563 OFFCURVE",
"535 574 CURVE SMOOTH",
"548 593 OFFCURVE",
"556 613 OFFCURVE",
"560 634 CURVE"
);
},
{
closed = 1;
nodes = (
"276 544 OFFCURVE",
"257 523 OFFCURVE",
"220 523 CURVE SMOOTH",
"202 523 OFFCURVE",
"184 528 OFFCURVE",
"167 537 CURVE",
"175 560 OFFCURVE",
"189 580 OFFCURVE",
"208 597 CURVE SMOOTH",
"262 644 LINE",
"271 620 OFFCURVE",
"276 601 OFFCURVE",
"276 586 CURVE SMOOTH"
);
},
{
closed = 1;
nodes = (
"507 323 OFFCURVE",
"490 336 OFFCURVE",
"455 336 CURVE SMOOTH",
"422 336 OFFCURVE",
"371 281 OFFCURVE",
"337 220 CURVE SMOOTH",
"320 189 OFFCURVE",
"311 165 OFFCURVE",
"311 147 CURVE SMOOTH",
"311 106 OFFCURVE",
"336 85 OFFCURVE",
"385 85 CURVE SMOOTH",
"462 85 OFFCURVE",
"498 106 OFFCURVE",
"498 171 CURVE SMOOTH",
"498 178 OFFCURVE",
"496 186 OFFCURVE",
"492 197 CURVE",
"483 219 OFFCURVE",
"479 232 OFFCURVE",
"479 237 CURVE SMOOTH",
"479 244 OFFCURVE",
"484 254 OFFCURVE",
"493 267 CURVE SMOOTH",
"502 280 OFFCURVE",
"507 290 OFFCURVE",
"507 296 CURVE SMOOTH"
);
},
{
closed = 1;
nodes = (
"471 151 OFFCURVE",
"436 120 OFFCURVE",
"400 120 CURVE SMOOTH",
"379 120 OFFCURVE",
"354 138 OFFCURVE",
"354 157 CURVE SMOOTH",
"354 193 OFFCURVE",
"390 234 OFFCURVE",
"426 234 CURVE SMOOTH",
"449 234 OFFCURVE",
"471 210 OFFCURVE",
"471 187 CURVE SMOOTH"
);
}
);
width = 555;
}
);
unicode = 0025;
},
{
glyphname = ampersand;
layers = (
{
layerId = "0B97357B-A10C-4E6B-A805-18EA08AD0246";
name = Regular;
paths = (
{
closed = 1;
nodes = (
"635 260 LINE SMOOTH",
"618 261 OFFCURVE",
"603 258 OFFCURVE",
"588 249 CURVE SMOOTH",
"573 240 OFFCURVE",
"547 221 OFFCURVE",
"508 191 CURVE",
"482 222 LINE SMOOTH",
"448 261 OFFCURVE",
"422 294 OFFCURVE",
"405 319 CURVE SMOOTH",
"388 344 OFFCURVE",
"379 365 OFFCURVE",
"379 384 CURVE SMOOTH",
"379 389 OFFCURVE",
"411 425 OFFCURVE",
"476 490 CURVE SMOOTH",
"506 521 OFFCURVE",
"521 553 OFFCURVE",
"521 584 CURVE SMOOTH",
"521 635 OFFCURVE",
"497 661 OFFCURVE",
"449 661 CURVE SMOOTH",
"366 661 OFFCURVE",
"315 621 OFFCURVE",
"296 542 CURVE SMOOTH",
"283 487 OFFCURVE",
"275 456 OFFCURVE",
"271 449 CURVE",
"155 386 OFFCURVE",
"78 277 OFFCURVE",
"78 157 CURVE SMOOTH",
"78 94 OFFCURVE",
"103 37 OFFCURVE",
"147 5 CURVE SMOOTH",
"169 -12 OFFCURVE",
"194 -20 OFFCURVE",
"223 -20 CURVE SMOOTH",
"256 -20 OFFCURVE",
"304 -6 OFFCURVE",
"368 23 CURVE SMOOTH",
"433 51 OFFCURVE",
"471 65 OFFCURVE",
"481 65 CURVE SMOOTH",
"488 65 OFFCURVE",
"508 57 OFFCURVE",
"516 46 CURVE",
"525 29 OFFCURVE",
"536 9 OFFCURVE",
"545 0 CURVE",
"558 -2 LINE",
"588 -2 OFFCURVE",
"609 5 OFFCURVE",
"620 18 CURVE",
"614 47 OFFCURVE",
"605 69 OFFCURVE",
"593 83 CURVE SMOOTH",
"575 104 OFFCURVE",
"563 121 OFFCURVE",
"556 133 CURVE",
"627 181 OFFCURVE",
"655 209 OFFCURVE",
"659 258 CURVE"
);
},
{
closed = 1;
nodes = (
"464 550 OFFCURVE",
"449 515 OFFCURVE",
"426 493 CURVE SMOOTH",
"414 482 OFFCURVE",
"401 476 OFFCURVE",
"388 476 CURVE SMOOTH",
"360 476 OFFCURVE",
"339 499 OFFCURVE",
"339 527 CURVE SMOOTH",
"339 554 OFFCURVE",
"358 588 OFFCURVE",
"384 608 CURVE SMOOTH",
"397 618 OFFCURVE",
"410 623 OFFCURVE",
"423 623 CURVE SMOOTH",
"450 623 OFFCURVE",
"464 608 OFFCURVE",
"464 579 CURVE SMOOTH"
);
},
{
closed = 1;
nodes = (
"413 98 OFFCURVE",
"349 64 OFFCURVE",
"282 64 CURVE SMOOTH",
"210 64 OFFCURVE",
"164 121 OFFCURVE",
"164 198 CURVE SMOOTH",
"164 237 OFFCURVE",
"178 271 OFFCURVE",
"205 302 CURVE",
"265 344 LINE",
"276 353 OFFCURVE",
"285 360 OFFCURVE",
"292 364 CURVE",
"362 256 LINE SMOOTH",
"396 203 OFFCURVE",
"413 168 OFFCURVE",
"413 150 CURVE SMOOTH"
);
}
);
width = 659;
}
);
unicode = 0026;
},
{
glyphname = quotesingle;
layers = (
{
layerId = "0B97357B-A10C-4E6B-A805-18EA08AD0246";
name = Regular;
paths = (
{
closed = 1;
nodes = (
"226 740 OFFCURVE",
"215 755 OFFCURVE",
"194 755 CURVE SMOOTH",
"185 755 OFFCURVE",
"176 751 OFFCURVE",
"167 742 CURVE",
"155 731 OFFCURVE",
"134 658 OFFCURVE",
"121 591 CURVE SMOOTH",
"114 557 OFFCURVE",
"111 534 OFFCURVE",
"112 523 CURVE SMOOTH",
"113 508 LINE",
"169 508 OFFCURVE",
"171 504 OFFCURVE",
"190 558 CURVE SMOOTH",
"209 612 OFFCURVE",
"226 686 OFFCURVE",
"226 709 CURVE SMOOTH"
);
}
);
width = 141;
}
);
unicode = 0027;
},
{
glyphname = parenleft;
layers = (
{
layerId = "0B97357B-A10C-4E6B-A805-18EA08AD0246";
name = Regular;
paths = (
{
closed = 1;
nodes = (
"506 768 OFFCURVE",
"491 778 OFFCURVE",
"479 778 CURVE SMOOTH",
"399 778 OFFCURVE",
"309 661 OFFCURVE",
"251 569 CURVE SMOOTH",
"193 476 OFFCURVE",
"150 377 OFFCURVE",
"150 317 CURVE SMOOTH",
"150 226 OFFCURVE",
"190 123 OFFCURVE",
"255 62 CURVE SMOOTH",
"288 31 OFFCURVE",
"324 16 OFFCURVE",
"363 16 CURVE",
"383 18 LINE",
"392 9 LINE",
"402 9 LINE",
"411 18 LINE",
"392 47 LINE",
"383 47 LINE",
"336 80 OFFCURVE",
"311 99 OFFCURVE",
"308 104 CURVE",
"298 105 LINE",
"266 146 OFFCURVE",
"243 176 OFFCURVE",
"230 195 CURVE SMOOTH",
"203 233 OFFCURVE",
"189 266 OFFCURVE",
"189 311 CURVE SMOOTH",
"189 410 OFFCURVE",
"259 522 OFFCURVE",
"361 619 CURVE SMOOTH",
"412 668 OFFCURVE",
"466 710 OFFCURVE",
"524 747 CURVE"
);
}
);
width = 374;
}
);
unicode = 0028;
},
{
glyphname = parenright;
layers = (
{
layerId = "0B97357B-A10C-4E6B-A805-18EA08AD0246";
name = Regular;
paths = (
{
closed = 1;
nodes = (
"346 346 OFFCURVE",
"326 413 OFFCURVE",
"286 515 CURVE SMOOTH",
"203 728 OFFCURVE",
"145 834 OFFCURVE",
"112 834 CURVE SMOOTH",
"89 834 OFFCURVE",
"78 824 OFFCURVE",
"78 804 CURVE",
"204 574 LINE SMOOTH",
"258 471 OFFCURVE",
"285 392 OFFCURVE",
"285 337 CURVE SMOOTH",
"285 260 OFFCURVE",
"263 206 OFFCURVE",
"224 159 CURVE SMOOTH",
"204 136 OFFCURVE",
"177 109 OFFCURVE",
"142 78 CURVE SMOOTH",
"109 49 OFFCURVE",
"93 26 OFFCURVE",
"93 8 CURVE SMOOTH",
"93 -8 LINE",
"177 43 OFFCURVE",
"260 120 OFFCURVE",
"309 201 CURVE SMOOTH",
"334 242 OFFCURVE",
"346 280 OFFCURVE",
"346 315 CURVE SMOOTH"
);
}
);
width = 348;
}
);
unicode = 0029;
},
{
glyphname = asterisk;
layers = (
{
layerId = "0B97357B-A10C-4E6B-A805-18EA08AD0246";
name = Regular;
paths = (
{
closed = 1;
nodes = (
"774 536 OFFCURVE",
"728 529 OFFCURVE",
"653 516 CURVE SMOOTH",
"616 509 OFFCURVE",
"589 506 OFFCURVE",
"571 507 CURVE SMOOTH",
"546 508 LINE",
"581 530 LINE SMOOTH",
"681 591 OFFCURVE",
"737 633 OFFCURVE",
"744 689 CURVE",
"706 689 OFFCURVE",
"659 663 OFFCURVE",
"602 610 CURVE SMOOTH",
"564 575 OFFCURVE",
"539 554 OFFCURVE",
"527 546 CURVE",
"525 563 LINE",
"525 575 OFFCURVE",
"532 603 OFFCURVE",
"546 648 CURVE SMOOTH",
"552 667 OFFCURVE",
"555 684 OFFCURVE",
"555 699 CURVE",
"534 694 OFFCURVE",
"517 681 OFFCURVE",
"502 658 CURVE SMOOTH",
"487 635 OFFCURVE",
"466 596 OFFCURVE",
"439 542 CURVE SMOOTH",
"423 508 LINE",
"413 513 OFFCURVE",
"387 535 OFFCURVE",
"344 573 CURVE SMOOTH",
"313 600 OFFCURVE",
"284 616 OFFCURVE",
"259 620 CURVE",
"230 607 OFFCURVE",
"225 602 OFFCURVE",
"225 575 CURVE SMOOTH",
"225 556 OFFCURVE",
"272 514 OFFCURVE",
"366 450 CURVE",
"296 425 OFFCURVE",
"233 412 OFFCURVE",
"178 412 CURVE SMOOTH",
"171 412 OFFCURVE",
"158 416 OFFCURVE",
"139 423 CURVE SMOOTH",
"120 430 OFFCURVE",
"107 434 OFFCURVE",
"99 434 CURVE",
"82 429 OFFCURVE",
"74 419 OFFCURVE",
"74 403 CURVE SMOOTH",
"74 384 OFFCURVE",
"86 371 OFFCURVE",
"110 365 CURVE",
"133 358 OFFCURVE",
"169 355 OFFCURVE",
"218 355 CURVE SMOOTH",
"242 355 LINE SMOOTH",
"253 355 OFFCURVE",
"260 355 OFFCURVE",
"263 354 CURVE",
"192 298 OFFCURVE",
"148 263 OFFCURVE",
"132 249 CURVE SMOOTH",
"115 234 OFFCURVE",
"96 215 OFFCURVE",
"75 191 CURVE",
"88 180 OFFCURVE",
"102 174 OFFCURVE",
"115 174 CURVE SMOOTH",
"132 174 OFFCURVE",
"154 191 OFFCURVE",
"181 226 CURVE SMOOTH",
"214 269 OFFCURVE",
"236 294 OFFCURVE",
"246 300 CURVE SMOOTH",
"320 345 LINE",
"321 322 LINE SMOOTH",
"322 309 OFFCURVE",
"310 268 OFFCURVE",
"287 199 CURVE SMOOTH",
"277 170 OFFCURVE",
"272 145 OFFCURVE",
"272 124 CURVE",
"285 124 OFFCURVE",
"298 121 OFFCURVE",
"310 115 CURVE",
"334 186 OFFCURVE",
"352 235 OFFCURVE",
"363 263 CURVE SMOOTH",
"385 318 OFFCURVE",
"397 334 OFFCURVE",
"433 363 CURVE",
"479 263 LINE SMOOTH",
"501 216 OFFCURVE",
"520 192 OFFCURVE",
"537 192 CURVE SMOOTH",
"556 192 OFFCURVE",
"577 214 OFFCURVE",
"577 233 CURVE SMOOTH",
"577 246 OFFCURVE",
"570 268 OFFCURVE",
"555 299 CURVE SMOOTH",
"540 330 OFFCURVE",
"518 370 OFFCURVE",
"490 421 CURVE",
"614 476 OFFCURVE",
"648 487 OFFCURVE",
"715 487 CURVE SMOOTH",
"737 487 OFFCURVE",
"759 484 OFFCURVE",
"782 479 CURVE",
"782 479 OFFCURVE",
"784 488 OFFCURVE",
"789 507 CURVE",
"790 516 OFFCURVE",
"791 526 OFFCURVE",
"791 536 CURVE"
);
}
);
width = 800;
}
);
unicode = 002A;
},
{
glyphname = plus;
layers = (
{
layerId = "0B97357B-A10C-4E6B-A805-18EA08AD0246";
name = Regular;
paths = (
{
closed = 1;
nodes = (
"762 320 OFFCURVE",
"743 336 OFFCURVE",
"716 336 CURVE SMOOTH",
"705 336 OFFCURVE",
"684 334 OFFCURVE",
"652 331 CURVE SMOOTH",
"601 325 OFFCURVE",
"565 322 OFFCURVE",
"546 322 CURVE SMOOTH",
"501 322 OFFCURVE",
"479 338 OFFCURVE",
"479 371 CURVE SMOOTH",
"479 385 OFFCURVE",
"482 401 OFFCURVE",
"489 419 CURVE",
"503 460 OFFCURVE",
"510 487 OFFCURVE",
"510 498 CURVE SMOOTH",
"510 524 OFFCURVE",
"496 537 OFFCURVE",
"468 537 CURVE SMOOTH",
"444 537 OFFCURVE",
"429 516 OFFCURVE",
"424 474 CURVE SMOOTH",
"421 449 LINE SMOOTH",
"416 404 OFFCURVE",
"412 371 OFFCURVE",
"407 352 CURVE SMOOTH",
"397 313 OFFCURVE",
"372 294 OFFCURVE",
"311 294 CURVE",
"298 293 LINE",
"277 293 LINE",
"242 293 LINE SMOOTH",
"218 293 OFFCURVE",
"195 294 OFFCURVE",
"173 296 CURVE",
"170 296 OFFCURVE",
"164 299 OFFCURVE",
"155 306 CURVE",
"144 312 OFFCURVE",
"136 315 OFFCURVE",
"132 315 CURVE SMOOTH",
"103 315 OFFCURVE",
"78 296 OFFCURVE",
"78 269 CURVE SMOOTH",
"78 238 OFFCURVE",
"99 222 OFFCURVE",
"142 222 CURVE SMOOTH",
"157 222 OFFCURVE",
"195 230 OFFCURVE",
"256 247 CURVE SMOOTH",
"280 254 OFFCURVE",
"303 257 OFFCURVE",
"325 257 CURVE SMOOTH",
"365 257 OFFCURVE",
"385 243 OFFCURVE",
"385 214 CURVE SMOOTH",
"385 199 OFFCURVE",
"376 165 OFFCURVE",
"357 112 CURVE SMOOTH",
"349 89 OFFCURVE",
"345 69 OFFCURVE",
"345 51 CURVE",
"347 30 LINE",
"348 25 OFFCURVE",
"348 18 OFFCURVE",
"348 8 CURVE",
"384 10 LINE SMOOTH",
"407 11 OFFCURVE",
"420 13 OFFCURVE",
"424 16 CURVE",
"437 25 OFFCURVE",
"445 57 OFFCURVE",
"448 112 CURVE SMOOTH",
"449 157 OFFCURVE",
"452 190 OFFCURVE",
"455 211 CURVE SMOOTH",
"462 254 OFFCURVE",
"480 278 OFFCURVE",
"527 278 CURVE SMOOTH",
"542 278 OFFCURVE",
"579 275 OFFCURVE",
"637 269 CURVE SMOOTH",
"660 266 OFFCURVE",
"682 265 OFFCURVE",
"701 265 CURVE SMOOTH",
"714 265 OFFCURVE",
"738 272 OFFCURVE",
"772 287 CURVE"
);
}
);
width = 772;
}
);
unicode = 002B;
},
{
glyphname = comma;
layers = (
{
layerId = "0B97357B-A10C-4E6B-A805-18EA08AD0246";
name = Regular;
paths = (
{
closed = 1;
nodes = (
"247 58 OFFCURVE",
"229 107 OFFCURVE",
"209 139 CURVE SMOOTH",
"199 155 OFFCURVE",
"190 163 OFFCURVE",
"182 163 CURVE SMOOTH",
"157 163 OFFCURVE",
"121 134 OFFCURVE",
"121 110 CURVE SMOOTH",
"121 97 OFFCURVE",
"127 83 OFFCURVE",
"140 66 CURVE SMOOTH",
"166 31 OFFCURVE",
"179 8 OFFCURVE",
"179 -4 CURVE SMOOTH",
"179 -16 OFFCURVE",
"164 -46 OFFCURVE",
"133 -95 CURVE SMOOTH",
"74 -190 LINE",
"92 -193 LINE",
"145 -193 OFFCURVE",
"196 -136 OFFCURVE",
"225 -63 CURVE SMOOTH",
"240 -27 OFFCURVE",
"247 6 OFFCURVE",
"247 37 CURVE SMOOTH"
);
}
);
width = 254;
}
);
unicode = 002C;
},
{
glyphname = hyphen;
layers = (
{
layerId = "0B97357B-A10C-4E6B-A805-18EA08AD0246";
name = Regular;
paths = (
{
closed = 1;
nodes = (
"285 268 OFFCURVE",
"298 256 OFFCURVE",
"298 232 CURVE SMOOTH",
"298 196 OFFCURVE",
"287 178 OFFCURVE",
"265 178 CURVE SMOOTH",
"256 178 OFFCURVE",
"246 180 OFFCURVE",
"235 185 CURVE SMOOTH",
"209 196 OFFCURVE",
"192 201 OFFCURVE",
"185 201 CURVE SMOOTH",
"178 201 LINE",
"182 197 OFFCURVE",
"127 178 OFFCURVE",
"96 175 CURVE SMOOTH",
"80 173 OFFCURVE",
"62 172 OFFCURVE",
"43 172 CURVE SMOOTH",
"22 172 OFFCURVE",
"3 174 OFFCURVE",
"-15 179 CURVE",
"-15 188 LINE",
"-6 198 LINE",
"-6 220 OFFCURVE",
"1 236 OFFCURVE",
"14 246 CURVE",
"20 247 OFFCURVE",
"32 248 OFFCURVE",
"51 249 CURVE SMOOTH",
"89 251 LINE",
"98 251 OFFCURVE",
"110 253 OFFCURVE",
"117 254 CURVE SMOOTH",
"130 256 OFFCURVE",
"149 258 OFFCURVE",
"174 261 CURVE",
"199 263 LINE SMOOTH",
"232 266 OFFCURVE",
"252 268 OFFCURVE",
"258 268 CURVE SMOOTH"
);
}
);
width = 300;
}
);
unicode = 002D;
},
{
glyphname = period;
layers = (
{
layerId = "0B97357B-A10C-4E6B-A805-18EA08AD0246";
name = Regular;
paths = (
{
closed = 1;
nodes = (
"251 73 OFFCURVE",
"229 77 OFFCURVE",
"208 77 CURVE SMOOTH",
"171 77 OFFCURVE",
"152 65 OFFCURVE",
"152 41 CURVE SMOOTH",
"152 20 OFFCURVE",
"167 -13 OFFCURVE",
"180 -13 CURVE SMOOTH",
"183 -13 OFFCURVE",
"195 -6 OFFCURVE",
"216 9 CURVE",
"217 10 OFFCURVE",
"226 12 OFFCURVE",
"245 15 CURVE SMOOTH",
"261 18 OFFCURVE",
"266 34 OFFCURVE",
"270 50 CURVE",
"271 58 OFFCURVE",
"272 63 OFFCURVE",
"273 66 CURVE"
);
}
);
width = 273;
}
);
unicode = 002E;
},
{
glyphname = slash;
layers = (
{
layerId = "0B97357B-A10C-4E6B-A805-18EA08AD0246";
name = Regular;
paths = (
{
closed = 1;
nodes = (
"911 946 OFFCURVE",
"911 949 OFFCURVE",
"911 953 CURVE SMOOTH",
"911 972 OFFCURVE",
"899 999 OFFCURVE",
"887 1007 CURVE",
"867 1004 OFFCURVE",
"821 972 OFFCURVE",
"748 911 CURVE",
"618 794 LINE",
"549 744 OFFCURVE",
"510 716 OFFCURVE",
"501 710 CURVE SMOOTH",
"396 635 OFFCURVE",
"315 582 OFFCURVE",
"258 551 CURVE SMOOTH",
"221 531 LINE",
"176 507 LINE SMOOTH",
"116 476 OFFCURVE",
"80 443 OFFCURVE",
"69 409 CURVE",
"62 376 LINE",
"87 371 OFFCURVE",
"102 369 OFFCURVE",
"108 369 CURVE SMOOTH",
"119 369 OFFCURVE",
"130 373 OFFCURVE",
"141 382 CURVE",
"152 390 OFFCURVE",
"172 409 OFFCURVE",
"201 438 CURVE",
"211 449 OFFCURVE",
"220 458 OFFCURVE",
"228 466 CURVE",
"236 473 OFFCURVE",
"242 477 OFFCURVE",
"245 478 CURVE",
"455 615 LINE SMOOTH",
"600 708 OFFCURVE",
"710 783 OFFCURVE",
"787 839 CURVE SMOOTH",
"864 895 OFFCURVE",
"905 930 OFFCURVE",
"910 945 CURVE"
);
}
);
width = 300;
}
);
unicode = 002F;
},
{
glyphname = zero;
layers = (
{
layerId = "0B97357B-A10C-4E6B-A805-18EA08AD0246";
name = Regular;
paths = (
{
closed = 1;
nodes = (
"668 363 OFFCURVE",
"626 413 OFFCURVE",
"563 440 CURVE SMOOTH",
"531 453 OFFCURVE",
"497 460 OFFCURVE",
"461 460 CURVE SMOOTH",
"365 460 OFFCURVE",
"258 355 OFFCURVE",
"193 271 CURVE SMOOTH",
"128 186 OFFCURVE",
"82 91 OFFCURVE",
"82 22 CURVE SMOOTH",
"82 -75 OFFCURVE",
"142 -146 OFFCURVE",
"235 -146 CURVE SMOOTH",
"391 -146 OFFCURVE",
"532 -60 OFFCURVE",
"610 76 CURVE SMOOTH",
"649 144 OFFCURVE",
"668 217 OFFCURVE",
"668 296 CURVE SMOOTH"
);
},
{
closed = 1;
nodes = (
"591 170 OFFCURVE",
"522 55 OFFCURVE",
"424 -13 CURVE SMOOTH",
"375 -47 OFFCURVE",
"325 -64 OFFCURVE",
"276 -64 CURVE SMOOTH",
"201 -64 OFFCURVE",
"163 -27 OFFCURVE",
"163 47 CURVE SMOOTH",
"163 144 OFFCURVE",
"228 262 OFFCURVE",
"320 334 CURVE SMOOTH",
"366 369 OFFCURVE",
"412 387 OFFCURVE",
"459 387 CURVE SMOOTH",
"538 387 OFFCURVE",
"591 345 OFFCURVE",
"591 270 CURVE SMOOTH"
);
}
);
width = 668;
}
);
unicode = 0030;
},
{
glyphname = one;
layers = (
{
layerId = "0B97357B-A10C-4E6B-A805-18EA08AD0246";
name = Regular;
paths = (
{
closed = 1;
nodes = (
"235 42 OFFCURVE",
"231 99 OFFCURVE",
"231 162 CURVE SMOOTH",
"231 191 OFFCURVE",
"234 262 OFFCURVE",
"240 377 CURVE SMOOTH",
"243 422 OFFCURVE",
"244 464 OFFCURVE",
"244 503 CURVE SMOOTH",
"244 555 OFFCURVE",
"236 578 OFFCURVE",
"203 578 CURVE SMOOTH",
"197 578 LINE",
"182 558 LINE SMOOTH",
"172 545 OFFCURVE",
"167 537 OFFCURVE",
"167 532 CURVE SMOOTH",
"167 527 OFFCURVE",
"169 520 OFFCURVE",
"173 511 CURVE",
"176 501 OFFCURVE",
"178 494 OFFCURVE",
"178 490 CURVE SMOOTH",
"178 470 OFFCURVE",
"177 445 OFFCURVE",
"174 415 CURVE SMOOTH",
"171 378 OFFCURVE",
"169 353 OFFCURVE",
"169 340 CURVE SMOOTH",
"169 245 OFFCURVE",
"167 179 OFFCURVE",
"164 144 CURVE SMOOTH",
"155 62 LINE SMOOTH",
"152 27 OFFCURVE",
"150 1 OFFCURVE",
"150 -18 CURVE",
"180 -20 LINE",
"184 -21 OFFCURVE",
"192 -20 OFFCURVE",
"204 -17 CURVE SMOOTH",
"215 -14 OFFCURVE",
"229 -11 OFFCURVE",
"244 -7 CURVE"
);
}
);
width = 302;
}
);
unicode = 0031;
},
{
glyphname = two;
layers = (
{
layerId = "0B97357B-A10C-4E6B-A805-18EA08AD0246";
name = Regular;
paths = (
{
closed = 1;
nodes = (
"528 517 OFFCURVE",
"491 565 OFFCURVE",
"416 565 CURVE SMOOTH",
"352 565 OFFCURVE",
"279 547 OFFCURVE",
"235 508 CURVE SMOOTH",
"212 489 OFFCURVE",
"201 465 OFFCURVE",
"201 438 CURVE SMOOTH",
"201 417 OFFCURVE",
"209 407 OFFCURVE",
"224 407 CURVE SMOOTH",
"239 407 OFFCURVE",
"276 425 OFFCURVE",
"333 460 CURVE SMOOTH",
"357 475 OFFCURVE",
"380 483 OFFCURVE",
"402 483 CURVE SMOOTH",
"447 483 OFFCURVE",
"470 455 OFFCURVE",
"470 400 CURVE SMOOTH",
"470 332 OFFCURVE",
"384 231 OFFCURVE",
"282 154 CURVE SMOOTH",
"231 115 OFFCURVE",
"188 90 OFFCURVE",
"153 78 CURVE SMOOTH",
"144 75 OFFCURVE",
"94 61 OFFCURVE",
"82 45 CURVE SMOOTH",
"76 37 OFFCURVE",
"73 26 OFFCURVE",
"73 12 CURVE SMOOTH",
"73 -19 OFFCURVE",
"90 -35 OFFCURVE",
"124 -35 CURVE SMOOTH",
"133 -35 OFFCURVE",
"154 -26 OFFCURVE",
"187 -7 CURVE",
"222 10 OFFCURVE",
"247 18 OFFCURVE",
"263 18 CURVE SMOOTH",
"284 18 OFFCURVE",
"338 2 OFFCURVE",
"423 -31 CURVE",
"415 26 OFFCURVE",
"386 62 OFFCURVE",
"319 115 CURVE",
"442 194 OFFCURVE",
"528 301 OFFCURVE",
"528 420 CURVE SMOOTH"
);
}
);
width = 527;
}
);
unicode = 0032;
},
{
glyphname = three;
layers = (
{
layerId = "0B97357B-A10C-4E6B-A805-18EA08AD0246";
name = Regular;
paths = (
{
closed = 1;
nodes = (
"452 503 OFFCURVE",
"404 546 OFFCURVE",
"332 567 CURVE SMOOTH",
"295 577 OFFCURVE",
"250 585 OFFCURVE",
"196 591 CURVE",
"188 604 LINE",
"157 593 OFFCURVE",
"128 560 OFFCURVE",
"128 524 CURVE SMOOTH",
"128 497 OFFCURVE",
"145 484 OFFCURVE",
"178 484 CURVE SMOOTH",
"187 484 OFFCURVE",
"203 485 OFFCURVE",
"224 487 CURVE",
"270 489 LINE",
"317 489 OFFCURVE",
"355 469 OFFCURVE",
"386 430 CURVE",
"369 394 OFFCURVE",
"330 361 OFFCURVE",
"270 332 CURVE SMOOTH",
"219 307 OFFCURVE",
"194 282 OFFCURVE",
"194 257 CURVE SMOOTH",
"194 222 OFFCURVE",
"215 199 OFFCURVE",
"240 199 CURVE SMOOTH",
"260 199 LINE SMOOTH",
"331 199 OFFCURVE",
"367 172 OFFCURVE",
"367 121 CURVE SMOOTH",
"367 81 OFFCURVE",
"334 52 OFFCURVE",
"290 37 CURVE SMOOTH",
"268 29 OFFCURVE",
"247 25 OFFCURVE",
"226 25 CURVE SMOOTH",
"171 25 OFFCURVE",
"139 49 OFFCURVE",
"130 96 CURVE",
"97 86 OFFCURVE",
"81 67 OFFCURVE",
"81 40 CURVE SMOOTH",
"81 -17 OFFCURVE",
"144 -46 OFFCURVE",
"270 -46 CURVE SMOOTH",
"327 -46 OFFCURVE",
"381 -18 OFFCURVE",
"412 34 CURVE SMOOTH",
"427 59 OFFCURVE",
"435 90 OFFCURVE",
"435 125 CURVE SMOOTH",
"435 182 OFFCURVE",
"412 230 OFFCURVE",
"367 270 CURVE",
"402 316 OFFCURVE",
"425 348 OFFCURVE",
"436 367 CURVE SMOOTH",
"447 386 OFFCURVE",
"452 407 OFFCURVE",
"452 430 CURVE SMOOTH"
);
}
);
width = 452;
}
);
unicode = 0033;
},
{
glyphname = four;
layers = (
{
layerId = "0B97357B-A10C-4E6B-A805-18EA08AD0246";
name = Regular;
paths = (
{
closed = 1;
nodes = (
"535 537 OFFCURVE",
"519 571 OFFCURVE",
"492 571 CURVE SMOOTH",
"477 571 OFFCURVE",
"467 540 OFFCURVE",
"462 478 CURVE SMOOTH",
"456 405 OFFCURVE",
"450 351 OFFCURVE",
"445 317 CURVE SMOOTH",
"433 249 OFFCURVE",
"411 214 OFFCURVE",
"362 214 CURVE SMOOTH",
"326 214 OFFCURVE",
"272 235 OFFCURVE",
"197 268 CURVE",
"294 396 LINE SMOOTH",
"318 428 OFFCURVE",
"330 447 OFFCURVE",
"330 452 CURVE SMOOTH",
"330 471 OFFCURVE",
"319 492 OFFCURVE",
"306 492 CURVE SMOOTH",
"303 492 OFFCURVE",
"283 471 OFFCURVE",
"247 428 CURVE SMOOTH",
"166 331 OFFCURVE",
"120 278 OFFCURVE",
"111 269 CURVE",
"90 250 OFFCURVE",
"80 236 OFFCURVE",
"80 225 CURVE SMOOTH",
"80 202 OFFCURVE",
"106 188 OFFCURVE",
"134 188 CURVE SMOOTH",
"140 188 OFFCURVE",
"153 191 OFFCURVE",
"174 197 CURVE",
"182 200 OFFCURVE",
"190 201 OFFCURVE",
"197 201 CURVE SMOOTH",
"244 201 OFFCURVE",
"307 189 OFFCURVE",
"347 166 CURVE SMOOTH",
"367 155 OFFCURVE",
"377 142 OFFCURVE",
"377 127 CURVE SMOOTH",
"377 112 OFFCURVE",
"375 91 OFFCURVE",
"370 66 CURVE SMOOTH",
"361 17 OFFCURVE",
"357 -17 OFFCURVE",
"357 -36 CURVE",
"388 -31 OFFCURVE",
"408 -13 OFFCURVE",
"416 18 CURVE SMOOTH",
"509 364 LINE SMOOTH",
"526 429 OFFCURVE",
"535 475 OFFCURVE",
"535 502 CURVE SMOOTH"
);
}
);
width = 536;
}
);
unicode = 0034;
},
{
glyphname = five;
layers = (
{
layerId = "0B97357B-A10C-4E6B-A805-18EA08AD0246";
name = Regular;
paths = (
{
closed = 1;
nodes = (
"565 476 OFFCURVE",
"560 484 OFFCURVE",
"550 491 CURVE",
"536 502 OFFCURVE",
"528 508 OFFCURVE",
"527 510 CURVE",
"518 509 LINE",
"479 446 OFFCURVE",
"428 414 OFFCURVE",
"354 394 CURVE SMOOTH",
"317 383 OFFCURVE",
"267 373 OFFCURVE",
"204 363 CURVE",
"189 337 OFFCURVE",
"177 315 OFFCURVE",
"170 296 CURVE",
"151 257 OFFCURVE",
"141 233 OFFCURVE",
"141 224 CURVE SMOOTH",
"141 196 OFFCURVE",
"169 182 OFFCURVE",
"225 182 CURVE SMOOTH",
"236 182 OFFCURVE",
"262 186 OFFCURVE",
"305 194 CURVE",
"325 197 OFFCURVE",
"341 199 OFFCURVE",
"353 199 CURVE SMOOTH",
"402 199 OFFCURVE",
"456 166 OFFCURVE",
"456 126 CURVE SMOOTH",
"456 86 OFFCURVE",
"416 51 OFFCURVE",
"364 32 CURVE SMOOTH",
"337 22 OFFCURVE",
"312 17 OFFCURVE",
"289 17 CURVE SMOOTH",
"272 17 OFFCURVE",
"227 27 OFFCURVE",
"155 46 CURVE SMOOTH",
"125 55 OFFCURVE",
"98 59 OFFCURVE",
"75 59 CURVE",
"75 22 OFFCURVE",
"136 -8 OFFCURVE",
"212 -23 CURVE SMOOTH",
"250 -30 OFFCURVE",
"286 -34 OFFCURVE",
"319 -34 CURVE SMOOTH",
"379 -34 OFFCURVE",
"448 -5 OFFCURVE",
"489 42 CURVE SMOOTH",
"509 65 OFFCURVE",
"519 90 OFFCURVE",
"519 117 CURVE SMOOTH",
"519 182 OFFCURVE",
"492 215 OFFCURVE",
"443 228 CURVE SMOOTH",
"418 234 OFFCURVE",
"385 238 OFFCURVE",
"343 239 CURVE SMOOTH",
"284 240 OFFCURVE",
"244 243 OFFCURVE",
"225 250 CURVE",
"250 302 OFFCURVE",
"330 344 OFFCURVE",
"384 363 CURVE SMOOTH",
"411 372 OFFCURVE",
"447 384 OFFCURVE",
"492 398 CURVE SMOOTH",
"541 415 OFFCURVE",
"565 438 OFFCURVE",
"565 467 CURVE SMOOTH"
);
}
);
width = 565;
}
);
unicode = 0035;
},
{
glyphname = six;
layers = (
{
layerId = "0B97357B-A10C-4E6B-A805-18EA08AD0246";
name = Regular;
paths = (
{
closed = 1;
nodes = (
"566 239 OFFCURVE",
"541 267 OFFCURVE",
"491 267 CURVE SMOOTH",
"367 267 OFFCURVE",
"293 173 OFFCURVE",
"286 36 CURVE",
"277 25 OFFCURVE",
"263 20 OFFCURVE",
"244 20 CURVE SMOOTH",
"189 20 OFFCURVE",
"145 69 OFFCURVE",
"145 125 CURVE SMOOTH",
"145 180 OFFCURVE",
"233 277 OFFCURVE",
"344 389 CURVE",
"344 389 OFFCURVE",
"349 394 OFFCURVE",
"359 404 CURVE SMOOTH",
"408 455 OFFCURVE",
"433 492 OFFCURVE",
"433 515 CURVE SMOOTH",
"433 542 OFFCURVE",
"420 555 OFFCURVE",
"395 555 CURVE SMOOTH",
"381 555 OFFCURVE",
"368 549 OFFCURVE",
"355 536 CURVE",
"250 391 LINE",
"222 359 OFFCURVE",
"192 327 OFFCURVE",
"159 296 CURVE SMOOTH",
"110 248 OFFCURVE",
"75 174 OFFCURVE",
"75 113 CURVE SMOOTH",
"75 22 OFFCURVE",
"133 -23 OFFCURVE",
"248 -23 CURVE SMOOTH",
"356 -23 OFFCURVE",
"460 9 OFFCURVE",
"521 71 CURVE SMOOTH",
"551 102 OFFCURVE",
"566 139 OFFCURVE",
"566 182 CURVE SMOOTH"
);
},
{
closed = 1;
nodes = (
"509 138 OFFCURVE",
"477 95 OFFCURVE",
"437 70 CURVE SMOOTH",
"416 57 OFFCURVE",
"398 51 OFFCURVE",
"381 51 CURVE SMOOTH",
"356 51 OFFCURVE",
"344 61 OFFCURVE",
"344 80 CURVE SMOOTH",
"344 111 OFFCURVE",
"377 154 OFFCURVE",
"418 182 CURVE SMOOTH",
"438 195 OFFCURVE",
"456 202 OFFCURVE",
"471 202 CURVE SMOOTH",
"496 202 OFFCURVE",
"509 192 OFFCURVE",
"509 171 CURVE SMOOTH"
);
}
);
width = 565;
}
);
unicode = 0036;
},
{
glyphname = seven;
layers = (
{
layerId = "0B97357B-A10C-4E6B-A805-18EA08AD0246";
name = Regular;
paths = (
{
closed = 1;
nodes = (
"550 558 OFFCURVE",
"536 529 OFFCURVE",
"509 482 CURVE SMOOTH",
"441 367 OFFCURVE",
"405 303 OFFCURVE",
"400 290 CURVE",
"401 290 OFFCURVE",
"401 289 OFFCURVE",
"401 288 CURVE SMOOTH",
"401 284 OFFCURVE",
"399 277 OFFCURVE",
"394 268 CURVE",
"420 265 LINE",
"428 265 OFFCURVE",
"433 259 OFFCURVE",
"433 251 CURVE SMOOTH",
"433 233 LINE SMOOTH",
"433 224 OFFCURVE",
"426 216 OFFCURVE",
"415 217 CURVE SMOOTH",
"374 222 LINE",
"336 138 OFFCURVE",
"310 53 OFFCURVE",
"296 -33 CURVE",
"276 -30 LINE SMOOTH",
"256 -27 OFFCURVE",
"242 -24 OFFCURVE",
"235 -21 CURVE",
"220 -17 OFFCURVE",
"213 -9 OFFCURVE",
"202 15 CURVE",
"234 61 OFFCURVE",
"272 132 OFFCURVE",
"316 229 CURVE",
"232 240 LINE",
"221 241 OFFCURVE",
"216 251 OFFCURVE",
"219 260 CURVE",
"223 274 LINE SMOOTH",
"225 281 OFFCURVE",
"230 285 OFFCURVE",
"238 285 CURVE",
"336 274 LINE",
"347 299 OFFCURVE",
"359 326 OFFCURVE",
"371 355 CURVE SMOOTH",
"395 412 OFFCURVE",
"417 470 OFFCURVE",
"438 529 CURVE",
"367 501 LINE SMOOTH",
"334 488 OFFCURVE",
"237 473 OFFCURVE",
"196 473 CURVE SMOOTH",
"152 473 OFFCURVE",
"130 487 OFFCURVE",
"130 516 CURVE SMOOTH",
"130 541 OFFCURVE",
"147 553 OFFCURVE",
"182 553 CURVE SMOOTH",
"193 553 OFFCURVE",
"205 552 OFFCURVE",
"219 550 CURVE SMOOTH",
"250 545 OFFCURVE",
"270 543 OFFCURVE",
"281 543 CURVE SMOOTH",
"292 543 OFFCURVE",
"301 543 OFFCURVE",
"308 542 CURVE SMOOTH",
"315 541 OFFCURVE",
"319 540 OFFCURVE",
"322 540 CURVE SMOOTH",
"325 540 OFFCURVE",
"333 543 OFFCURVE",
"344 549 CURVE SMOOTH",
"393 574 LINE SMOOTH",
"446 601 OFFCURVE",
"484 615 OFFCURVE",
"505 615 CURVE SMOOTH",
"529 615 OFFCURVE",
"550 594 OFFCURVE",
"550 570 CURVE SMOOTH"
);
}
);
width = 553;
}
);
unicode = 0037;
},
{
glyphname = eight;
layers = (
{
layerId = "0B97357B-A10C-4E6B-A805-18EA08AD0246";
name = Regular;
paths = (
{
closed = 1;
nodes = (
"529 268 OFFCURVE",
"496 256 OFFCURVE",
"448 233 CURVE SMOOTH",
"401 209 OFFCURVE",
"370 197 OFFCURVE",
"353 197 CURVE SMOOTH",
"338 197 OFFCURVE",
"289 226 OFFCURVE",
"206 285 CURVE SMOOTH",
"165 314 OFFCURVE",
"145 331 OFFCURVE",
"145 336 CURVE SMOOTH",
"145 367 OFFCURVE",
"185 392 OFFCURVE",
"235 406 CURVE SMOOTH",
"260 413 OFFCURVE",
"282 416 OFFCURVE",
"302 416 CURVE SMOOTH",
"373 416 OFFCURVE",
"410 392 OFFCURVE",
"414 344 CURVE",
"441 344 LINE SMOOTH",
"480 344 OFFCURVE",
"500 355 OFFCURVE",
"500 378 CURVE SMOOTH",
"500 433 OFFCURVE",
"444 461 OFFCURVE",
"333 461 CURVE SMOOTH",
"304 461 LINE SMOOTH",
"184 461 OFFCURVE",
"81 420 OFFCURVE",
"81 335 CURVE SMOOTH",
"81 295 OFFCURVE",
"143 244 OFFCURVE",
"190 216 CURVE SMOOTH",
"213 202 OFFCURVE",
"244 184 OFFCURVE",
"282 163 CURVE",
"202 96 LINE SMOOTH",
"132 37 OFFCURVE",
"97 -8 OFFCURVE",
"97 -41 CURVE SMOOTH",
"97 -80 OFFCURVE",
"134 -108 OFFCURVE",
"183 -122 CURVE SMOOTH",
"208 -129 OFFCURVE",
"232 -133 OFFCURVE",
"256 -133 CURVE SMOOTH",
"375 -133 OFFCURVE",
"434 -97 OFFCURVE",
"434 -26 CURVE SMOOTH",
"434 -11 OFFCURVE",
"429 11 OFFCURVE",
"420 41 CURVE SMOOTH",
"403 96 OFFCURVE",
"394 126 OFFCURVE",
"394 129 CURVE SMOOTH",
"394 140 OFFCURVE",
"408 155 OFFCURVE",
"435 175 CURVE SMOOTH",
"502 224 OFFCURVE",
"539 255 OFFCURVE",
"546 268 CURVE"
);
},
{
closed = 1;
nodes = (
"375 -62 OFFCURVE",
"331 -86 OFFCURVE",
"244 -86 CURVE SMOOTH",
"194 -86 OFFCURVE",
"169 -71 OFFCURVE",
"169 -40 CURVE SMOOTH",
"169 7 OFFCURVE",
"244 68 OFFCURVE",
"320 104 CURVE",
"348 57 OFFCURVE",
"362 33 OFFCURVE",
"363 31 CURVE SMOOTH",
"371 14 OFFCURVE",
"375 -1 OFFCURVE",
"375 -15 CURVE SMOOTH"
);
}
);
width = 546;
}
);
unicode = 0038;
},
{
glyphname = nine;
layers = (
{
layerId = "0B97357B-A10C-4E6B-A805-18EA08AD0246";
name = Regular;
paths = (
{
closed = 1;
nodes = (
"477 475 OFFCURVE",
"444 512 OFFCURVE",
"378 533 CURVE",
"293 512 OFFCURVE",
"190 447 OFFCURVE",
"127 369 CURVE SMOOTH",
"96 330 OFFCURVE",
"80 292 OFFCURVE",
"80 255 CURVE SMOOTH",
"80 205 OFFCURVE",
"128 182 OFFCURVE",
"223 185 CURVE SMOOTH",
"302 187 LINE",
"232 45 LINE SMOOTH",
"197 -25 OFFCURVE",
"180 -70 OFFCURVE",
"180 -89 CURVE",
"201 -94 OFFCURVE",
"212 -96 OFFCURVE",
"214 -96 CURVE",
"216 -97 OFFCURVE",
"223 -97 OFFCURVE",
"234 -97 CURVE SMOOTH",
"244 -97 OFFCURVE",
"252 -95 OFFCURVE",
"257 -90 CURVE",
"269 -81 OFFCURVE",
"279 -64 OFFCURVE",
"287 -39 CURVE SMOOTH",
"294 -15 OFFCURVE",
"303 18 OFFCURVE",
"312 59 CURVE",
"313 68 OFFCURVE",
"315 75 OFFCURVE",
"316 80 CURVE",
"323 103 OFFCURVE",
"338 130 OFFCURVE",
"359 160 CURVE SMOOTH",
"427 257 OFFCURVE",
"450 292 OFFCURVE",
"466 340 CURVE SMOOTH",
"473 363 OFFCURVE",
"477 390 OFFCURVE",
"477 420 CURVE SMOOTH"
);
},
{
closed = 1;
nodes = (
"411 386 OFFCURVE",
"397 369 OFFCURVE",
"358 321 CURVE",
"330 274 LINE",
"303 241 OFFCURVE",
"264 224 OFFCURVE",
"214 224 CURVE SMOOTH",
"169 224 OFFCURVE",
"147 242 OFFCURVE",
"147 278 CURVE SMOOTH",
"147 330 OFFCURVE",
"206 393 OFFCURVE",
"278 431 CURVE SMOOTH",
"313 450 OFFCURVE",
"345 459 OFFCURVE",
"373 459 CURVE SMOOTH",
"398 459 OFFCURVE",
"411 447 OFFCURVE",
"411 422 CURVE SMOOTH"
);
}
);
width = 470;
}
);
unicode = 0039;
},
{
glyphname = colon;
layers = (
{
layerId = "0B97357B-A10C-4E6B-A805-18EA08AD0246";
name = Regular;
paths = (
{
closed = 1;
nodes = (
"293 460 OFFCURVE",
"272 487 OFFCURVE",
"252 487 CURVE SMOOTH",
"224 487 OFFCURVE",
"197 459 OFFCURVE",
"197 431 CURVE",
"196 429 OFFCURVE",
"196 426 OFFCURVE",
"196 421 CURVE SMOOTH",
"196 414 OFFCURVE",
"196 408 OFFCURVE",
"197 402 CURVE",
"261 402 OFFCURVE",
"293 414 OFFCURVE",
"293 439 CURVE SMOOTH"
);
},
{
closed = 1;
nodes = (
"231 243 OFFCURVE",
"219 258 OFFCURVE",
"194 258 CURVE SMOOTH",
"163 258 OFFCURVE",
"140 230 OFFCURVE",
"140 197 CURVE SMOOTH",
"140 174 OFFCURVE",
"153 163 OFFCURVE",
"179 163 CURVE SMOOTH",
"214 163 OFFCURVE",
"231 180 OFFCURVE",
"231 213 CURVE SMOOTH"
);
}
);
width = 282;
}
);
unicode = 003A;
},
{
glyphname = semicolon;
layers = (
{
layerId = "0B97357B-A10C-4E6B-A805-18EA08AD0246";
name = Regular;
paths = (
{
closed = 1;
nodes = (
"342 440 OFFCURVE",
"328 464 OFFCURVE",
"305 464 CURVE SMOOTH",
"293 464 OFFCURVE",
"282 456 OFFCURVE",
"272 440 CURVE SMOOTH",
"270 437 OFFCURVE",
"269 431 OFFCURVE",
"269 420 CURVE SMOOTH",
"269 405 OFFCURVE",
"270 393 OFFCURVE",
"273 383 CURVE",
"298 383 OFFCURVE",
"323 386 OFFCURVE",
"348 392 CURVE"
);
},
{
closed = 1;
nodes = (
"390 105 OFFCURVE",
"360 164 OFFCURVE",
"323 164 CURVE SMOOTH",
"306 164 OFFCURVE",
"285 142 OFFCURVE",
"285 131 CURVE SMOOTH",
"285 126 OFFCURVE",
"290 113 OFFCURVE",
"301 92 CURVE SMOOTH",
"312 71 OFFCURVE",
"317 53 OFFCURVE",
"317 38 CURVE SMOOTH",
"317 7 OFFCURVE",
"303 -25 OFFCURVE",
"275 -57 CURVE SMOOTH",
"246 -89 OFFCURVE",
"200 -130 OFFCURVE",
"137 -179 CURVE SMOOTH",
"95 -212 OFFCURVE",
"74 -231 OFFCURVE",
"74 -237 CURVE",
"75 -248 LINE",
"178 -217 OFFCURVE",
"282 -152 OFFCURVE",
"344 -69 CURVE SMOOTH",
"375 -28 OFFCURVE",
"390 14 OFFCURVE",
"390 56 CURVE SMOOTH"
);
}
);
width = 395;
}
);
unicode = 003B;
},
{
glyphname = less;
layers = (
{
layerId = "0B97357B-A10C-4E6B-A805-18EA08AD0246";
name = Regular;
paths = (
{
closed = 1;
nodes = (
"649 606 OFFCURVE",
"647 611 OFFCURVE",
"645 618 CURVE",
"641 630 OFFCURVE",
"635 632 OFFCURVE",
"619 632 CURVE",
"508 545 LINE SMOOTH",
"296 379 OFFCURVE",
"176 296 OFFCURVE",
"149 296 CURVE SMOOTH",
"109 296 OFFCURVE",
"75 280 OFFCURVE",
"75 249 CURVE SMOOTH",
"75 229 LINE",
"120 217 OFFCURVE",
"133 208 OFFCURVE",
"140 172 CURVE",
"173 191 OFFCURVE",
"195 200 OFFCURVE",
"206 200 CURVE SMOOTH",
"266 200 OFFCURVE",
"298 190 OFFCURVE",
"332 166 CURVE SMOOTH",
"349 154 OFFCURVE",
"375 133 OFFCURVE",
"411 103 CURVE SMOOTH",
"430 87 LINE SMOOTH",
"461 61 OFFCURVE",
"491 48 OFFCURVE",
"518 48 CURVE",
"518 81 LINE SMOOTH",
"518 135 OFFCURVE",
"465 180 OFFCURVE",
"358 216 CURVE SMOOTH",
"291 239 OFFCURVE",
"250 256 OFFCURVE",
"235 267 CURVE",
"375 359 LINE SMOOTH",
"558 480 OFFCURVE",
"650 562 OFFCURVE",
"650 603 CURVE"
);
}
);
width = 697;
}
);
unicode = 003C;
},
{
glyphname = equal;
layers = (
{
layerId = "0B97357B-A10C-4E6B-A805-18EA08AD0246";
name = Regular;
paths = (
{
closed = 1;
nodes = (
"467 396 OFFCURVE",
"425 402 OFFCURVE",
"326 402 CURVE SMOOTH",
"244 402 LINE SMOOTH",
"237 402 OFFCURVE",
"226 405 OFFCURVE",
"211 412 CURVE",
"195 418 OFFCURVE",
"183 421 OFFCURVE",
"175 421 CURVE SMOOTH",
"152 421 OFFCURVE",
"123 389 OFFCURVE",
"123 365 CURVE SMOOTH",
"123 345 OFFCURVE",
"139 335 OFFCURVE",
"172 334 CURVE SMOOTH",
"258 332 LINE",
"373 330 LINE",
"411 330 LINE SMOOTH",
"455 330 OFFCURVE",
"487 341 OFFCURVE",
"508 364 CURVE"
);
},
{
closed = 1;
nodes = (
"472 241 OFFCURVE",
"467 249 OFFCURVE",
"457 253 CURVE",
"446 256 OFFCURVE",
"429 258 OFFCURVE",
"406 258 CURVE SMOOTH",
"391 258 OFFCURVE",
"363 256 OFFCURVE",
"321 253 CURVE SMOOTH",
"283 249 OFFCURVE",
"255 247 OFFCURVE",
"236 247 CURVE SMOOTH",
"223 247 OFFCURVE",
"210 249 OFFCURVE",
"195 254 CURVE",
"162 263 OFFCURVE",
"141 268 OFFCURVE",
"132 268 CURVE SMOOTH",
"93 268 OFFCURVE",
"73 251 OFFCURVE",
"73 218 CURVE SMOOTH",
"73 211 OFFCURVE",
"73 205 OFFCURVE",
"74 200 CURVE SMOOTH",
"75 194 OFFCURVE",
"75 188 OFFCURVE",
"75 181 CURVE",
"109 181 OFFCURVE",
"176 183 OFFCURVE",
"276 188 CURVE SMOOTH",
"322 190 OFFCURVE",
"362 191 OFFCURVE",
"396 191 CURVE SMOOTH",
"406 191 LINE",
"411 190 OFFCURVE",
"417 190 OFFCURVE",
"425 190 CURVE SMOOTH",
"456 190 OFFCURVE",
"472 203 OFFCURVE",
"472 228 CURVE SMOOTH"
);
}
);
width = 508;
}
);
unicode = 003D;
},
{
glyphname = greater;
layers = (
{
layerId = "0B97357B-A10C-4E6B-A805-18EA08AD0246";
name = Regular;
paths = (
{
closed = 1;
nodes = (
"664 460 OFFCURVE",
"567 500 OFFCURVE",
"464 580 CURVE SMOOTH",
"403 628 OFFCURVE",
"361 661 OFFCURVE",
"339 680 CURVE",
"313 661 OFFCURVE",
"300 643 OFFCURVE",
"300 624 CURVE SMOOTH",
"300 601 OFFCURVE",
"318 579 OFFCURVE",
"355 558 CURVE SMOOTH",
"392 536 OFFCURVE",
"437 513 OFFCURVE",
"492 490 CURVE",
"500 487 OFFCURVE",
"507 484 OFFCURVE",
"514 481 CURVE SMOOTH",
"566 458 OFFCURVE",
"596 434 OFFCURVE",
"603 410 CURVE",
"590 354 OFFCURVE",
"456 234 OFFCURVE",
"317 142 CURVE SMOOTH",
"248 95 OFFCURVE",
"195 70 OFFCURVE",
"159 66 CURVE",
"159 48 LINE SMOOTH",
"159 32 OFFCURVE",
"160 19 OFFCURVE",
"163 9 CURVE",
"177 -10 OFFCURVE",
"195 -20 OFFCURVE",
"218 -20 CURVE SMOOTH",
"233 -20 OFFCURVE",
"245 -13 OFFCURVE",
"254 0 CURVE SMOOTH",
"279 36 OFFCURVE",
"331 81 OFFCURVE",
"409 136 CURVE SMOOTH",
"620 283 LINE SMOOTH",
"693 334 OFFCURVE",
"732 365 OFFCURVE",
"739 377 CURVE",
"748 396 OFFCURVE",
"753 423 OFFCURVE",
"753 460 CURVE"
);
}
);
width = 753;
}
);
unicode = 003E;
},
{
glyphname = question;
layers = (
{
layerId = "0B97357B-A10C-4E6B-A805-18EA08AD0246";
name = Regular;
paths = (
{
closed = 1;
nodes = (
"567 625 OFFCURVE",
"545 647 OFFCURVE",
"501 647 CURVE SMOOTH",
"497 647 OFFCURVE",
"494 647 OFFCURVE",
"491 646 CURVE",
"422 646 OFFCURVE",
"357 639 OFFCURVE",
"294 625 CURVE SMOOTH",
"231 610 OFFCURVE",
"200 589 OFFCURVE",
"200 560 CURVE SMOOTH",
"200 547 OFFCURVE",
"208 540 OFFCURVE",
"225 540 CURVE SMOOTH",
"247 540 OFFCURVE",
"274 545 OFFCURVE",
"306 556 CURVE SMOOTH",
"378 579 OFFCURVE",
"424 591 OFFCURVE",
"444 591 CURVE SMOOTH",
"463 591 OFFCURVE",
"482 582 OFFCURVE",
"499 565 CURVE",
"476 502 OFFCURVE",
"401 436 OFFCURVE",
"358 408 CURVE SMOOTH",
"336 394 OFFCURVE",
"300 371 OFFCURVE",
"249 340 CURVE SMOOTH",
"202 310 OFFCURVE",
"179 282 OFFCURVE",
"179 257 CURVE SMOOTH",
"179 244 OFFCURVE",
"185 219 OFFCURVE",
"197 182 CURVE",
"216 186 OFFCURVE",
"231 202 OFFCURVE",
"242 231 CURVE",
"253 264 OFFCURVE",
"263 282 OFFCURVE",
"272 287 CURVE",
"389 364 LINE SMOOTH",
"508 443 OFFCURVE",
"567 505 OFFCURVE",
"567 580 CURVE SMOOTH"
);
},
{
closed = 1;
nodes = (
"266 64 OFFCURVE",
"251 79 OFFCURVE",
"222 79 CURVE SMOOTH",
"181 79 OFFCURVE",
"168 59 OFFCURVE",
"160 10 CURVE",
"181 7 OFFCURVE",
"199 5 OFFCURVE",
"212 5 CURVE SMOOTH",
"248 5 OFFCURVE",
"266 15 OFFCURVE",
"266 34 CURVE SMOOTH"
);
}
);
width = 565;
}
);
unicode = 003F;
},
{
glyphname = at;
lastChange = "2015-06-27 04:02:47 +0000";
layers = (
{
layerId = "0B97357B-A10C-4E6B-A805-18EA08AD0246";
name = Regular;
paths = (
{
closed = 1;
nodes = (
"166 658 OFFCURVE",
"148 606 OFFCURVE",
"139 569 CURVE SMOOTH",
"130 532 OFFCURVE",
"127 517 OFFCURVE",
"112 489 CURVE",
"105 474 OFFCURVE",
"91 451 OFFCURVE",
"72 420 CURVE SMOOTH",
"36 358 LINE SMOOTH",
"26 342 OFFCURVE",
"18 328 OFFCURVE",
"12 316 CURVE",
"7 310 OFFCURVE",
"3 303 OFFCURVE",
"0 296 CURVE",
"-5 288 OFFCURVE",
"-7 282 OFFCURVE",
"-4 277 CURVE",
"-1 269 LINE",
"28 268 OFFCURVE",
"47 267 OFFCURVE",
"55 267 CURVE SMOOTH",
"76 267 OFFCURVE",
"91 268 OFFCURVE",
"99 270 CURVE",
"143 279 OFFCURVE",
"207 320 OFFCURVE",
"247 364 CURVE SMOOTH",
"267 386 OFFCURVE",
"277 405 OFFCURVE",
"277 422 CURVE SMOOTH",
"277 425 OFFCURVE",
"276 429 OFFCURVE",
"275 434 CURVE",
"267 452 OFFCURVE",
"245 461 OFFCURVE",
"209 462 CURVE",
"129 456 LINE",
"127 472 OFFCURVE",
"134 494 OFFCURVE",
"149 522 CURVE SMOOTH",
"168 556 LINE SMOOTH",
"201 616 OFFCURVE",
"210 638 OFFCURVE",
"209 667 CURVE"
);
},
{
closed = 1;
nodes = (
"246 390 OFFCURVE",
"205 349 OFFCURVE",
"157 318 CURVE SMOOTH",
"132 303 OFFCURVE",
"111 293 OFFCURVE",
"93 289 CURVE",
"90 288 OFFCURVE",
"87 288 OFFCURVE",
"83 288 CURVE SMOOTH",
"60 288 OFFCURVE",
"55 311 OFFCURVE",
"55 326 CURVE SMOOTH",
"55 374 OFFCURVE",
"105 422 OFFCURVE",
"166 437 CURVE",
"181 440 OFFCURVE",
"194 442 OFFCURVE",
"205 442 CURVE SMOOTH",
"232 442 OFFCURVE",
"246 434 OFFCURVE",
"246 417 CURVE SMOOTH"
);
}
);
width = 230;
}
);
unicode = 0040;
},
{
glyphname = A;
layers = (
{
layerId = "0B97357B-A10C-4E6B-A805-18EA08AD0246";
name = Regular;
paths = (
{
closed = 1;
nodes = (
"480 657 LINE",
"408 624 OFFCURVE",
"364 583 OFFCURVE",
"311 490 CURVE SMOOTH",
"287 446 LINE SMOOTH",
"276 427 OFFCURVE",
"273 422 OFFCURVE",
"266 416 CURVE",
"262 413 OFFCURVE",
"259 410 OFFCURVE",
"256 407 CURVE",
"245 411 OFFCURVE",
"228 398 OFFCURVE",
"224 391 CURVE",
"212 375 OFFCURVE",
"200 344 OFFCURVE",
"197 337 CURVE SMOOTH",
"183 306 LINE",
"178 296 OFFCURVE",
"173 283 OFFCURVE",
"168 267 CURVE SMOOTH",
"156 232 OFFCURVE",
"149 218 OFFCURVE",
"124 209 CURVE",
"99 199 OFFCURVE",
"86 183 OFFCURVE",
"86 161 CURVE SMOOTH",
"86 158 OFFCURVE",
"87 153 OFFCURVE",
"88 145 CURVE",
"90 136 LINE",
"134 130 LINE",
"119 96 OFFCURVE",
"105 67 OFFCURVE",
"91 42 CURVE",
"66 -9 OFFCURVE",
"58 -25 OFFCURVE",
"61 -50 CURVE",
"126 -34 OFFCURVE",
"153 34 OFFCURVE",
"177 130 CURVE SMOOTH",
"184 155 LINE",
"206 201 OFFCURVE",
"245 231 OFFCURVE",
"302 244 CURVE SMOOTH",
"338 253 LINE SMOOTH",
"365 260 OFFCURVE",
"388 263 OFFCURVE",
"407 263 CURVE SMOOTH",
"416 263 OFFCURVE",
"424 262 OFFCURVE",
"431 260 CURVE",
"431 259 OFFCURVE",
"434 254 OFFCURVE",
"441 245 CURVE",
"446 238 OFFCURVE",
"450 232 OFFCURVE",
"451 229 CURVE",
"453 219 OFFCURVE",
"454 205 OFFCURVE",
"454 188 CURVE SMOOTH",
"454 111 OFFCURVE",
"456 87 OFFCURVE",
"497 49 CURVE SMOOTH",
"518 30 OFFCURVE",
"540 20 OFFCURVE",
"563 20 CURVE SMOOTH",
"572 20 OFFCURVE",
"578 21 OFFCURVE",
"582 22 CURVE SMOOTH",
"594 25 LINE",
"614 33 LINE",
"568 69 LINE SMOOTH",
"535 95 OFFCURVE",
"516 120 OFFCURVE",
"511 143 CURVE SMOOTH",
"509 151 OFFCURVE",
"507 164 OFFCURVE",
"506 182 CURVE",
"506 202 LINE",
"507 276 LINE SMOOTH",
"507 304 OFFCURVE",
"506 330 OFFCURVE",
"503 355 CURVE SMOOTH",
"493 449 LINE",
"492 454 OFFCURVE",
"492 463 OFFCURVE",
"492 474 CURVE SMOOTH",
"492 499 OFFCURVE",
"495 529 OFFCURVE",
"501 565 CURVE",
"506 604 OFFCURVE",
"509 631 OFFCURVE",
"509 648 CURVE",
"508 651 OFFCURVE",
"508 655 OFFCURVE",
"508 660 CURVE"
);
},
{
closed = 1;
nodes = (
"448 540 OFFCURVE",
"451 508 OFFCURVE",
"451 467 CURVE SMOOTH",
"452 393 LINE SMOOTH",
"452 302 OFFCURVE",
"432 300 OFFCURVE",
"393 291 CURVE",
"376 288 OFFCURVE",
"355 286 OFFCURVE",
"330 286 CURVE SMOOTH",
"317 286 OFFCURVE",
"306 286 OFFCURVE",
"298 287 CURVE SMOOTH",
"287 288 OFFCURVE",
"276 288 OFFCURVE",
"267 288 CURVE",
"258 287 OFFCURVE",
"250 287 OFFCURVE",
"243 287 CURVE",
"259 338 OFFCURVE",
"261 341 OFFCURVE",
"294 400 CURVE",
"293 399 OFFCURVE",
"303 416 OFFCURVE",
"323 453 CURVE SMOOTH",
"344 492 OFFCURVE",
"384 529 OFFCURVE",
"442 565 CURVE"
);
},
{
closed = 1;
nodes = (
"242 380 LINE",
"243 379 OFFCURVE",
"241 375 OFFCURVE",
"237 370 CURVE SMOOTH",
"232 364 OFFCURVE",
"229 360 OFFCURVE",
"227 357 CURVE",
"226 358 OFFCURVE",
"222 361 OFFCURVE",
"222 368 CURVE SMOOTH",
"222 373 OFFCURVE",
"224 378 OFFCURVE",
"228 383 CURVE",
"235 389 LINE"
);
},
{
closed = 1;
nodes = (
"207 346 LINE",
"215 358 LINE",
"226 351 LINE",
"228 341 LINE",
"222 329 LINE",
"210 337 LINE"
);
}
);
width = 622;
}
);
unicode = 0041;
},
{
glyphname = B;
layers = (
{
layerId = "0B97357B-A10C-4E6B-A805-18EA08AD0246";
name = Regular;
paths = (
{
closed = 1;
nodes = (
"640 626 OFFCURVE",
"598 642 OFFCURVE",
"499 642 CURVE SMOOTH",
"435 642 OFFCURVE",
"340 621 OFFCURVE",
"280 586 CURVE SMOOTH",
"249 568 OFFCURVE",
"234 548 OFFCURVE",
"234 527 CURVE SMOOTH",
"234 513 LINE SMOOTH",
"234 510 OFFCURVE",
"237 505 OFFCURVE",
"244 498 CURVE",
"255 503 OFFCURVE",
"272 513 OFFCURVE",
"295 528 CURVE SMOOTH",
"316 541 OFFCURVE",
"333 550 OFFCURVE",
"347 555 CURVE",
"349 542 LINE",
"349 513 OFFCURVE",
"332 468 OFFCURVE",
"297 409 CURVE SMOOTH",
"252 332 LINE SMOOTH",
"175 204 OFFCURVE",
"150 155 OFFCURVE",
"150 95 CURVE",
"207 85 LINE",
"241 209 OFFCURVE",
"310 271 OFFCURVE",
"414 271 CURVE SMOOTH",
"479 271 OFFCURVE",
"555 246 OFFCURVE",
"555 206 CURVE SMOOTH",
"555 163 OFFCURVE",
"451 105 OFFCURVE",
"338 66 CURVE SMOOTH",
"281 47 OFFCURVE",
"239 37 OFFCURVE",
"210 37 CURVE SMOOTH",
"188 37 OFFCURVE",
"149 53 OFFCURVE",
"93 85 CURVE",
"88 71 OFFCURVE",
"86 60 OFFCURVE",
"86 51 CURVE SMOOTH",
"86 12 OFFCURVE",
"134 -9 OFFCURVE",
"186 -9 CURVE SMOOTH",
"290 -9 OFFCURVE",
"447 34 OFFCURVE",
"547 101 CURVE SMOOTH",
"596 134 OFFCURVE",
"621 170 OFFCURVE",
"621 208 CURVE SMOOTH",
"621 255 OFFCURVE",
"590 280 OFFCURVE",
"547 296 CURVE",
"525 303 OFFCURVE",
"494 311 OFFCURVE",
"454 320 CURVE SMOOTH",
"432 325 LINE",
"492 368 OFFCURVE",
"535 399 OFFCURVE",
"560 420 CURVE SMOOTH",
"611 460 OFFCURVE",
"640 500 OFFCURVE",
"640 555 CURVE SMOOTH"
);
},
{
closed = 1;
nodes = (
"573 508 OFFCURVE",
"509 440 OFFCURVE",
"439 392 CURVE SMOOTH",
"404 368 OFFCURVE",
"376 355 OFFCURVE",
"357 354 CURVE",
"338 335 LINE",
"338 355 OFFCURVE",
"349 387 OFFCURVE",
"372 432 CURVE SMOOTH",
"394 477 OFFCURVE",
"405 508 OFFCURVE",
"405 523 CURVE SMOOTH",
"405 537 OFFCURVE",
"402 551 OFFCURVE",
"395 565 CURVE",
"442 588 OFFCURVE",
"466 596 OFFCURVE",
"497 596 CURVE SMOOTH",
"537 596 OFFCURVE",
"573 577 OFFCURVE",
"573 544 CURVE SMOOTH"
);
}
);
width = 621;
}
);
unicode = 0042;
},
{
glyphname = C;
layers = (
{
layerId = "0B97357B-A10C-4E6B-A805-18EA08AD0246";
name = Regular;
paths = (
{
closed = 1;
nodes = (
"706 57 LINE",
"703 68 OFFCURVE",
"699 76 OFFCURVE",
"696 81 CURVE",
"686 80 OFFCURVE",
"667 74 OFFCURVE",
"640 64 CURVE SMOOTH",
"613 55 OFFCURVE",
"594 49 OFFCURVE",
"583 47 CURVE",
"458 30 OFFCURVE",
"419 25 OFFCURVE",
"359 25 CURVE SMOOTH",
"238 25 OFFCURVE",
"142 77 OFFCURVE",
"142 174 CURVE SMOOTH",
"142 277 OFFCURVE",
"224 396 OFFCURVE",
"295 469 CURVE SMOOTH",
"366 542 OFFCURVE",
"449 592 OFFCURVE",
"521 592 CURVE SMOOTH",
"562 592 OFFCURVE",
"583 573 OFFCURVE",
"583 536 CURVE SMOOTH",
"583 517 OFFCURVE",
"578 489 OFFCURVE",
"569 450 CURVE",
"581 429 OFFCURVE",
"586 423 OFFCURVE",
"598 420 CURVE",
"603 418 OFFCURVE",
"614 416 OFFCURVE",
"631 413 CURVE",
"640 486 OFFCURVE",
"645 527 OFFCURVE",
"645 537 CURVE SMOOTH",
"645 614 OFFCURVE",
"604 652 OFFCURVE",
"523 652 CURVE SMOOTH",
"411 652 OFFCURVE",
"289 544 OFFCURVE",
"213 453 CURVE SMOOTH",
"137 362 OFFCURVE",
"84 260 OFFCURVE",
"84 181 CURVE SMOOTH",
"84 53 OFFCURVE",
"173 -11 OFFCURVE",
"350 -11 CURVE SMOOTH",
"405 -11 OFFCURVE",
"465 -4 OFFCURVE",
"530 11 CURVE SMOOTH"
);
}
);
width = 706;
}
);
unicode = 0043;
},
{
glyphname = D;
layers = (
{
layerId = "0B97357B-A10C-4E6B-A805-18EA08AD0246";
name = Regular;
paths = (
{
closed = 1;
nodes = (
"677 466 OFFCURVE",
"547 561 OFFCURVE",
"444 617 CURVE SMOOTH",
"340 673 OFFCURVE",
"223 709 OFFCURVE",
"132 709 CURVE SMOOTH",
"105 709 OFFCURVE",
"76 693 OFFCURVE",
"76 673 CURVE",
"85 652 OFFCURVE",
"115 642 OFFCURVE",
"168 642 CURVE SMOOTH",
"188 642 LINE SMOOTH",
"289 642 OFFCURVE",
"451 572 OFFCURVE",
"552 478 CURVE SMOOTH",
"603 431 OFFCURVE",
"628 385 OFFCURVE",
"628 340 CURVE SMOOTH",
"628 220 OFFCURVE",
"491 132 OFFCURVE",
"385 80 CURVE SMOOTH",
"279 27 OFFCURVE",
"161 -8 OFFCURVE",
"77 -8 CURVE SMOOTH",
"20 -8 OFFCURVE",
"-9 5 OFFCURVE",
"-9 52 CURVE",
"-8 66 LINE",
"-38 55 OFFCURVE",
"-53 40 OFFCURVE",
"-53 20 CURVE SMOOTH",
"-53 -26 OFFCURVE",
"-10 -49 OFFCURVE",
"76 -49 CURVE SMOOTH",
"150 -49 OFFCURVE",
"233 -33 OFFCURVE",
"325 0 CURVE SMOOTH",
"530 76 OFFCURVE",
"677 189 OFFCURVE",
"677 334 CURVE SMOOTH"
);
},
{
closed = 1;
nodes = (
"433 517 LINE",
"393 500 OFFCURVE",
"356 451 OFFCURVE",
"321 369 CURVE SMOOTH",
"301 320 OFFCURVE",
"285 286 OFFCURVE",
"273 268 CURVE",
"220 205 LINE SMOOTH",
"195 176 OFFCURVE",
"183 154 OFFCURVE",
"183 139 CURVE SMOOTH",
"183 122 OFFCURVE",
"202 105 OFFCURVE",
"219 105 CURVE SMOOTH",
"230 105 OFFCURVE",
"240 112 OFFCURVE",
"249 127 CURVE",
"269 186 OFFCURVE",
"296 238 OFFCURVE",
"330 285 CURVE SMOOTH",
"378 352 OFFCURVE",
"409 398 OFFCURVE",
"423 421 CURVE SMOOTH",
"437 444 OFFCURVE",
"444 464 OFFCURVE",
"443 483 CURVE SMOOTH",
"442 508 LINE"
);
}
);
width = 678;
}
);
unicode = 0044;
},
{
glyphname = E;
layers = (
{
layerId = "0B97357B-A10C-4E6B-A805-18EA08AD0246";
name = Regular;
paths = (
{
closed = 1;
nodes = (
"613 609 OFFCURVE",
"570 621 OFFCURVE",
"545 630 CURVE SMOOTH",
"530 635 OFFCURVE",
"525 635 OFFCURVE",
"506 635 CURVE SMOOTH",
"403 635 OFFCURVE",
"354 618 OFFCURVE",
"322 581 CURVE",
"234 429 LINE",
"123 342 LINE",
"120 319 OFFCURVE",
"103 278 OFFCURVE",
"71 219 CURVE SMOOTH",
"40 162 OFFCURVE",
"24 127 OFFCURVE",
"24 114 CURVE SMOOTH",
"24 33 OFFCURVE",
"135 -5 OFFCURVE",
"264 -5 CURVE SMOOTH",
"408 -5 OFFCURVE",
"491 0 OFFCURVE",
"513 11 CURVE",
"501 30 OFFCURVE",
"476 40 OFFCURVE",
"439 40 CURVE SMOOTH",
"426 40 OFFCURVE",
"400 38 OFFCURVE",
"362 33 CURVE SMOOTH",
"345 31 OFFCURVE",
"330 30 OFFCURVE",
"316 30 CURVE SMOOTH",
"175 30 OFFCURVE",
"104 62 OFFCURVE",
"104 125 CURVE SMOOTH",
"104 200 OFFCURVE",
"136 243 OFFCURVE",
"195 268 CURVE SMOOTH",
"224 280 OFFCURVE",
"262 290 OFFCURVE",
"309 297 CURVE SMOOTH",
"382 309 OFFCURVE",
"429 319 OFFCURVE",
"448 327 CURVE",
"441 341 OFFCURVE",
"421 351 OFFCURVE",
"388 358 CURVE SMOOTH",
"354 364 OFFCURVE",
"314 370 OFFCURVE",
"268 375 CURVE",
"301 429 LINE SMOOTH",
"352 512 OFFCURVE",
"373 544 OFFCURVE",
"410 565 CURVE SMOOTH",
"428 575 OFFCURVE",
"451 580 OFFCURVE",
"479 580 CURVE SMOOTH",
"494 580 OFFCURVE",
"516 579 OFFCURVE",
"545 577 CURVE SMOOTH",
"557 576 OFFCURVE",
"561 576 OFFCURVE",
"558 575 CURVE SMOOTH",
"555 574 OFFCURVE",
"555 574 OFFCURVE",
"559 574 CURVE SMOOTH",
"604 574 OFFCURVE",
"642 581 OFFCURVE",
"674 595 CURVE"
);
}
);
width = 565;
}
);
unicode = 0045;
},
{
glyphname = F;
layers = (
{
layerId = "0B97357B-A10C-4E6B-A805-18EA08AD0246";
name = Regular;
paths = (
{
closed = 1;
nodes = (
"706 629 OFFCURVE",
"678 643 OFFCURVE",
"632 643 CURVE SMOOTH",
"529 643 OFFCURVE",
"483 629 OFFCURVE",
"411 600 CURVE SMOOTH",
"355 576 OFFCURVE",
"311 562 OFFCURVE",
"238 550 CURVE",
"216 527 LINE",
"214 511 LINE",
"215 508 OFFCURVE",
"226 495 OFFCURVE",
"246 474 CURVE",
"253 465 OFFCURVE",
"257 457 OFFCURVE",
"257 448 CURVE SMOOTH",
"257 409 OFFCURVE",
"220 350 OFFCURVE",
"156 237 CURVE SMOOTH",
"115 164 OFFCURVE",
"87 112 OFFCURVE",
"71 79 CURVE SMOOTH",
"55 46 OFFCURVE",
"47 19 OFFCURVE",
"47 0 CURVE SMOOTH",
"47 -17 LINE",
"88 -17 OFFCURVE",
"125 39 OFFCURVE",
"145 86 CURVE SMOOTH",
"155 109 OFFCURVE",
"166 138 OFFCURVE",
"178 173 CURVE",
"218 274 OFFCURVE",
"293 288 OFFCURVE",
"399 316 CURVE SMOOTH",
"452 329 OFFCURVE",
"510 343 OFFCURVE",
"575 356 CURVE SMOOTH",
"612 364 LINE",
"591 391 OFFCURVE",
"570 393 OFFCURVE",
"501 393 CURVE SMOOTH",
"482 393 OFFCURVE",
"453 389 OFFCURVE",
"415 381 CURVE SMOOTH",
"378 372 OFFCURVE",
"349 368 OFFCURVE",
"328 368 CURVE SMOOTH",
"320 368 OFFCURVE",
"308 370 OFFCURVE",
"292 374 CURVE",
"305 392 OFFCURVE",
"317 412 OFFCURVE",
"329 434 CURVE SMOOTH",
"384 531 OFFCURVE",
"405 567 OFFCURVE",
"466 587 CURVE SMOOTH",
"497 596 OFFCURVE",
"537 601 OFFCURVE",
"588 601 CURVE SMOOTH",
"636 601 OFFCURVE",
"676 589 OFFCURVE",
"707 566 CURVE",
"713 583 OFFCURVE",
"716 595 OFFCURVE",
"716 601 CURVE"
);
}
);
width = 631;
}
);
unicode = 0046;
},
{
glyphname = G;
layers = (
{
layerId = "0B97357B-A10C-4E6B-A805-18EA08AD0246";
name = Regular;
paths = (
{
closed = 1;
nodes = (
"899 708 OFFCURVE",
"877 727 OFFCURVE",
"837 727 CURVE SMOOTH",
"685 727 OFFCURVE",
"366 530 OFFCURVE",
"199 367 CURVE SMOOTH",
"116 285 OFFCURVE",
"74 211 OFFCURVE",
"74 145 CURVE SMOOTH",
"74 49 OFFCURVE",
"174 0 OFFCURVE",
"302 0 CURVE SMOOTH",
"323 0 OFFCURVE",
"353 2 OFFCURVE",
"391 6 CURVE SMOOTH",
"467 14 OFFCURVE",
"516 18 OFFCURVE",
"537 18 CURVE SMOOTH",
"544 18 OFFCURVE",
"549 18 OFFCURVE",
"552 19 CURVE",
"553 19 OFFCURVE",
"557 16 OFFCURVE",
"564 9 CURVE",
"547 -14 OFFCURVE",
"538 -33 OFFCURVE",
"535 -49 CURVE",
"544 -68 OFFCURVE",
"560 -77 OFFCURVE",
"584 -77 CURVE SMOOTH",
"605 -77 OFFCURVE",
"619 -64 OFFCURVE",
"628 -38 CURVE SMOOTH",
"640 -5 OFFCURVE",
"664 42 OFFCURVE",
"700 101 CURVE SMOOTH",
"793 257 OFFCURVE",
"818 304 OFFCURVE",
"829 383 CURVE",
"813 384 LINE SMOOTH",
"799 385 OFFCURVE",
"774 379 OFFCURVE",
"737 368 CURVE SMOOTH",
"665 345 OFFCURVE",
"622 332 OFFCURVE",
"607 331 CURVE SMOOTH",
"597 330 LINE",
"587 331 LINE",
"581 332 OFFCURVE",
"574 332 OFFCURVE",
"566 332 CURVE SMOOTH",
"502 332 OFFCURVE",
"480 325 OFFCURVE",
"480 288 CURVE SMOOTH",
"480 259 OFFCURVE",
"495 244 OFFCURVE",
"524 244 CURVE SMOOTH",
"549 244 OFFCURVE",
"607 261 OFFCURVE",
"697 296 CURVE",
"698 287 LINE",
"698 119 OFFCURVE",
"579 35 OFFCURVE",
"342 35 CURVE SMOOTH",
"226 35 OFFCURVE",
"136 77 OFFCURVE",
"136 162 CURVE SMOOTH",
"136 330 OFFCURVE",
"377 472 OFFCURVE",
"601 568 CURVE SMOOTH",
"712 615 OFFCURVE",
"813 650 OFFCURVE",
"903 671 CURVE"
);
}
);
width = 819;
}
);
unicode = 0047;
},
{
glyphname = H;
layers = (
{
layerId = "0B97357B-A10C-4E6B-A805-18EA08AD0246";
name = Regular;
paths = (
{
closed = 1;
nodes = (
"903 742 LINE",
"882 717 OFFCURVE",
"855 668 OFFCURVE",
"823 594 CURVE SMOOTH",
"743 410 LINE SMOOTH",
"702 319 OFFCURVE",
"680 288 OFFCURVE",
"629 273 CURVE SMOOTH",
"604 265 OFFCURVE",
"564 259 OFFCURVE",
"510 256 CURVE SMOOTH",
"463 253 OFFCURVE",
"432 250 OFFCURVE",
"418 247 CURVE",
"402 252 OFFCURVE",
"391 259 OFFCURVE",
"386 267 CURVE",
"389 275 OFFCURVE",
"435 336 OFFCURVE",
"524 449 CURVE SMOOTH",
"557 492 OFFCURVE",
"574 530 OFFCURVE",
"574 563 CURVE SMOOTH",
"574 574 OFFCURVE",
"571 588 OFFCURVE",
"564 603 CURVE",
"519 584 OFFCURVE",
"438 438 OFFCURVE",
"426 417 CURVE SMOOTH",
"399 372 OFFCURVE",
"379 340 OFFCURVE",
"368 323 CURVE SMOOTH",
"344 288 OFFCURVE",
"329 277 OFFCURVE",
"302 277 CURVE SMOOTH",
"282 277 OFFCURVE",
"243 312 OFFCURVE",
"184 383 CURVE SMOOTH",
"154 419 OFFCURVE",
"129 441 OFFCURVE",
"109 449 CURVE",
"84 431 LINE",
"79 416 OFFCURVE",
"77 406 OFFCURVE",
"77 401 CURVE SMOOTH",
"77 342 OFFCURVE",
"171 277 OFFCURVE",
"282 230 CURVE",
"158 91 LINE SMOOTH",
"130 59 OFFCURVE",
"115 29 OFFCURVE",
"112 0 CURVE",
"125 0 LINE",
"154 -2 OFFCURVE",
"183 17 OFFCURVE",
"213 58 CURVE SMOOTH",
"274 143 OFFCURVE",
"314 184 OFFCURVE",
"395 208 CURVE SMOOTH",
"436 220 OFFCURVE",
"490 226 OFFCURVE",
"558 226 CURVE SMOOTH",
"584 226 OFFCURVE",
"605 224 OFFCURVE",
"621 220 CURVE",
"504 42 LINE SMOOTH",
"444 -49 OFFCURVE",
"414 -107 OFFCURVE",
"414 -132 CURVE",
"481 -132 OFFCURVE",
"493 -145 OFFCURVE",
"524 -46 CURVE",
"537 -15 OFFCURVE",
"561 25 OFFCURVE",
"596 75 CURVE SMOOTH",
"684 202 LINE SMOOTH",
"715 247 OFFCURVE",
"736 281 OFFCURVE",
"747 305 CURVE SMOOTH",
"767 348 OFFCURVE",
"792 398 OFFCURVE",
"822 454 CURVE SMOOTH",
"850 506 LINE SMOOTH",
"919 637 OFFCURVE",
"940 676 OFFCURVE",
"969 747 CURVE",
"932 748 LINE"
);
}
);
width = 829;
}
);
unicode = 0048;
},
{
glyphname = I;
layers = (
{
layerId = "0B97357B-A10C-4E6B-A805-18EA08AD0246";
name = Regular;
paths = (
{
closed = 1;
nodes = (
"812 616 OFFCURVE",
"791 632 OFFCURVE",
"754 632 CURVE SMOOTH",
"649 632 OFFCURVE",
"519 617 OFFCURVE",
"366 586 CURVE SMOOTH",
"284 570 OFFCURVE",
"241 554 OFFCURVE",
"237 538 CURVE",
"236 531 OFFCURVE",
"235 523 OFFCURVE",
"235 513 CURVE SMOOTH",
"235 489 LINE",
"258 487 LINE SMOOTH",
"275 486 OFFCURVE",
"316 498 OFFCURVE",
"382 524 CURVE SMOOTH",
"408 535 OFFCURVE",
"432 540 OFFCURVE",
"455 540 CURVE SMOOTH",
"475 540 OFFCURVE",
"488 533 OFFCURVE",
"494 520 CURVE",
"483 455 OFFCURVE",
"433 319 OFFCURVE",
"377 207 CURVE SMOOTH",
"349 150 OFFCURVE",
"325 110 OFFCURVE",
"305 87 CURVE SMOOTH",
"285 63 OFFCURVE",
"237 47 OFFCURVE",
"186 36 CURVE SMOOTH",
"161 31 OFFCURVE",
"139 27 OFFCURVE",
"121 24 CURVE",
"90 17 OFFCURVE",
"75 4 OFFCURVE",
"75 -17 CURVE SMOOTH",
"75 -46 OFFCURVE",
"88 -61 OFFCURVE",
"113 -61 CURVE SMOOTH",
"148 -61 OFFCURVE",
"192 -55 OFFCURVE",
"247 -43 CURVE SMOOTH",
"408 -8 LINE SMOOTH",
"465 3 OFFCURVE",
"511 9 OFFCURVE",
"546 9 CURVE",
"585 7 LINE",
"623 5 LINE",
"679 5 OFFCURVE",
"707 22 OFFCURVE",
"707 57 CURVE SMOOTH",
"707 78 OFFCURVE",
"696 89 OFFCURVE",
"675 89 CURVE SMOOTH",
"656 89 OFFCURVE",
"606 80 OFFCURVE",
"523 61 CURVE SMOOTH",
"487 53 OFFCURVE",
"456 49 OFFCURVE",
"429 49 CURVE SMOOTH",
"408 49 OFFCURVE",
"384 52 OFFCURVE",
"357 57 CURVE",
"546 450 LINE",
"547 453 OFFCURVE",
"554 478 OFFCURVE",
"565 525 CURVE SMOOTH",
"569 543 OFFCURVE",
"573 554 OFFCURVE",
"578 559 CURVE",
"605 566 OFFCURVE",
"645 569 OFFCURVE",
"699 570 CURVE SMOOTH",
"751 571 OFFCURVE",
"791 575 OFFCURVE",
"819 584 CURVE"
);
}
);
width = 697;
}
);
unicode = 0049;
},
{
glyphname = J;
layers = (
{
layerId = "0B97357B-A10C-4E6B-A805-18EA08AD0246";
name = Regular;
paths = (
{
closed = 1;
nodes = (
"763 733 OFFCURVE",
"759 734 OFFCURVE",
"716 746 CURVE",
"577 715 OFFCURVE",
"454 700 OFFCURVE",
"347 700 CURVE",
"341 693 OFFCURVE",
"336 690 OFFCURVE",
"333 690 CURVE SMOOTH",
"330 690 OFFCURVE",
"327 692 OFFCURVE",
"324 696 CURVE SMOOTH",
"317 705 OFFCURVE",
"310 709 OFFCURVE",
"301 709 CURVE",
"273 693 OFFCURVE",
"225 655 OFFCURVE",
"225 640 CURVE SMOOTH",
"225 615 OFFCURVE",
"246 596 OFFCURVE",
"271 596 CURVE SMOOTH",
"287 596 OFFCURVE",
"317 606 OFFCURVE",
"361 627 CURVE SMOOTH",
"405 647 OFFCURVE",
"439 657 OFFCURVE",
"462 657 CURVE SMOOTH",
"486 657 OFFCURVE",
"508 643 OFFCURVE",
"508 623 CURVE",
"478 481 LINE",
"462 324 LINE SMOOTH",
"443 153 OFFCURVE",
"391 67 OFFCURVE",
"306 67 CURVE SMOOTH",
"212 67 OFFCURVE",
"147 128 OFFCURVE",
"112 249 CURVE",
"105 250 OFFCURVE",
"98 253 OFFCURVE",
"93 258 CURVE",
"75 239 LINE",
"75 162 OFFCURVE",
"141 82 OFFCURVE",
"229 35 CURVE SMOOTH",
"273 11 OFFCURVE",
"315 -1 OFFCURVE",
"356 -1 CURVE SMOOTH",
"415 -1 OFFCURVE",
"453 67 OFFCURVE",
"486 188 CURVE SMOOTH",
"502 248 OFFCURVE",
"521 334 OFFCURVE",
"544 447 CURVE SMOOTH",
"568 570 OFFCURVE",
"589 644 OFFCURVE",
"608 670 CURVE",
"630 681 LINE",
"644 678 OFFCURVE",
"656 672 OFFCURVE",
"665 665 CURVE SMOOTH",
"695 641 LINE",
"739 651 OFFCURVE",
"764 672 OFFCURVE",
"771 705 CURVE"
);
}
);
width = 574;
}
);
unicode = 004A;
},
{
glyphname = K;
layers = (
{
layerId = "0B97357B-A10C-4E6B-A805-18EA08AD0246";
name = Regular;
paths = (
{
closed = 1;
nodes = (
"604 624 OFFCURVE",
"597 647 OFFCURVE",
"583 656 CURVE",
"580 654 OFFCURVE",
"569 642 OFFCURVE",
"551 621 CURVE SMOOTH",
"480 538 LINE",
"428 486 OFFCURVE",
"279 382 OFFCURVE",
"216 355 CURVE",
"211 376 OFFCURVE",
"209 397 OFFCURVE",
"210 417 CURVE SMOOTH",
"212 465 LINE",
"213 475 OFFCURVE",
"213 491 OFFCURVE",
"213 513 CURVE SMOOTH",
"213 552 OFFCURVE",
"208 585 OFFCURVE",
"197 613 CURVE",
"174 604 OFFCURVE",
"163 590 OFFCURVE",
"163 569 CURVE",
"166 539 LINE",
"168 527 OFFCURVE",
"169 518 OFFCURVE",
"169 511 CURVE SMOOTH",
"169 503 OFFCURVE",
"168 495 OFFCURVE",
"165 486 CURVE SMOOTH",
"162 477 OFFCURVE",
"157 463 OFFCURVE",
"149 442 CURVE SMOOTH",
"143 427 OFFCURVE",
"140 415 OFFCURVE",
"140 405 CURVE",
"149 358 LINE",
"116 307 LINE SMOOTH",
"109 296 OFFCURVE",
"105 286 OFFCURVE",
"105 277 CURVE SMOOTH",
"105 274 OFFCURVE",
"109 265 OFFCURVE",
"117 250 CURVE SMOOTH",
"132 220 LINE",
"132 235 LINE SMOOTH",
"132 237 OFFCURVE",
"135 238 OFFCURVE",
"141 239 CURVE",
"159 220 LINE",
"146 186 LINE SMOOTH",
"123 129 OFFCURVE",
"114 109 OFFCURVE",
"75 85 CURVE",
"96 44 OFFCURVE",
"113 37 OFFCURVE",
"178 28 CURVE",
"178 92 OFFCURVE",
"184 153 OFFCURVE",
"197 210 CURVE",
"248 204 OFFCURVE",
"293 184 OFFCURVE",
"332 151 CURVE SMOOTH",
"435 63 LINE SMOOTH",
"470 33 OFFCURVE",
"498 18 OFFCURVE",
"518 18 CURVE",
"518 38 LINE SMOOTH",
"518 86 OFFCURVE",
"519 98 OFFCURVE",
"496 120 CURVE SMOOTH",
"485 131 OFFCURVE",
"465 144 OFFCURVE",
"437 160 CURVE SMOOTH",
"402 179 LINE SMOOTH",
"354 206 OFFCURVE",
"319 227 OFFCURVE",
"297 242 CURVE SMOOTH",
"275 257 OFFCURVE",
"264 272 OFFCURVE",
"264 286 CURVE SMOOTH",
"264 307 OFFCURVE",
"293 336 OFFCURVE",
"352 373 CURVE SMOOTH",
"442 430 LINE SMOOTH",
"495 463 OFFCURVE",
"531 486 OFFCURVE",
"551 500 CURVE SMOOTH",
"590 528 OFFCURVE",
"604 550 OFFCURVE",
"604 589 CURVE SMOOTH"
);
}
);
width = 527;
}
);
unicode = 004B;
},
{
glyphname = L;
layers = (
{
layerId = "0B97357B-A10C-4E6B-A805-18EA08AD0246";
name = Regular;
paths = (
{
closed = 1;
nodes = (
"631 85 LINE",
"596 85 OFFCURVE",
"549 83 OFFCURVE",
"491 78 CURVE SMOOTH",
"432 73 OFFCURVE",
"385 71 OFFCURVE",
"350 71 CURVE SMOOTH",
"297 71 OFFCURVE",
"249 76 OFFCURVE",
"206 86 CURVE",
"298 262 LINE SMOOTH",
"356 373 OFFCURVE",
"398 455 OFFCURVE",
"424 508 CURVE SMOOTH",
"466 593 OFFCURVE",
"487 642 OFFCURVE",
"487 653 CURVE SMOOTH",
"487 674 OFFCURVE",
"465 704 OFFCURVE",
"445 704 CURVE SMOOTH",
"423 704 OFFCURVE",
"403 674 OFFCURVE",
"385 613 CURVE SMOOTH",
"333 436 OFFCURVE",
"255 277 OFFCURVE",
"152 138 CURVE SMOOTH",
"123 100 OFFCURVE",
"103 74 OFFCURVE",
"93 59 CURVE SMOOTH",
"83 44 OFFCURVE",
"78 32 OFFCURVE",
"78 23 CURVE SMOOTH",
"78 2 OFFCURVE",
"100 -9 OFFCURVE",
"144 -9 CURVE SMOOTH",
"165 -9 OFFCURVE",
"217 -2 OFFCURVE",
"299 13 CURVE SMOOTH",
"334 20 OFFCURVE",
"366 23 OFFCURVE",
"395 23 CURVE SMOOTH",
"408 23 OFFCURVE",
"431 20 OFFCURVE",
"464 15 CURVE SMOOTH",
"562 0 LINE",
"574 0 LINE",
"577 5 OFFCURVE",
"589 12 OFFCURVE",
"610 23 CURVE SMOOTH",
"619 28 OFFCURVE",
"626 33 OFFCURVE",
"631 38 CURVE",
"633 58 LINE"
);
}
);
width = 631;
}
);
unicode = 004C;
},
{
glyphname = M;
layers = (
{
layerId = "0B97357B-A10C-4E6B-A805-18EA08AD0246";
name = Regular;
paths = (
{
closed = 1;
nodes = (
"941 685 LINE",
"922 685 OFFCURVE",
"879 651 OFFCURVE",
"814 584 CURVE SMOOTH",
"636 396 LINE SMOOTH",
"573 329 OFFCURVE",
"531 296 OFFCURVE",
"508 296 CURVE SMOOTH",
"499 296 LINE",
"484 429 OFFCURVE",
"475 502 OFFCURVE",
"472 515 CURVE SMOOTH",
"459 564 OFFCURVE",
"439 600 OFFCURVE",
"414 623 CURVE",
"398 609 OFFCURVE",
"387 594 OFFCURVE",
"382 577 CURVE SMOOTH",
"374 550 OFFCURVE",
"369 535 OFFCURVE",
"366 531 CURVE",
"361 528 OFFCURVE",
"350 522 OFFCURVE",
"331 513 CURVE SMOOTH",
"312 504 OFFCURVE",
"299 491 OFFCURVE",
"291 475 CURVE SMOOTH",
"283 458 OFFCURVE",
"263 416 OFFCURVE",
"232 347 CURVE SMOOTH",
"128 120 LINE",
"74 0 LINE",
"116 0 OFFCURVE",
"155 23 OFFCURVE",
"190 69 CURVE SMOOTH",
"225 115 OFFCURVE",
"262 185 OFFCURVE",
"302 278 CURVE SMOOTH",
"339 363 OFFCURVE",
"370 423 OFFCURVE",
"395 460 CURVE",
"397 452 OFFCURVE",
"401 415 OFFCURVE",
"406 348 CURVE SMOOTH",
"413 245 OFFCURVE",
"430 194 OFFCURVE",
"459 194 CURVE SMOOTH",
"482 194 OFFCURVE",
"519 219 OFFCURVE",
"570 270 CURVE SMOOTH",
"721 417 LINE SMOOTH",
"780 474 OFFCURVE",
"818 507 OFFCURVE",
"837 517 CURVE",
"837 476 OFFCURVE",
"823 424 OFFCURVE",
"794 361 CURVE SMOOTH",
"709 172 LINE SMOOTH",
"680 106 OFFCURVE",
"665 56 OFFCURVE",
"665 23 CURVE",
"668 -8 LINE",
"696 -4 OFFCURVE",
"715 0 OFFCURVE",
"725 5 CURVE",
"740 11 OFFCURVE",
"765 76 OFFCURVE",
"801 200 CURVE",
"832 275 OFFCURVE",
"852 322 OFFCURVE",
"860 339 CURVE SMOOTH",
"904 438 OFFCURVE",
"934 507 OFFCURVE",
"949 545 CURVE SMOOTH",
"964 583 OFFCURVE",
"975 616 OFFCURVE",
"980 643 CURVE",
"968 671 LINE"
);
}
);
width = 894;
}
);
unicode = 004D;
},
{
glyphname = N;
layers = (
{
layerId = "0B97357B-A10C-4E6B-A805-18EA08AD0246";
name = Regular;
paths = (
{
closed = 1;
nodes = (
"865 728 LINE",
"806 722 OFFCURVE",
"716 598 OFFCURVE",
"593 355 CURVE SMOOTH",
"498 163 LINE",
"483 189 OFFCURVE",
"468 228 OFFCURVE",
"454 280 CURVE SMOOTH",
"427 381 OFFCURVE",
"414 422 OFFCURVE",
"390 455 CURVE SMOOTH",
"377 472 OFFCURVE",
"360 486 OFFCURVE",
"339 498 CURVE",
"328 481 OFFCURVE",
"318 460 OFFCURVE",
"309 433 CURVE",
"289 380 OFFCURVE",
"268 337 OFFCURVE",
"247 302 CURVE",
"212 253 OFFCURVE",
"130 141 OFFCURVE",
"74 66 CURVE",
"81 42 LINE",
"102 36 LINE",
"124 38 OFFCURVE",
"157 65 OFFCURVE",
"201 116 CURVE SMOOTH",
"244 167 OFFCURVE",
"291 227 OFFCURVE",
"342 295 CURVE SMOOTH",
"358 316 LINE",
"389 239 OFFCURVE",
"409 149 OFFCURVE",
"434 28 CURVE SMOOTH",
"442 -8 LINE",
"481 3 LINE SMOOTH",
"503 10 OFFCURVE",
"515 15 OFFCURVE",
"518 17 CURVE",
"537 32 OFFCURVE",
"547 55 OFFCURVE",
"547 85 CURVE SMOOTH",
"547 137 OFFCURVE",
"618 303 OFFCURVE",
"694 452 CURVE SMOOTH",
"731 527 OFFCURVE",
"761 577 OFFCURVE",
"782 602 CURVE",
"785 606 OFFCURVE",
"802 621 OFFCURVE",
"833 648 CURVE SMOOTH",
"857 669 OFFCURVE",
"871 683 OFFCURVE",
"874 691 CURVE"
);
}
);
width = 725;
}
);
unicode = 004E;
},
{
glyphname = O;
layers = (
{
layerId = "0B97357B-A10C-4E6B-A805-18EA08AD0246";
name = Regular;
paths = (
{
closed = 1;
nodes = (
"800 481 OFFCURVE",
"766 594 OFFCURVE",
"704 663 CURVE SMOOTH",
"673 697 OFFCURVE",
"636 714 OFFCURVE",
"595 714 CURVE SMOOTH",
"546 714 OFFCURVE",
"485 664 OFFCURVE",
"453 633 CURVE SMOOTH",
"436 617 OFFCURVE",
"426 607 OFFCURVE",
"423 604 CURVE",
"350 544 OFFCURVE",
"299 503 OFFCURVE",
"270 481 CURVE SMOOTH",
"146 380 OFFCURVE",
"84 271 OFFCURVE",
"84 152 CURVE SMOOTH",
"84 65 OFFCURVE",
"134 21 OFFCURVE",
"215 5 CURVE SMOOTH",
"255 -4 OFFCURVE",
"306 -8 OFFCURVE",
"367 -8 CURVE SMOOTH",
"423 -8 LINE SMOOTH",
"531 -8 OFFCURVE",
"661 84 OFFCURVE",
"741 205 CURVE SMOOTH",
"780 265 OFFCURVE",
"800 322 OFFCURVE",
"800 377 CURVE SMOOTH"
);
},
{
closed = 1;
nodes = (
"706 334 OFFCURVE",
"652 192 OFFCURVE",
"549 112 CURVE SMOOTH",
"497 72 OFFCURVE",
"435 52 OFFCURVE",
"363 52 CURVE SMOOTH",
"300 52 OFFCURVE",
"227 77 OFFCURVE",
"183 119 CURVE SMOOTH",
"161 140 OFFCURVE",
"150 163 OFFCURVE",
"150 189 CURVE SMOOTH",
"150 266 OFFCURVE",
"260 383 OFFCURVE",
"344 458 CURVE SMOOTH",
"428 533 OFFCURVE",
"515 589 OFFCURVE",
"570 589 CURVE SMOOTH",
"666 589 OFFCURVE",
"706 570 OFFCURVE",
"706 497 CURVE SMOOTH"
);
}
);
width = 819;
}
);
unicode = 004F;
},
{
glyphname = P;
layers = (
{
layerId = "0B97357B-A10C-4E6B-A805-18EA08AD0246";
name = Regular;
paths = (
{
closed = 1;
nodes = (
"738 604 OFFCURVE",
"687 651 OFFCURVE",
"603 651 CURVE SMOOTH",
"548 651 OFFCURVE",
"445 625 OFFCURVE",
"358 593 CURVE SMOOTH",
"314 576 OFFCURVE",
"282 560 OFFCURVE",
"263 545 CURVE",
"254 508 LINE",
"263 498 LINE",
"263 488 LINE",
"293 493 OFFCURVE",
"328 506 OFFCURVE",
"368 527 CURVE",
"368 491 OFFCURVE",
"356 459 OFFCURVE",
"330 419 CURVE SMOOTH",
"317 399 OFFCURVE",
"293 365 OFFCURVE",
"260 318 CURVE SMOOTH",
"225 268 LINE",
"197 287 LINE",
"188 277 OFFCURVE",
"182 262 OFFCURVE",
"179 242 CURVE SMOOTH",
"167 173 OFFCURVE",
"145 140 OFFCURVE",
"129 121 CURVE SMOOTH",
"121 112 OFFCURVE",
"116 106 OFFCURVE",
"113 103 CURVE",
"92 76 OFFCURVE",
"81 55 OFFCURVE",
"81 41 CURVE SMOOTH",
"81 24 OFFCURVE",
"91 11 OFFCURVE",
"112 2 CURVE",
"127 8 OFFCURVE",
"142 25 OFFCURVE",
"155 52 CURVE SMOOTH",
"174 90 OFFCURVE",
"187 116 OFFCURVE",
"194 129 CURVE SMOOTH",
"209 155 OFFCURVE",
"227 172 OFFCURVE",
"263 181 CURVE SMOOTH",
"350 204 OFFCURVE",
"416 224 OFFCURVE",
"461 239 CURVE SMOOTH",
"646 305 OFFCURVE",
"738 399 OFFCURVE",
"738 520 CURVE SMOOTH"
);
},
{
closed = 1;
nodes = (
"687 436 OFFCURVE",
"575 342 OFFCURVE",
"447 283 CURVE SMOOTH",
"382 253 OFFCURVE",
"330 238 OFFCURVE",
"290 238 CURVE SMOOTH",
"281 238 LINE",
"272 248 LINE",
"287 284 OFFCURVE",
"309 322 OFFCURVE",
"336 362 CURVE SMOOTH",
"413 468 LINE",
"424 492 OFFCURVE",
"434 516 OFFCURVE",
"441 535 CURVE",
"461 574 OFFCURVE",
"523 598 OFFCURVE",
"579 598 CURVE SMOOTH",
"644 598 OFFCURVE",
"687 565 OFFCURVE",
"687 505 CURVE SMOOTH"
);
}
);
width = 650;
}
);
unicode = 0050;
},
{
glyphname = Q;
layers = (
{
layerId = "0B97357B-A10C-4E6B-A805-18EA08AD0246";
name = Regular;
paths = (
{
closed = 1;
nodes = (
"760 550 OFFCURVE",
"747 580 OFFCURVE",
"722 596 CURVE",
"704 602 LINE",
"702 603 OFFCURVE",
"699 603 OFFCURVE",
"695 603 CURVE SMOOTH",
"556 603 OFFCURVE",
"312 452 OFFCURVE",
"178 313 CURVE SMOOTH",
"111 243 OFFCURVE",
"77 179 OFFCURVE",
"77 120 CURVE SMOOTH",
"77 47 OFFCURVE",
"130 0 OFFCURVE",
"207 0 CURVE SMOOTH",
"239 0 OFFCURVE",
"276 8 OFFCURVE",
"318 23 CURVE SMOOTH",
"415 61 OFFCURVE",
"471 83 OFFCURVE",
"488 88 CURVE",
"522 76 OFFCURVE",
"539 36 OFFCURVE",
"539 -32 CURVE SMOOTH",
"539 -71 OFFCURVE",
"524 -132 OFFCURVE",
"495 -214 CURVE",
"499 -219 LINE",
"499 -228 LINE",
"568 -204 OFFCURVE",
"603 -128 OFFCURVE",
"603 0 CURVE SMOOTH",
"603 9 OFFCURVE",
"598 34 OFFCURVE",
"589 77 CURVE SMOOTH",
"585 94 OFFCURVE",
"583 110 OFFCURVE",
"583 124 CURVE SMOOTH",
"583 125 OFFCURVE",
"599 148 OFFCURVE",
"630 193 CURVE SMOOTH",
"717 314 OFFCURVE",
"760 418 OFFCURVE",
"760 505 CURVE SMOOTH"
);
},
{
closed = 1;
nodes = (
"722 443 OFFCURVE",
"671 327 OFFCURVE",
"614 251 CURVE SMOOTH",
"585 212 OFFCURVE",
"560 193 OFFCURVE",
"539 193 CURVE SMOOTH",
"530 193 OFFCURVE",
"509 210 OFFCURVE",
"476 243 CURVE SMOOTH",
"443 276 OFFCURVE",
"417 293 OFFCURVE",
"400 293 CURVE",
"398 292 OFFCURVE",
"395 291 OFFCURVE",
"391 290 CURVE SMOOTH",
"387 289 OFFCURVE",
"383 287 OFFCURVE",
"379 285 CURVE",
"370 272 OFFCURVE",
"366 261 OFFCURVE",
"366 251 CURVE SMOOTH",
"366 227 OFFCURVE",
"414 183 OFFCURVE",
"470 134 CURVE",
"423 110 OFFCURVE",
"386 93 OFFCURVE",
"361 82 CURVE SMOOTH",
"309 60 OFFCURVE",
"283 55 OFFCURVE",
"242 55 CURVE SMOOTH",
"177 55 OFFCURVE",
"144 79 OFFCURVE",
"144 127 CURVE SMOOTH",
"144 254 OFFCURVE",
"266 354 OFFCURVE",
"364 415 CURVE SMOOTH",
"462 476 OFFCURVE",
"574 516 OFFCURVE",
"659 516 CURVE",
"659 531 OFFCURVE",
"665 544 OFFCURVE",
"678 555 CURVE",
"707 542 OFFCURVE",
"722 521 OFFCURVE",
"722 494 CURVE SMOOTH"
);
}
);
width = 716;
}
);
unicode = 0051;
},
{
glyphname = R;
layers = (
{
layerId = "0B97357B-A10C-4E6B-A805-18EA08AD0246";
name = Regular;
paths = (
{
closed = 1;
nodes = (
"921 731 OFFCURVE",
"898 750 OFFCURVE",
"852 750 CURVE SMOOTH",
"810 750 OFFCURVE",
"764 741 OFFCURVE",
"714 723 CURVE SMOOTH",
"564 669 LINE SMOOTH",
"514 651 OFFCURVE",
"472 642 OFFCURVE",
"437 642 CURVE SMOOTH",
"417 642 OFFCURVE",
"404 644 OFFCURVE",
"397 649 CURVE",
"381 636 LINE SMOOTH",
"352 611 OFFCURVE",
"332 595 OFFCURVE",
"323 586 CURVE",
"313 577 OFFCURVE",
"304 565 OFFCURVE",
"295 551 CURVE",
"299 535 OFFCURVE",
"301 520 OFFCURVE",
"301 507 CURVE SMOOTH",
"301 472 OFFCURVE",
"287 440 OFFCURVE",
"259 413 CURVE SMOOTH",
"190 346 OFFCURVE",
"154 308 OFFCURVE",
"151 297 CURVE",
"170 277 LINE",
"162 250 OFFCURVE",
"95 148 OFFCURVE",
"76 133 CURVE",
"75 126 OFFCURVE",
"78 122 OFFCURVE",
"83 120 CURVE",
"88 117 OFFCURVE",
"99 114 OFFCURVE",
"118 110 CURVE",
"137 117 OFFCURVE",
"158 145 OFFCURVE",
"180 194 CURVE SMOOTH",
"199 238 OFFCURVE",
"222 260 OFFCURVE",
"247 260 CURVE SMOOTH",
"310 260 OFFCURVE",
"375 166 OFFCURVE",
"414 53 CURVE SMOOTH",
"433 -4 OFFCURVE",
"443 -53 OFFCURVE",
"443 -94 CURVE",
"488 -90 OFFCURVE",
"510 -68 OFFCURVE",
"510 -29 CURVE SMOOTH",
"510 30 OFFCURVE",
"468 122 OFFCURVE",
"409 207 CURVE SMOOTH",
"380 250 OFFCURVE",
"350 286 OFFCURVE",
"321 316 CURVE",
"540 398 LINE SMOOTH",
"794 495 OFFCURVE",
"921 594 OFFCURVE",
"921 693 CURVE SMOOTH"
);
},
{
closed = 1;
nodes = (
"835 597 OFFCURVE",
"708 524 OFFCURVE",
"604 472 CURVE SMOOTH",
"500 420 OFFCURVE",
"393 378 OFFCURVE",
"348 381 CURVE SMOOTH",
"311 383 LINE",
"302 392 LINE",
"338 521 OFFCURVE",
"485 620 OFFCURVE",
"744 690 CURVE",
"760 695 OFFCURVE",
"775 697 OFFCURVE",
"788 697 CURVE SMOOTH",
"819 697 OFFCURVE",
"835 685 OFFCURVE",
"835 661 CURVE SMOOTH"
);
}
);
width = 744;
}
);
unicode = 0052;
},
{
glyphname = S;
layers = (
{
layerId = "0B97357B-A10C-4E6B-A805-18EA08AD0246";
name = Regular;
paths = (
{
closed = 1;
nodes = (
"794 687 OFFCURVE",
"776 693 OFFCURVE",
"763 699 CURVE",
"744 689 OFFCURVE",
"677 666 OFFCURVE",
"562 629 CURVE SMOOTH",
"424 586 OFFCURVE",
"322 549 OFFCURVE",
"257 517 CURVE SMOOTH",
"191 485 OFFCURVE",
"158 452 OFFCURVE",
"158 418 CURVE SMOOTH",
"158 377 OFFCURVE",
"241 349 OFFCURVE",
"324 336 CURVE SMOOTH",
"365 329 OFFCURVE",
"417 322 OFFCURVE",
"478 315 CURVE",
"495 314 OFFCURVE",
"508 312 OFFCURVE",
"517 311 CURVE",
"600 298 OFFCURVE",
"642 268 OFFCURVE",
"642 222 CURVE SMOOTH",
"642 158 OFFCURVE",
"527 98 OFFCURVE",
"391 64 CURVE SMOOTH",
"322 47 OFFCURVE",
"264 38 OFFCURVE",
"216 38 CURVE SMOOTH",
"147 38 OFFCURVE",
"112 99 OFFCURVE",
"112 220 CURVE",
"86 198 OFFCURVE",
"73 171 OFFCURVE",
"73 138 CURVE SMOOTH",
"73 86 OFFCURVE",
"103 39 OFFCURVE",
"149 12 CURVE SMOOTH",
"172 -1 OFFCURVE",
"196 -8 OFFCURVE",
"222 -8 CURVE SMOOTH",
"338 -8 OFFCURVE",
"520 29 OFFCURVE",
"636 98 CURVE SMOOTH",
"693 132 OFFCURVE",
"722 175 OFFCURVE",
"722 226 CURVE SMOOTH",
"722 277 OFFCURVE",
"678 308 OFFCURVE",
"592 332 CURVE SMOOTH",
"549 344 OFFCURVE",
"488 357 OFFCURVE",
"411 372 CURVE SMOOTH",
"322 389 OFFCURVE",
"260 405 OFFCURVE",
"225 421 CURVE",
"278 488 OFFCURVE",
"330 520 OFFCURVE",
"414 545 CURVE SMOOTH",
"455 558 OFFCURVE",
"524 576 OFFCURVE",
"620 599 CURVE SMOOTH",
"663 610 LINE SMOOTH",
"746 631 OFFCURVE",
"798 655 OFFCURVE",
"819 680 CURVE"
);
}
);
width = 725;
}
);
unicode = 0053;
},
{
glyphname = T;
layers = (
{
layerId = "0B97357B-A10C-4E6B-A805-18EA08AD0246";
name = Regular;
paths = (
{
closed = 1;
nodes = (
"1040 737 OFFCURVE",
"1036 738 OFFCURVE",
"1000 738 CURVE SMOOTH",
"927 738 OFFCURVE",
"840 725 OFFCURVE",
"739 699 CURVE SMOOTH",
"637 672 LINE SMOOTH",
"418 612 OFFCURVE",
"321 590 OFFCURVE",
"197 590 CURVE",
"170 592 LINE",
"162 593 OFFCURVE",
"153 593 OFFCURVE",
"143 593 CURVE SMOOTH",
"130 593 OFFCURVE",
"113 589 OFFCURVE",
"93 582 CURVE",
"75 547 LINE",
"71 518 OFFCURVE",
"93 487 OFFCURVE",
"121 487 CURVE",
"173 508 OFFCURVE",
"212 525 OFFCURVE",
"238 536 CURVE",
"487 590 LINE",
"492 594 LINE",
"492 503 OFFCURVE",
"465 425 OFFCURVE",
"417 340 CURVE SMOOTH",
"392 297 OFFCURVE",
"355 238 OFFCURVE",
"305 161 CURVE SMOOTH",
"258 90 OFFCURVE",
"233 40 OFFCURVE",
"228 9 CURVE",
"304 -8 LINE",
"328 80 OFFCURVE",
"392 190 OFFCURVE",
"467 307 CURVE SMOOTH",
"486 337 LINE SMOOTH",
"505 367 OFFCURVE",
"522 406 OFFCURVE",
"537 455 CURVE SMOOTH",
"586 613 LINE",
"631 637 OFFCURVE",
"829 677 OFFCURVE",
"896 677 CURVE SMOOTH",
"918 677 OFFCURVE",
"937 675 OFFCURVE",
"953 670 CURVE",
"934 632 LINE",
"999 632 OFFCURVE",
"1041 658 OFFCURVE",
"1060 709 CURVE"
);
}
);
width = 706;
}
);
unicode = 0054;
},
{
glyphname = U;
layers = (
{
layerId = "0B97357B-A10C-4E6B-A805-18EA08AD0246";
name = Regular;
paths = (
{
closed = 1;
nodes = (
"903 690 LINE",
"864 690 OFFCURVE",
"807 634 OFFCURVE",
"733 523 CURVE SMOOTH",
"562 267 OFFCURVE",
"484 163 OFFCURVE",
"376 97 CURVE SMOOTH",
"321 64 OFFCURVE",
"258 47 OFFCURVE",
"185 47 CURVE SMOOTH",
"149 47 OFFCURVE",
"131 63 OFFCURVE",
"131 95 CURVE SMOOTH",
"131 135 OFFCURVE",
"163 189 OFFCURVE",
"227 267 CURVE SMOOTH",
"259 306 OFFCURVE",
"309 365 OFFCURVE",
"377 444 CURVE",
"385 454 OFFCURVE",
"389 459 OFFCURVE",
"390 460 CURVE",
"450 530 OFFCURVE",
"480 572 OFFCURVE",
"480 585 CURVE SMOOTH",
"480 603 LINE",
"459 600 OFFCURVE",
"405 545 OFFCURVE",
"319 439 CURVE SMOOTH",
"156 238 OFFCURVE",
"74 113 OFFCURVE",
"74 66 CURVE SMOOTH",
"74 13 OFFCURVE",
"98 0 OFFCURVE",
"169 0 CURVE SMOOTH",
"223 0 OFFCURVE",
"291 24 OFFCURVE",
"374 72 CURVE SMOOTH",
"427 103 OFFCURVE",
"465 123 OFFCURVE",
"489 134 CURVE",
"489 103 LINE SMOOTH",
"489 12 OFFCURVE",
"508 -30 OFFCURVE",
"576 -30 CURVE SMOOTH",
"592 -30 OFFCURVE",
"626 -23 OFFCURVE",
"678 -8 CURVE",
"654 -2 LINE SMOOTH",
"601 11 OFFCURVE",
"576 18 OFFCURVE",
"559 37 CURVE",
"550 46 OFFCURVE",
"546 59 OFFCURVE",
"546 75 CURVE SMOOTH",
"546 158 OFFCURVE",
"654 305 OFFCURVE",
"787 472 CURVE SMOOTH",
"812 504 LINE SMOOTH",
"874 584 OFFCURVE",
"905 640 OFFCURVE",
"905 671 CURVE"
);
}
);
width = 800;
}
);
unicode = 0055;
},
{
glyphname = V;
layers = (
{
layerId = "0B97357B-A10C-4E6B-A805-18EA08AD0246";
name = Regular;
paths = (
{
closed = 1;
nodes = (
"797 825 LINE SMOOTH",
"733 826 OFFCURVE",
"660 755 OFFCURVE",
"570 627 CURVE SMOOTH",
"525 563 OFFCURVE",
"457 463 OFFCURVE",
"368 327 CURVE SMOOTH",
"292 211 OFFCURVE",
"244 153 OFFCURVE",
"225 153 CURVE SMOOTH",
"216 153 LINE",
"192 193 OFFCURVE",
"176 244 OFFCURVE",
"168 306 CURVE",
"158 471 LINE SMOOTH",
"154 538 OFFCURVE",
"145 592 OFFCURVE",
"131 633 CURVE",
"99 620 OFFCURVE",
"95 617 OFFCURVE",
"83 590 CURVE",
"90 560 LINE SMOOTH",
"121 435 OFFCURVE",
"137 358 OFFCURVE",
"134 297 CURVE SMOOTH",
"129 223 LINE SMOOTH",
"127 194 OFFCURVE",
"126 169 OFFCURVE",
"126 148 CURVE SMOOTH",
"126 47 OFFCURVE",
"146 -3 OFFCURVE",
"186 -3 CURVE SMOOTH",
"192 -3 OFFCURVE",
"199 -1 OFFCURVE",
"207 2 CURVE",
"230 16 OFFCURVE",
"254 51 OFFCURVE",
"279 106 CURVE SMOOTH",
"291 133 OFFCURVE",
"298 148 OFFCURVE",
"301 153 CURVE SMOOTH",
"444 405 OFFCURVE",
"623 629 OFFCURVE",
"838 824 CURVE"
);
}
);
width = 593;
}
);
unicode = 0056;
},
{
glyphname = W;
layers = (
{
layerId = "0B97357B-A10C-4E6B-A805-18EA08AD0246";
name = Regular;
paths = (
{
closed = 1;
nodes = (
"1073 659 OFFCURVE",
"1038 730 OFFCURVE",
"979 730 CURVE SMOOTH",
"935 730 OFFCURVE",
"903 701 OFFCURVE",
"903 661 CURVE SMOOTH",
"903 642 LINE",
"938 663 OFFCURVE",
"963 676 OFFCURVE",
"976 679 CURVE",
"1008 667 OFFCURVE",
"1029 626 OFFCURVE",
"1029 585 CURVE SMOOTH",
"1029 489 OFFCURVE",
"1004 403 OFFCURVE",
"954 328 CURVE SMOOTH",
"901 247 OFFCURVE",
"830 193 OFFCURVE",
"690 113 CURVE SMOOTH",
"665 98 OFFCURVE",
"642 91 OFFCURVE",
"621 91 CURVE SMOOTH",
"586 91 OFFCURVE",
"562 118 OFFCURVE",
"562 154 CURVE SMOOTH",
"562 167 OFFCURVE",
"573 202 OFFCURVE",
"594 259 CURVE SMOOTH",
"603 285 OFFCURVE",
"608 307 OFFCURVE",
"608 324 CURVE SMOOTH",
"608 344 OFFCURVE",
"601 362 OFFCURVE",
"587 378 CURVE",
"581 375 OFFCURVE",
"557 348 OFFCURVE",
"516 296 CURVE SMOOTH",
"403 155 OFFCURVE",
"303 65 OFFCURVE",
"178 28 CURVE",
"178 73 OFFCURVE",
"199 114 OFFCURVE",
"247 175 CURVE SMOOTH",
"270 205 OFFCURVE",
"310 252 OFFCURVE",
"365 317 CURVE SMOOTH",
"382 337 LINE SMOOTH",
"429 394 OFFCURVE",
"453 429 OFFCURVE",
"453 444 CURVE SMOOTH",
"453 467 OFFCURVE",
"441 485 OFFCURVE",
"418 497 CURVE",
"395 489 OFFCURVE",
"274 318 OFFCURVE",
"163 149 CURVE SMOOTH",
"107 64 OFFCURVE",
"77 13 OFFCURVE",
"74 -5 CURVE",
"83 -29 OFFCURVE",
"102 -41 OFFCURVE",
"131 -41 CURVE SMOOTH",
"202 -41 OFFCURVE",
"253 -8 OFFCURVE",
"376 92 CURVE SMOOTH",
"425 132 OFFCURVE",
"463 158 OFFCURVE",
"489 171 CURVE",
"512 103 OFFCURVE",
"525 71 OFFCURVE",
"549 52 CURVE SMOOTH",
"561 42 OFFCURVE",
"576 37 OFFCURVE",
"594 37 CURVE SMOOTH",
"759 37 OFFCURVE",
"884 151 OFFCURVE",
"957 251 CURVE SMOOTH",
"1029 351 OFFCURVE",
"1073 471 OFFCURVE",
"1073 580 CURVE SMOOTH"
);
}
);
width = 1045;
}
);
unicode = 0057;
},
{
glyphname = X;
layers = (
{
layerId = "0B97357B-A10C-4E6B-A805-18EA08AD0246";
name = Regular;
paths = (
{
closed = 1;
nodes = (
"668 615 OFFCURVE",
"659 630 OFFCURVE",
"641 630 CURVE",
"485 460 LINE SMOOTH",
"437 408 OFFCURVE",
"401 382 OFFCURVE",
"377 382 CURVE SMOOTH",
"363 382 OFFCURVE",
"344 402 OFFCURVE",
"320 443 CURVE SMOOTH",
"294 486 LINE SMOOTH",
"267 533 OFFCURVE",
"245 567 OFFCURVE",
"230 587 CURVE SMOOTH",
"215 606 OFFCURVE",
"200 616 OFFCURVE",
"185 616 CURVE SMOOTH",
"162 616 OFFCURVE",
"146 595 OFFCURVE",
"146 568 CURVE SMOOTH",
"146 557 OFFCURVE",
"159 536 OFFCURVE",
"184 505 CURVE SMOOTH",
"226 454 OFFCURVE",
"254 418 OFFCURVE",
"269 395 CURVE SMOOTH",
"284 372 OFFCURVE",
"291 350 OFFCURVE",
"291 327 CURVE SMOOTH",
"291 304 OFFCURVE",
"230 228 OFFCURVE",
"171 173 CURVE SMOOTH",
"142 145 OFFCURVE",
"122 131 OFFCURVE",
"111 131 CURVE",
"99 133 LINE",
"82 122 OFFCURVE",
"74 109 OFFCURVE",
"74 93 CURVE SMOOTH",
"74 56 OFFCURVE",
"82 37 OFFCURVE",
"98 37 CURVE SMOOTH",
"108 37 OFFCURVE",
"128 54 OFFCURVE",
"158 87 CURVE SMOOTH",
"187 120 OFFCURVE",
"220 158 OFFCURVE",
"256 201 CURVE SMOOTH",
"289 239 OFFCURVE",
"314 258 OFFCURVE",
"329 258 CURVE SMOOTH",
"348 258 OFFCURVE",
"369 235 OFFCURVE",
"390 188 CURVE SMOOTH",
"411 141 OFFCURVE",
"435 79 OFFCURVE",
"461 0 CURVE",
"508 15 OFFCURVE",
"532 38 OFFCURVE",
"532 69 CURVE SMOOTH",
"532 90 OFFCURVE",
"512 132 OFFCURVE",
"471 197 CURVE SMOOTH",
"430 260 OFFCURVE",
"410 299 OFFCURVE",
"410 312 CURVE SMOOTH",
"410 339 OFFCURVE",
"468 395 OFFCURVE",
"584 479 CURVE SMOOTH",
"602 492 LINE SMOOTH",
"646 526 OFFCURVE",
"668 557 OFFCURVE",
"668 584 CURVE SMOOTH"
);
}
);
width = 612;
}
);
unicode = 0058;
},
{
glyphname = Y;
layers = (
{
layerId = "0B97357B-A10C-4E6B-A805-18EA08AD0246";
name = Regular;
paths = (
{
closed = 1;
nodes = (
"703 723 OFFCURVE",
"690 730 OFFCURVE",
"675 730 CURVE SMOOTH",
"665 730 OFFCURVE",
"635 703 OFFCURVE",
"586 650 CURVE SMOOTH",
"564 626 LINE SMOOTH",
"486 542 OFFCURVE",
"430 484 OFFCURVE",
"395 453 CURVE SMOOTH",
"360 421 OFFCURVE",
"327 399 OFFCURVE",
"294 388 CURVE",
"259 400 OFFCURVE",
"220 486 OFFCURVE",
"180 585 CURVE SMOOTH",
"172 604 LINE SMOOTH",
"153 649 OFFCURVE",
"133 671 OFFCURVE",
"111 671 CURVE SMOOTH",
"94 671 OFFCURVE",
"72 652 OFFCURVE",
"72 636 CURVE",
"107 574 LINE SMOOTH",
"204 403 OFFCURVE",
"244 326 OFFCURVE",
"244 249 CURVE SMOOTH",
"244 217 OFFCURVE",
"236 177 OFFCURVE",
"221 129 CURVE SMOOTH",
"182 9 OFFCURVE",
"161 -56 OFFCURVE",
"159 -66 CURVE",
"152 -73 OFFCURVE",
"148 -80 OFFCURVE",
"148 -85 CURVE SMOOTH",
"148 -90 OFFCURVE",
"152 -97 OFFCURVE",
"159 -104 CURVE",
"216 -91 OFFCURVE",
"249 -65 OFFCURVE",
"259 -25 CURVE SMOOTH",
"320 219 LINE SMOOTH",
"349 332 OFFCURVE",
"416 416 OFFCURVE",
"565 559 CURVE SMOOTH",
"646 635 OFFCURVE",
"696 685 OFFCURVE",
"716 709 CURVE"
);
}
);
width = 536;
}
);
unicode = 0059;
},
{
glyphname = Z;
layers = (
{
layerId = "0B97357B-A10C-4E6B-A805-18EA08AD0246";
name = Regular;
paths = (
{
closed = 1;
nodes = (
"880 681 OFFCURVE",
"853 697 OFFCURVE",
"798 697 CURVE SMOOTH",
"755 697 OFFCURVE",
"690 686 OFFCURVE",
"601 665 CURVE SMOOTH",
"514 643 OFFCURVE",
"449 632 OFFCURVE",
"404 632 CURVE SMOOTH",
"397 632 OFFCURVE",
"387 634 OFFCURVE",
"375 638 CURVE",
"364 635 OFFCURVE",
"355 630 OFFCURVE",
"348 622 CURVE",
"330 594 LINE",
"355 577 OFFCURVE",
"384 569 OFFCURVE",
"417 569 CURVE SMOOTH",
"453 569 OFFCURVE",
"505 580 OFFCURVE",
"572 603 CURVE SMOOTH",
"639 625 OFFCURVE",
"691 636 OFFCURVE",
"726 636 CURVE SMOOTH",
"754 636 OFFCURVE",
"779 632 OFFCURVE",
"800 623 CURVE",
"769 578 OFFCURVE",
"708 518 OFFCURVE",
"617 442 CURVE SMOOTH",
"526 366 OFFCURVE",
"400 267 OFFCURVE",
"240 146 CURVE SMOOTH",
"132 64 OFFCURVE",
"77 20 OFFCURVE",
"75 14 CURVE",
"85 -13 OFFCURVE",
"113 -31 OFFCURVE",
"159 -41 CURVE",
"273 0 OFFCURVE",
"428 20 OFFCURVE",
"624 20 CURVE SMOOTH",
"641 20 OFFCURVE",
"666 14 OFFCURVE",
"698 2 CURVE SMOOTH",
"730 -10 OFFCURVE",
"751 -16 OFFCURVE",
"761 -16 CURVE SMOOTH",
"782 -16 OFFCURVE",
"797 0 OFFCURVE",
"805 32 CURVE",
"796 55 OFFCURVE",
"764 67 OFFCURVE",
"710 67 CURVE SMOOTH",
"677 67 LINE SMOOTH",
"645 67 OFFCURVE",
"566 63 OFFCURVE",
"440 55 CURVE SMOOTH",
"381 52 OFFCURVE",
"334 50 OFFCURVE",
"299 50 CURVE SMOOTH",
"274 50 OFFCURVE",
"253 52 OFFCURVE",
"235 57 CURVE",
"262 100 OFFCURVE",
"333 164 OFFCURVE",
"448 247 CURVE SMOOTH",
"468 262 OFFCURVE",
"483 272 OFFCURVE",
"493 279 CURVE SMOOTH",
"608 362 OFFCURVE",
"690 422 OFFCURVE",
"739 460 CURVE SMOOTH",
"835 536 OFFCURVE",
"880 589 OFFCURVE",
"880 649 CURVE SMOOTH"
);
}
);
width = 848;
}
);
unicode = 005A;
},
{
glyphname = bracketleft;
layers = (
{
layerId = "0B97357B-A10C-4E6B-A805-18EA08AD0246";
name = Regular;
paths = (
{
closed = 1;
nodes = (
"536 661 LINE",
"373 581 OFFCURVE",
"266 546 OFFCURVE",
"141 546 CURVE SMOOTH",
"106 546 OFFCURVE",
"89 531 OFFCURVE",
"89 500 CURVE SMOOTH",
"89 489 OFFCURVE",
"94 462 OFFCURVE",
"105 420 CURVE SMOOTH",
"110 402 OFFCURVE",
"112 386 OFFCURVE",
"112 373 CURVE SMOOTH",
"112 344 OFFCURVE",
"104 271 OFFCURVE",
"88 156 CURVE SMOOTH",
"81 111 OFFCURVE",
"78 69 OFFCURVE",
"78 29 CURVE SMOOTH",
"78 4 OFFCURVE",
"98 -8 OFFCURVE",
"138 -8 CURVE SMOOTH",
"150 -8 LINE SMOOTH",
"161 -8 OFFCURVE",
"198 -5 OFFCURVE",
"262 0 CURVE",
"286 3 OFFCURVE",
"308 4 OFFCURVE",
"329 4 CURVE SMOOTH",
"338 4 OFFCURVE",
"362 0 OFFCURVE",
"401 -7 CURVE SMOOTH",
"418 -10 OFFCURVE",
"431 -12 OFFCURVE",
"441 -12 CURVE SMOOTH",
"472 -12 OFFCURVE",
"480 2 OFFCURVE",
"489 47 CURVE",
"480 47 LINE",
"455 63 OFFCURVE",
"448 67 OFFCURVE",
"432 67 CURVE SMOOTH",
"412 67 OFFCURVE",
"374 65 OFFCURVE",
"319 62 CURVE SMOOTH",
"269 58 OFFCURVE",
"231 56 OFFCURVE",
"206 56 CURVE SMOOTH",
"173 56 OFFCURVE",
"157 70 OFFCURVE",
"157 99 CURVE SMOOTH",
"157 317 OFFCURVE",
"163 447 OFFCURVE",
"176 489 CURVE",
"197 510 OFFCURVE",
"240 525 OFFCURVE",
"306 534 CURVE SMOOTH",
"379 544 OFFCURVE",
"430 552 OFFCURVE",
"459 558 CURVE SMOOTH",
"518 570 OFFCURVE",
"547 591 OFFCURVE",
"555 642 CURVE"
);
}
);
width = 612;
}
);
unicode = 005B;
},
{
glyphname = backslash;
layers = (
{
layerId = "0B97357B-A10C-4E6B-A805-18EA08AD0246";
name = Regular;
paths = (
{
closed = 1;
nodes = (
"496 90 OFFCURVE",
"482 121 OFFCURVE",
"454 155 CURVE SMOOTH",
"389 235 LINE",
"312 354 LINE SMOOTH",
"257 439 OFFCURVE",
"216 506 OFFCURVE",
"191 555 CURVE SMOOTH",
"170 595 OFFCURVE",
"154 613 OFFCURVE",
"131 613 CURVE SMOOTH",
"112 613 OFFCURVE",
"80 582 OFFCURVE",
"80 563 CURVE SMOOTH",
"80 546 OFFCURVE",
"113 502 OFFCURVE",
"179 432 CURVE",
"290 285 OFFCURVE",
"398 102 OFFCURVE",
"433 -17 CURVE",
"475 -7 OFFCURVE",
"496 19 OFFCURVE",
"496 61 CURVE SMOOTH"
);
}
);
width = 499;
}
);
unicode = 005C;
},
{
glyphname = bracketright;
layers = (
{
layerId = "0B97357B-A10C-4E6B-A805-18EA08AD0246";
name = Regular;
paths = (
{
closed = 1;
nodes = (
"643 97 LINE SMOOTH",
"604 177 OFFCURVE",
"598 195 OFFCURVE",
"598 260 CURVE SMOOTH",
"598 295 OFFCURVE",
"604 350 OFFCURVE",
"615 425 CURVE SMOOTH",
"626 500 OFFCURVE",
"632 555 OFFCURVE",
"632 590 CURVE SMOOTH",
"632 625 OFFCURVE",
"616 642 OFFCURVE",
"583 642 CURVE SMOOTH",
"563 642 OFFCURVE",
"504 635 OFFCURVE",
"407 622 CURVE SMOOTH",
"364 616 OFFCURVE",
"329 613 OFFCURVE",
"301 613 CURVE SMOOTH",
"296 613 OFFCURVE",
"273 617 OFFCURVE",
"233 624 CURVE",
"220 627 OFFCURVE",
"207 628 OFFCURVE",
"193 628 CURVE SMOOTH",
"164 628 OFFCURVE",
"129 604 OFFCURVE",
"129 579 CURVE",
"137 556 OFFCURVE",
"154 554 OFFCURVE",
"201 554 CURVE SMOOTH",
"230 554 OFFCURVE",
"279 557 OFFCURVE",
"348 562 CURVE SMOOTH",
"417 567 OFFCURVE",
"466 570 OFFCURVE",
"494 570 CURVE",
"503 569 OFFCURVE",
"514 565 OFFCURVE",
"527 558 CURVE",
"536 536 OFFCURVE",
"541 485 OFFCURVE",
"541 404 CURVE SMOOTH",
"541 359 LINE",
"539 248 LINE SMOOTH",
"538 223 OFFCURVE",
"538 180 OFFCURVE",
"538 119 CURVE SMOOTH",
"538 82 OFFCURVE",
"514 64 OFFCURVE",
"467 64 CURVE SMOOTH",
"413 64 OFFCURVE",
"376 69 OFFCURVE",
"357 80 CURVE SMOOTH",
"333 93 OFFCURVE",
"314 101 OFFCURVE",
"301 104 CURVE",
"272 88 OFFCURVE",
"237 46 OFFCURVE",
"233 15 CURVE",
"249 -12 OFFCURVE",
"249 -13 OFFCURVE",
"273 -13 CURVE SMOOTH",
"286 -13 OFFCURVE",
"304 -11 OFFCURVE",
"326 -7 CURVE SMOOTH",
"371 1 OFFCURVE",
"401 5 OFFCURVE",
"414 5 CURVE SMOOTH",
"494 7 LINE",
"602 9 LINE SMOOTH",
"642 9 OFFCURVE",
"662 25 OFFCURVE",
"662 57 CURVE"
);
}
);
width = 659;
}
);
unicode = 005D;
},
{
glyphname = underscore;
layers = (
{
layerId = "0B97357B-A10C-4E6B-A805-18EA08AD0246";
name = Regular;
paths = (
{
closed = 1;
nodes = (
"702 36 OFFCURVE",
"669 66 OFFCURVE",
"640 66 CURVE SMOOTH",
"598 66 OFFCURVE",
"509 59 OFFCURVE",
"373 44 CURVE SMOOTH",
"313 37 OFFCURVE",
"260 34 OFFCURVE",
"214 34 CURVE SMOOTH",
"199 34 OFFCURVE",
"174 37 OFFCURVE",
"139 42 CURVE SMOOTH",
"103 47 OFFCURVE",
"78 50 OFFCURVE",
"63 50 CURVE SMOOTH",
"30 50 OFFCURVE",
"2 32 OFFCURVE",
"2 4 CURVE SMOOTH",
"2 -24 OFFCURVE",
"29 -38 OFFCURVE",
"82 -38 CURVE SMOOTH",
"103 -38 OFFCURVE",
"130 -35 OFFCURVE",
"161 -28 CURVE SMOOTH",
"229 -14 OFFCURVE",
"273 -7 OFFCURVE",
"292 -7 CURVE SMOOTH",
"313 -7 OFFCURVE",
"356 -5 OFFCURVE",
"421 0 CURVE",
"460 1 OFFCURVE",
"485 2 OFFCURVE",
"498 2 CURVE SMOOTH",
"525 2 OFFCURVE",
"572 -11 OFFCURVE",
"640 -36 CURVE",
"650 -27 LINE",
"687 -23 OFFCURVE",
"702 -18 OFFCURVE",
"702 7 CURVE SMOOTH"
);
}
);
width = 400;
}
);
unicode = 005F;
},
{
glyphname = grave;
layers = (
{
layerId = "0B97357B-A10C-4E6B-A805-18EA08AD0246";
name = Regular;
paths = (
{
closed = 1;
nodes = (
"213 671 OFFCURVE",
"181 753 OFFCURVE",
"128 782 CURVE",
"97 769 OFFCURVE",
"81 748 OFFCURVE",
"81 721 CURVE SMOOTH",
"81 684 OFFCURVE",
"111 642 OFFCURVE",
"152 615 CURVE SMOOTH",
"173 601 OFFCURVE",
"193 593 OFFCURVE",
"213 591 CURVE"
);
}
);
width = 338;
}
);
unicode = 0060;
},
{
glyphname = a;
layers = (
{
layerId = "0B97357B-A10C-4E6B-A805-18EA08AD0246";
name = Regular;
paths = (
{
closed = 1;
nodes = (
"408 -1 OFFCURVE",
"383 5 OFFCURVE",
"369 11 CURVE SMOOTH",
"340 23 OFFCURVE",
"337 38 OFFCURVE",
"337 87 CURVE SMOOTH",
"337 96 OFFCURVE",
"352 130 OFFCURVE",
"381 191 CURVE SMOOTH",
"410 249 OFFCURVE",
"424 297 OFFCURVE",
"424 335 CURVE SMOOTH",
"424 359 OFFCURVE",
"407 390 OFFCURVE",
"384 408 CURVE SMOOTH",
"372 417 OFFCURVE",
"360 421 OFFCURVE",
"349 421 CURVE SMOOTH",
"300 421 OFFCURVE",
"160 353 OFFCURVE",
"93 305 CURVE SMOOTH",
"0 238 OFFCURVE",
"-47 161 OFFCURVE",
"-47 75 CURVE SMOOTH",
"-47 22 OFFCURVE",
"-21 -5 OFFCURVE",
"32 -5 CURVE SMOOTH",
"59 -5 OFFCURVE",
"89 1 OFFCURVE",
"121 13 CURVE SMOOTH",
"152 24 OFFCURVE",
"200 45 OFFCURVE",
"265 76 CURVE",
"296 9 OFFCURVE",
"351 -56 OFFCURVE",
"392 -56 CURVE SMOOTH",
"412 -56 OFFCURVE",
"429 -40 OFFCURVE",
"444 -8 CURVE"
);
},
{
closed = 1;
nodes = (
"408 313 OFFCURVE",
"404 295 OFFCURVE",
"395 277 CURVE",
"369 277 OFFCURVE",
"341 256 OFFCURVE",
"312 215 CURVE SMOOTH",
"273 160 OFFCURVE",
"245 122 OFFCURVE",
"228 101 CURVE SMOOTH",
"193 60 OFFCURVE",
"154 39 OFFCURVE",
"78 39 CURVE SMOOTH",
"35 39 OFFCURVE",
"3 59 OFFCURVE",
"3 95 CURVE SMOOTH",
"3 159 OFFCURVE",
"113 262 OFFCURVE",
"162 302 CURVE SMOOTH",
"211 342 OFFCURVE",
"269 366 OFFCURVE",
"346 366 CURVE SMOOTH",
"387 366 OFFCURVE",
"408 354 OFFCURVE",
"408 330 CURVE SMOOTH"
);
},
{
closed = 1;
nodes = (
"443 -20 LINE",
"443 -18 LINE",
"445 -18 LINE",
"445 -16 LINE",
"441 -16 LINE",
"441 -22 LINE",
"443 -22 LINE",
"443 -25 LINE",
"441 -25 LINE",
"441 -28 LINE",
"445 -28 LINE",
"445 -20 LINE"
);
}
);
width = 350;
}
);
unicode = 0061;
},
{
glyphname = b;
layers = (
{
layerId = "0B97357B-A10C-4E6B-A805-18EA08AD0246";
name = Regular;
paths = (
{
closed = 1;
nodes = (
"560 766 OFFCURVE",
"509 713 OFFCURVE",
"474 657 CURVE SMOOTH",
"456 628 OFFCURVE",
"437 594 OFFCURVE",
"416 554 CURVE SMOOTH",
"398 520 LINE SMOOTH",
"367 463 OFFCURVE",
"339 429 OFFCURVE",
"251 326 CURVE SMOOTH",
"233 305 LINE",
"134 190 LINE SMOOTH",
"110 163 OFFCURVE",
"78 124 OFFCURVE",
"37 75 CURVE SMOOTH",
"24 60 OFFCURVE",
"18 48 OFFCURVE",
"18 37 CURVE SMOOTH",
"18 18 LINE",
"100 -13 OFFCURVE",
"154 -28 OFFCURVE",
"180 -28 CURVE SMOOTH",
"263 -28 OFFCURVE",
"407 37 OFFCURVE",
"499 120 CURVE SMOOTH",
"545 161 OFFCURVE",
"568 200 OFFCURVE",
"568 237 CURVE SMOOTH",
"568 279 OFFCURVE",
"539 309 OFFCURVE",
"480 328 CURVE",
"348 354 LINE",
"355 391 OFFCURVE",
"379 435 OFFCURVE",
"422 486 CURVE SMOOTH",
"476 552 LINE SMOOTH",
"565 661 OFFCURVE",
"597 703 OFFCURVE",
"612 766 CURVE"
);
},
{
closed = 1;
nodes = (
"513 177 OFFCURVE",
"420 100 OFFCURVE",
"314 52 CURVE SMOOTH",
"261 28 OFFCURVE",
"217 16 OFFCURVE",
"183 16 CURVE SMOOTH",
"153 16 OFFCURVE",
"138 30 OFFCURVE",
"138 59 CURVE SMOOTH",
"138 140 OFFCURVE",
"193 219 OFFCURVE",
"273 264 CURVE SMOOTH",
"312 286 OFFCURVE",
"353 297 OFFCURVE",
"395 297 CURVE SMOOTH",
"459 297 OFFCURVE",
"513 277 OFFCURVE",
"513 234 CURVE SMOOTH"
);
}
);
width = 565;
}
);
unicode = 0062;
},
{
glyphname = c;
layers = (
{
layerId = "0B97357B-A10C-4E6B-A805-18EA08AD0246";
name = Regular;
paths = (
{
closed = 1;
nodes = (
"602 57 LINE",
"601 58 OFFCURVE",
"598 58 OFFCURVE",
"595 58 CURVE SMOOTH",
"588 58 OFFCURVE",
"578 55 OFFCURVE",
"565 50 CURVE SMOOTH",
"534 37 LINE",
"459 18 OFFCURVE",
"367 9 OFFCURVE",
"257 9 CURVE SMOOTH",
"154 9 OFFCURVE",
"76 46 OFFCURVE",
"76 125 CURVE SMOOTH",
"76 196 OFFCURVE",
"167 279 OFFCURVE",
"276 330 CURVE SMOOTH",
"331 355 OFFCURVE",
"378 368 OFFCURVE",
"418 368 CURVE",
"425 367 OFFCURVE",
"436 366 OFFCURVE",
"451 363 CURVE",
"415 315 OFFCURVE",
"397 287 OFFCURVE",
"397 278 CURVE SMOOTH",
"397 259 OFFCURVE",
"420 245 OFFCURVE",
"441 245 CURVE SMOOTH",
"466 245 OFFCURVE",
"496 288 OFFCURVE",
"513 338 CURVE SMOOTH",
"522 363 OFFCURVE",
"526 383 OFFCURVE",
"526 400 CURVE SMOOTH",
"526 419 OFFCURVE",
"514 435 OFFCURVE",
"489 450 CURVE",
"432 437 OFFCURVE",
"370 417 OFFCURVE",
"303 388 CURVE SMOOTH",
"113 306 OFFCURVE",
"18 215 OFFCURVE",
"18 114 CURVE SMOOTH",
"18 20 OFFCURVE",
"95 -27 OFFCURVE",
"248 -27 CURVE SMOOTH",
"399 -27 OFFCURVE",
"554 5 OFFCURVE",
"633 65 CURVE",
"631 67 LINE",
"612 66 LINE"
);
}
);
width = 631;
}
);
unicode = 0063;
},
{
glyphname = d;
layers = (
{
layerId = "0B97357B-A10C-4E6B-A805-18EA08AD0246";
name = Regular;
paths = (
{
closed = 1;
nodes = (
"577 630 LINE",
"564 639 OFFCURVE",
"553 644 OFFCURVE",
"542 644 CURVE SMOOTH",
"536 644 OFFCURVE",
"522 620 OFFCURVE",
"500 572 CURVE SMOOTH",
"455 476 OFFCURVE",
"410 350 OFFCURVE",
"414 325 CURVE",
"404 316 LINE",
"404 296 LINE",
"395 287 LINE",
"332 323 OFFCURVE",
"326 326 OFFCURVE",
"291 326 CURVE SMOOTH",
"211 326 OFFCURVE",
"116 277 OFFCURVE",
"60 206 CURVE SMOOTH",
"31 170 OFFCURVE",
"17 133 OFFCURVE",
"17 96 CURVE SMOOTH",
"17 47 OFFCURVE",
"61 23 OFFCURVE",
"148 23 CURVE SMOOTH",
"161 23 OFFCURVE",
"178 24 OFFCURVE",
"201 26 CURVE",
"254 28 LINE",
"265 28 OFFCURVE",
"280 27 OFFCURVE",
"301 25 CURVE",
"319 22 OFFCURVE",
"334 21 OFFCURVE",
"347 21 CURVE SMOOTH",
"374 21 OFFCURVE",
"434 83 OFFCURVE",
"450 119 CURVE",
"445 128 OFFCURVE",
"426 133 OFFCURVE",
"395 133 CURVE",
"403 162 OFFCURVE",
"424 216 OFFCURVE",
"458 295 CURVE SMOOTH",
"537 479 LINE SMOOTH",
"563 538 OFFCURVE",
"579 583 OFFCURVE",
"584 613 CURVE"
);
},
{
closed = 1;
nodes = (
"344 112 OFFCURVE",
"297 73 OFFCURVE",
"203 73 CURVE SMOOTH",
"116 73 OFFCURVE",
"72 90 OFFCURVE",
"72 124 CURVE SMOOTH",
"72 164 OFFCURVE",
"126 214 OFFCURVE",
"191 245 CURVE SMOOTH",
"223 260 OFFCURVE",
"250 268 OFFCURVE",
"273 268 CURVE SMOOTH",
"320 268 OFFCURVE",
"344 242 OFFCURVE",
"344 189 CURVE SMOOTH"
);
}
);
width = 508;
}
);
unicode = 0064;
},
{
glyphname = e;
layers = (
{
layerId = "0B97357B-A10C-4E6B-A805-18EA08AD0246";
name = Regular;
paths = (
{
closed = 1;
nodes = (
"468 66 OFFCURVE",
"408 61 OFFCURVE",
"311 52 CURVE SMOOTH",
"271 48 OFFCURVE",
"236 46 OFFCURVE",
"206 46 CURVE SMOOTH",
"125 46 OFFCURVE",
"84 68 OFFCURVE",
"84 113 CURVE SMOOTH",
"84 138 OFFCURVE",
"101 159 OFFCURVE",
"134 175 CURVE",
"161 156 OFFCURVE",
"205 147 OFFCURVE",
"266 147 CURVE SMOOTH",
"322 147 OFFCURVE",
"384 165 OFFCURVE",
"422 199 CURVE SMOOTH",
"441 216 OFFCURVE",
"450 235 OFFCURVE",
"450 257 CURVE SMOOTH",
"450 301 OFFCURVE",
"435 322 OFFCURVE",
"411 331 CURVE SMOOTH",
"398 336 OFFCURVE",
"379 341 OFFCURVE",
"352 347 CURVE SMOOTH",
"320 354 LINE",
"275 341 OFFCURVE",
"233 324 OFFCURVE",
"193 305 CURVE SMOOTH",
"76 248 OFFCURVE",
"17 180 OFFCURVE",
"17 101 CURVE SMOOTH",
"17 36 OFFCURVE",
"73 4 OFFCURVE",
"186 4 CURVE SMOOTH",
"313 4 OFFCURVE",
"452 26 OFFCURVE",
"489 66 CURVE"
);
},
{
closed = 1;
nodes = (
"360 220 OFFCURVE",
"327 201 OFFCURVE",
"288 201 CURVE SMOOTH",
"253 201 OFFCURVE",
"226 217 OFFCURVE",
"206 249 CURVE",
"238 267 LINE SMOOTH",
"275 288 OFFCURVE",
"281 290 OFFCURVE",
"313 290 CURVE SMOOTH",
"342 290 OFFCURVE",
"366 279 OFFCURVE",
"386 258 CURVE"
);
}
);
width = 489;
}
);
unicode = 0065;
},
{
glyphname = f;
layers = (
{
layerId = "0B97357B-A10C-4E6B-A805-18EA08AD0246";
name = Regular;
paths = (
{
closed = 1;
nodes = (
"740 646 OFFCURVE",
"686 681 OFFCURVE",
"610 681 CURVE SMOOTH",
"518 681 OFFCURVE",
"431 620 OFFCURVE",
"349 497 CURVE SMOOTH",
"334 475 OFFCURVE",
"306 428 OFFCURVE",
"265 356 CURVE SMOOTH",
"244 320 OFFCURVE",
"188 300 OFFCURVE",
"151 295 CURVE SMOOTH",
"132 292 OFFCURVE",
"106 289 OFFCURVE",
"71 285 CURVE",
"36 279 OFFCURVE",
"18 265 OFFCURVE",
"18 243 CURVE",
"34 214 OFFCURVE",
"38 210 OFFCURVE",
"65 210 CURVE SMOOTH",
"72 210 OFFCURVE",
"92 217 OFFCURVE",
"124 230 CURVE",
"147 237 OFFCURVE",
"163 240 OFFCURVE",
"174 240 CURVE SMOOTH",
"176 240 OFFCURVE",
"181 236 OFFCURVE",
"188 229 CURVE",
"127 134 OFFCURVE",
"95 83 OFFCURVE",
"92 76 CURVE",
"74 40 OFFCURVE",
"65 9 OFFCURVE",
"65 -17 CURVE",
"118 -6 OFFCURVE",
"161 24 OFFCURVE",
"192 75 CURVE",
"212 121 LINE SMOOTH",
"230 162 OFFCURVE",
"244 193 OFFCURVE",
"254 212 CURVE SMOOTH",
"274 250 OFFCURVE",
"296 269 OFFCURVE",
"332 269 CURVE",
"452 248 LINE",
"452 281 OFFCURVE",
"445 294 OFFCURVE",
"413 307 CURVE SMOOTH",
"397 314 OFFCURVE",
"369 323 OFFCURVE",
"329 335 CURVE",
"344 365 LINE SMOOTH",
"382 444 OFFCURVE",
"411 499 OFFCURVE",
"431 532 CURVE SMOOTH",
"471 597 OFFCURVE",
"517 627 OFFCURVE",
"608 627 CURVE SMOOTH",
"653 627 OFFCURVE",
"690 595 OFFCURVE",
"690 552 CURVE",
"668 459 LINE",
"711 483 OFFCURVE",
"740 531 OFFCURVE",
"740 579 CURVE SMOOTH"
);
}
);
width = 536;
}
);
unicode = 0066;
},
{
glyphname = g;
layers = (
{
layerId = "0B97357B-A10C-4E6B-A805-18EA08AD0246";
name = Regular;
paths = (
{
closed = 1;
nodes = (
"454 345 OFFCURVE",
"416 378 OFFCURVE",
"341 378 CURVE SMOOTH",
"253 378 OFFCURVE",
"145 329 OFFCURVE",
"80 255 CURVE SMOOTH",
"47 218 OFFCURVE",
"31 179 OFFCURVE",
"31 138 CURVE SMOOTH",
"31 81 OFFCURVE",
"74 53 OFFCURVE",
"139 44 CURVE SMOOTH",
"172 39 OFFCURVE",
"213 37 OFFCURVE",
"263 37 CURVE SMOOTH",
"270 37 OFFCURVE",
"277 38 OFFCURVE",
"286 41 CURVE SMOOTH",
"295 44 OFFCURVE",
"302 45 OFFCURVE",
"307 45 CURVE SMOOTH",
"314 45 OFFCURVE",
"324 42 OFFCURVE",
"338 37 CURVE",
"346 23 OFFCURVE",
"350 6 OFFCURVE",
"350 -15 CURVE SMOOTH",
"350 -130 OFFCURVE",
"300 -245 OFFCURVE",
"216 -312 CURVE SMOOTH",
"174 -346 OFFCURVE",
"127 -363 OFFCURVE",
"76 -363 CURVE SMOOTH",
"27 -363 OFFCURVE",
"-76 -315 OFFCURVE",
"-111 -276 CURVE",
"-121 -276 LINE",
"-127 -294 OFFCURVE",
"-130 -306 OFFCURVE",
"-130 -312 CURVE SMOOTH",
"-130 -344 OFFCURVE",
"-71 -378 OFFCURVE",
"-2 -398 CURVE SMOOTH",
"32 -409 OFFCURVE",
"60 -414 OFFCURVE",
"82 -414 CURVE SMOOTH",
"257 -414 OFFCURVE",
"364 -306 OFFCURVE",
"404 -90 CURVE SMOOTH",
"417 -25 OFFCURVE",
"423 60 OFFCURVE",
"423 163 CURVE SMOOTH",
"423 174 OFFCURVE",
"426 188 OFFCURVE",
"433 204 CURVE",
"447 240 OFFCURVE",
"454 265 OFFCURVE",
"454 280 CURVE SMOOTH"
);
},
{
closed = 1;
nodes = (
"390 281 OFFCURVE",
"384 265 OFFCURVE",
"372 246 CURVE SMOOTH",
"347 205 OFFCURVE",
"335 181 OFFCURVE",
"335 173 CURVE SMOOTH",
"335 170 OFFCURVE",
"337 164 OFFCURVE",
"340 154 CURVE",
"343 146 OFFCURVE",
"344 139 OFFCURVE",
"344 134 CURVE SMOOTH",
"344 102 OFFCURVE",
"283 84 OFFCURVE",
"230 84 CURVE SMOOTH",
"143 84 OFFCURVE",
"99 106 OFFCURVE",
"99 151 CURVE SMOOTH",
"99 202 OFFCURVE",
"159 262 OFFCURVE",
"232 298 CURVE SMOOTH",
"269 316 OFFCURVE",
"301 325 OFFCURVE",
"329 325 CURVE SMOOTH",
"370 325 OFFCURVE",
"390 314 OFFCURVE",
"390 292 CURVE SMOOTH"
);
}
);
width = 452;
}
);
unicode = 0067;
},
{
glyphname = h;
layers = (
{
layerId = "0B97357B-A10C-4E6B-A805-18EA08AD0246";
name = Regular;
paths = (
{
closed = 1;
nodes = (
"648 340 OFFCURVE",
"639 364 OFFCURVE",
"621 382 CURVE SMOOTH",
"615 388 OFFCURVE",
"606 391 OFFCURVE",
"594 391 CURVE SMOOTH",
"577 391 OFFCURVE",
"483 353 OFFCURVE",
"311 278 CURVE",
"424 504 OFFCURVE",
"480 622 OFFCURVE",
"480 633 CURVE SMOOTH",
"480 648 OFFCURVE",
"467 656 OFFCURVE",
"455 663 CURVE",
"448 666 OFFCURVE",
"444 669 OFFCURVE",
"442 670 CURVE",
"420 650 OFFCURVE",
"396 609 OFFCURVE",
"370 548 CURVE SMOOTH",
"299 379 OFFCURVE",
"321 418 OFFCURVE",
"206 264 CURVE SMOOTH",
"149 187 OFFCURVE",
"109 134 OFFCURVE",
"87 107 CURVE",
"44 50 OFFCURVE",
"21 14 OFFCURVE",
"18 0 CURVE",
"45 -5 OFFCURVE",
"67 -11 OFFCURVE",
"84 -17 CURVE",
"132 98 OFFCURVE",
"239 202 OFFCURVE",
"370 267 CURVE SMOOTH",
"435 299 OFFCURVE",
"500 319 OFFCURVE",
"565 326 CURVE",
"567 307 LINE",
"569 288 LINE",
"569 256 OFFCURVE",
"550 201 OFFCURVE",
"511 123 CURVE SMOOTH",
"472 42 OFFCURVE",
"452 -11 OFFCURVE",
"452 -37 CURVE SMOOTH",
"452 -62 OFFCURVE",
"464 -75 OFFCURVE",
"489 -75 CURVE SMOOTH",
"503 -75 OFFCURVE",
"522 -69 OFFCURVE",
"545 -56 CURVE",
"534 -39 OFFCURVE",
"529 -20 OFFCURVE",
"529 0 CURVE SMOOTH",
"529 23 OFFCURVE",
"549 73 OFFCURVE",
"589 149 CURVE SMOOTH",
"628 226 OFFCURVE",
"648 279 OFFCURVE",
"648 309 CURVE SMOOTH"
);
}
);
width = 640;
}
);
unicode = 0068;
},
{
glyphname = i;
layers = (
{
layerId = "0B97357B-A10C-4E6B-A805-18EA08AD0246";
name = Regular;
paths = (
{
closed = 1;
nodes = (
"274 572 OFFCURVE",
"270 579 OFFCURVE",
"262 586 CURVE SMOOTH",
"251 596 OFFCURVE",
"245 602 OFFCURVE",
"244 604 CURVE SMOOTH",
"225 639 OFFCURVE",
"212 658 OFFCURVE",
"206 661 CURVE",
"205 650 OFFCURVE",
"201 634 OFFCURVE",
"194 613 CURVE",
"186 592 OFFCURVE",
"182 576 OFFCURVE",
"182 563 CURVE SMOOTH",
"182 539 OFFCURVE",
"197 527 OFFCURVE",
"226 527 CURVE SMOOTH",
"258 527 OFFCURVE",
"274 539 OFFCURVE",
"274 563 CURVE SMOOTH"
);
},
{
closed = 1;
nodes = (
"180 299 OFFCURVE",
"170 314 OFFCURVE",
"150 334 CURVE",
"121 310 OFFCURVE",
"98 267 OFFCURVE",
"83 225 CURVE SMOOTH",
"76 204 OFFCURVE",
"70 186 OFFCURVE",
"65 172 CURVE SMOOTH",
"64 169 OFFCURVE",
"55 154 OFFCURVE",
"39 127 CURVE SMOOTH",
"28 108 OFFCURVE",
"22 92 OFFCURVE",
"22 78 CURVE SMOOTH",
"22 74 OFFCURVE",
"23 67 OFFCURVE",
"25 58 CURVE",
"27 38 LINE",
"75 38 OFFCURVE",
"84 41 OFFCURVE",
"99 71 CURVE SMOOTH",
"106 86 OFFCURVE",
"115 105 OFFCURVE",
"124 129 CURVE SMOOTH",
"161 225 OFFCURVE",
"180 278 OFFCURVE",
"180 288 CURVE SMOOTH"
);
}
);
width = 263;
}
);
unicode = 0069;
},
{
glyphname = j;
layers = (
{
layerId = "0B97357B-A10C-4E6B-A805-18EA08AD0246";
name = Regular;
paths = (
{
closed = 1;
nodes = (
"352 569 OFFCURVE",
"318 602 OFFCURVE",
"297 602 CURVE SMOOTH",
"268 602 OFFCURVE",
"235 577 OFFCURVE",
"235 550 CURVE SMOOTH",
"235 536 LINE",
"260 529 OFFCURVE",
"283 526 OFFCURVE",
"305 526 CURVE SMOOTH",
"336 526 OFFCURVE",
"352 533 OFFCURVE",
"352 548 CURVE SMOOTH"
);
},
{
closed = 1;
nodes = (
"256 273 LINE",
"254 280 OFFCURVE",
"253 284 OFFCURVE",
"254 287 CURVE",
"244 296 LINE",
"235 296 LINE",
"198 181 LINE SMOOTH",
"174 107 OFFCURVE",
"162 69 OFFCURVE",
"161 66 CURVE SMOOTH",
"76 -195 OFFCURVE",
"-22 -325 OFFCURVE",
"-135 -325 CURVE SMOOTH",
"-179 -325 OFFCURVE",
"-217 -294 OFFCURVE",
"-237 -249 CURVE SMOOTH",
"-247 -227 OFFCURVE",
"-252 -204 OFFCURVE",
"-252 -180 CURVE SMOOTH",
"-252 -158 OFFCURVE",
"-247 -140 OFFCURVE",
"-236 -127 CURVE",
"-231 -120 OFFCURVE",
"-226 -111 OFFCURVE",
"-223 -102 CURVE",
"-226 -79 OFFCURVE",
"-236 -68 OFFCURVE",
"-254 -68 CURVE SMOOTH",
"-291 -68 OFFCURVE",
"-315 -105 OFFCURVE",
"-315 -149 CURVE SMOOTH",
"-315 -213 OFFCURVE",
"-276 -292 OFFCURVE",
"-220 -340 CURVE SMOOTH",
"-192 -364 OFFCURVE",
"-163 -376 OFFCURVE",
"-134 -376 CURVE SMOOTH",
"-28 -376 OFFCURVE",
"68 -266 OFFCURVE",
"155 -45 CURVE SMOOTH",
"182 30 OFFCURVE",
"205 99 OFFCURVE",
"225 162 CURVE SMOOTH",
"258 260 LINE"
);
}
);
width = 348;
}
);
unicode = 006A;
},
{
glyphname = k;
layers = (
{
layerId = "0B97357B-A10C-4E6B-A805-18EA08AD0246";
name = Regular;
paths = (
{
closed = 1;
nodes = (
"584 488 LINE",
"443 384 LINE",
"407 366 LINE SMOOTH",
"311 319 OFFCURVE",
"265 299 OFFCURVE",
"216 287 CURVE",
"231 376 OFFCURVE",
"301 488 OFFCURVE",
"384 608 CURVE SMOOTH",
"419 661 OFFCURVE",
"438 703 OFFCURVE",
"443 734 CURVE",
"432 758 OFFCURVE",
"434 756 OFFCURVE",
"410 769 CURVE",
"399 764 OFFCURVE",
"392 760 OFFCURVE",
"389 755 CURVE",
"374 732 OFFCURVE",
"353 694 OFFCURVE",
"328 643 CURVE SMOOTH",
"300 584 OFFCURVE",
"281 545 OFFCURVE",
"271 527 CURVE SMOOTH",
"104 216 LINE SMOOTH",
"47 107 OFFCURVE",
"18 45 OFFCURVE",
"18 32 CURVE SMOOTH",
"18 9 LINE",
"73 9 OFFCURVE",
"96 21 OFFCURVE",
"106 45 CURVE SMOOTH",
"111 57 OFFCURVE",
"116 77 OFFCURVE",
"121 106 CURVE",
"131 152 LINE",
"144 147 OFFCURVE",
"162 125 OFFCURVE",
"185 84 CURVE SMOOTH",
"231 2 OFFCURVE",
"280 -114 OFFCURVE",
"291 -161 CURVE",
"326 -147 OFFCURVE",
"344 -126 OFFCURVE",
"344 -99 CURVE SMOOTH",
"344 -88 OFFCURVE",
"327 -42 OFFCURVE",
"292 37 CURVE SMOOTH",
"256 122 OFFCURVE",
"236 178 OFFCURVE",
"232 205 CURVE",
"243 228 LINE",
"266 244 OFFCURVE",
"312 264 OFFCURVE",
"379 289 CURVE SMOOTH",
"451 315 OFFCURVE",
"505 340 OFFCURVE",
"540 365 CURVE SMOOTH",
"575 390 OFFCURVE",
"592 419 OFFCURVE",
"592 453 CURVE"
);
}
);
width = 508;
}
);
unicode = 006B;
},
{
glyphname = l;
layers = (
{
layerId = "0B97357B-A10C-4E6B-A805-18EA08AD0246";
name = Regular;
paths = (
{
closed = 1;
nodes = (
"416 667 OFFCURVE",
"396 696 OFFCURVE",
"376 699 CURVE",
"358 689 OFFCURVE",
"345 674 OFFCURVE",
"337 654 CURVE",
"334 643 OFFCURVE",
"328 623 OFFCURVE",
"320 594 CURVE SMOOTH",
"306 542 OFFCURVE",
"274 474 OFFCURVE",
"223 391 CURVE SMOOTH",
"96 182 LINE SMOOTH",
"53 112 OFFCURVE",
"28 60 OFFCURVE",
"21 25 CURVE",
"32 7 LINE",
"44 2 OFFCURVE",
"55 0 OFFCURVE",
"66 0 CURVE SMOOTH",
"85 0 OFFCURVE",
"99 13 OFFCURVE",
"110 40 CURVE",
"130 104 LINE SMOOTH",
"135 119 OFFCURVE",
"164 177 OFFCURVE",
"219 278 CURVE SMOOTH",
"349 517 LINE SMOOTH",
"394 598 OFFCURVE",
"416 641 OFFCURVE",
"416 646 CURVE SMOOTH"
);
}
);
width = 338;
}
);
unicode = 006C;
},
{
glyphname = m;
layers = (
{
layerId = "0B97357B-A10C-4E6B-A805-18EA08AD0246";
name = Regular;
paths = (
{
closed = 1;
nodes = (
"833 347 OFFCURVE",
"820 364 OFFCURVE",
"794 364 CURVE SMOOTH",
"737 364 OFFCURVE",
"620 300 OFFCURVE",
"499 229 CURVE",
"498 235 OFFCURVE",
"494 252 OFFCURVE",
"489 280 CURVE SMOOTH",
"478 335 OFFCURVE",
"457 364 OFFCURVE",
"422 364 CURVE SMOOTH",
"411 364 OFFCURVE",
"390 357 OFFCURVE",
"360 344 CURVE SMOOTH",
"294 313 OFFCURVE",
"255 298 OFFCURVE",
"242 297 CURVE SMOOTH",
"223 295 OFFCURVE",
"205 278 OFFCURVE",
"189 246 CURVE SMOOTH",
"182 231 OFFCURVE",
"160 203 OFFCURVE",
"121 160 CURVE SMOOTH",
"52 83 OFFCURVE",
"18 36 OFFCURVE",
"18 18 CURVE SMOOTH",
"18 0 LINE",
"44 0 OFFCURVE",
"79 21 OFFCURVE",
"122 62 CURVE SMOOTH",
"252 188 LINE SMOOTH",
"305 239 OFFCURVE",
"352 275 OFFCURVE",
"395 297 CURVE",
"399 289 OFFCURVE",
"412 264 OFFCURVE",
"414 254 CURVE SMOOTH",
"415 249 OFFCURVE",
"415 243 OFFCURVE",
"415 236 CURVE SMOOTH",
"415 209 OFFCURVE",
"403 184 OFFCURVE",
"378 160 CURVE SMOOTH",
"321 105 OFFCURVE",
"293 71 OFFCURVE",
"292 57 CURVE",
"307 54 LINE",
"327 54 OFFCURVE",
"374 77 OFFCURVE",
"449 124 CURVE SMOOTH",
"513 165 LINE SMOOTH",
"637 245 OFFCURVE",
"693 279 OFFCURVE",
"753 296 CURVE",
"753 270 OFFCURVE",
"725 211 OFFCURVE",
"668 118 CURVE SMOOTH",
"642 75 OFFCURVE",
"629 37 OFFCURVE",
"629 3 CURVE SMOOTH",
"629 -37 OFFCURVE",
"643 -60 OFFCURVE",
"672 -67 CURVE",
"691 -60 OFFCURVE",
"700 -49 OFFCURVE",
"700 -34 CURVE SMOOTH",
"700 -29 OFFCURVE",
"699 -22 OFFCURVE",
"698 -13 CURVE",
"695 7 OFFCURVE",
"693 18 OFFCURVE",
"693 21 CURVE SMOOTH",
"693 39 OFFCURVE",
"724 94 OFFCURVE",
"785 186 CURVE",
"796 204 LINE",
"821 241 OFFCURVE",
"833 277 OFFCURVE",
"833 312 CURVE SMOOTH"
);
}
);
width = 829;
}
);
unicode = 006D;
},
{
glyphname = n;
layers = (
{
layerId = "0B97357B-A10C-4E6B-A805-18EA08AD0246";
name = Regular;
paths = (
{
closed = 1;
nodes = (
"536 296 OFFCURVE",
"501 343 OFFCURVE",
"452 343 CURVE SMOOTH",
"433 343 OFFCURVE",
"414 338 OFFCURVE",
"393 329 CURVE SMOOTH",
"372 320 OFFCURVE",
"333 300 OFFCURVE",
"277 271 CURVE SMOOTH",
"254 259 LINE",
"267 288 OFFCURVE",
"274 306 OFFCURVE",
"276 313 CURVE",
"279 322 OFFCURVE",
"281 332 OFFCURVE",
"281 345 CURVE SMOOTH",
"281 364 OFFCURVE",
"272 374 OFFCURVE",
"253 374 CURVE SMOOTH",
"240 374 OFFCURVE",
"231 371 OFFCURVE",
"226 366 CURVE",
"216 357 OFFCURVE",
"203 330 OFFCURVE",
"188 286 CURVE",
"177 267 OFFCURVE",
"153 235 OFFCURVE",
"116 189 CURVE SMOOTH",
"51 110 OFFCURVE",
"18 54 OFFCURVE",
"18 19 CURVE",
"27 9 LINE",
"27 0 LINE",
"95 12 OFFCURVE",
"181 95 OFFCURVE",
"269 191 CURVE SMOOTH",
"283 206 LINE SMOOTH",
"326 249 OFFCURVE",
"370 270 OFFCURVE",
"417 270 CURVE SMOOTH",
"452 270 OFFCURVE",
"469 253 OFFCURVE",
"469 219 CURVE SMOOTH",
"469 202 OFFCURVE",
"452 169 OFFCURVE",
"418 122 CURVE SMOOTH",
"384 75 OFFCURVE",
"367 42 OFFCURVE",
"367 23 CURVE SMOOTH",
"367 3 OFFCURVE",
"387 -13 OFFCURVE",
"411 -13 CURVE SMOOTH",
"433 -13 OFFCURVE",
"446 -3 OFFCURVE",
"451 17 CURVE",
"444 28 OFFCURVE",
"443 31 OFFCURVE",
"442 48 CURVE",
"481 84 OFFCURVE",
"536 196 OFFCURVE",
"536 241 CURVE SMOOTH"
);
}
);
width = 518;
}
);
unicode = 006E;
},
{
glyphname = o;
layers = (
{
layerId = "0B97357B-A10C-4E6B-A805-18EA08AD0246";
name = Regular;
paths = (
{
closed = 1;
nodes = (
"626 291 OFFCURVE",
"541 351 OFFCURVE",
"424 351 CURVE SMOOTH",
"337 351 OFFCURVE",
"194 297 OFFCURVE",
"103 225 CURVE SMOOTH",
"57 189 OFFCURVE",
"34 153 OFFCURVE",
"34 118 CURVE SMOOTH",
"34 39 OFFCURVE",
"114 0 OFFCURVE",
"273 0 CURVE SMOOTH",
"381 0 OFFCURVE",
"500 29 OFFCURVE",
"572 86 CURVE SMOOTH",
"608 114 OFFCURVE",
"626 148 OFFCURVE",
"626 187 CURVE SMOOTH"
);
},
{
closed = 1;
nodes = (
"571 133 OFFCURVE",
"494 85 OFFCURVE",
"396 61 CURVE SMOOTH",
"347 49 OFFCURVE",
"300 43 OFFCURVE",
"257 43 CURVE SMOOTH",
"194 43 OFFCURVE",
"139 66 OFFCURVE",
"94 112 CURVE",
"133 176 OFFCURVE",
"212 233 OFFCURVE",
"301 264 CURVE SMOOTH",
"345 279 OFFCURVE",
"387 287 OFFCURVE",
"427 287 CURVE SMOOTH",
"506 287 OFFCURVE",
"571 254 OFFCURVE",
"571 193 CURVE SMOOTH"
);
}
);
width = 621;
}
);
unicode = 006F;
},
{
glyphname = p;
layers = (
{
layerId = "0B97357B-A10C-4E6B-A805-18EA08AD0246";
name = Regular;
paths = (
{
closed = 1;
nodes = (
"559 373 OFFCURVE",
"521 405 OFFCURVE",
"445 405 CURVE SMOOTH",
"386 405 OFFCURVE",
"265 377 OFFCURVE",
"186 340 CURVE SMOOTH",
"146 321 OFFCURVE",
"126 303 OFFCURVE",
"126 286 CURVE SMOOTH",
"126 271 OFFCURVE",
"131 258 OFFCURVE",
"141 249 CURVE",
"160 256 OFFCURVE",
"179 266 OFFCURVE",
"196 277 CURVE",
"196 241 OFFCURVE",
"174 193 OFFCURVE",
"131 134 CURVE",
"28 8 LINE",
"15 -29 OFFCURVE",
"-38 -95 OFFCURVE",
"-103 -175 CURVE SMOOTH",
"-140 -222 OFFCURVE",
"-158 -252 OFFCURVE",
"-158 -267 CURVE SMOOTH",
"-158 -286 OFFCURVE",
"-149 -295 OFFCURVE",
"-130 -295 CURVE SMOOTH",
"-93 -295 OFFCURVE",
"-60 -251 OFFCURVE",
"-36 -199 CURVE SMOOTH",
"-24 -173 OFFCURVE",
"-7 -134 OFFCURVE",
"14 -81 CURVE",
"31 -51 OFFCURVE",
"89 -17 OFFCURVE",
"187 22 CURVE SMOOTH",
"288 63 OFFCURVE",
"362 96 OFFCURVE",
"411 121 CURVE SMOOTH",
"507 169 OFFCURVE",
"559 224 OFFCURVE",
"559 308 CURVE SMOOTH"
);
},
{
closed = 1;
nodes = (
"500 296 OFFCURVE",
"490 279 OFFCURVE",
"471 258 CURVE",
"404 189 OFFCURVE",
"379 164 OFFCURVE",
"331 132 CURVE SMOOTH",
"306 115 OFFCURVE",
"278 100 OFFCURVE",
"245 86 CURVE",
"141 47 LINE",
"141 104 OFFCURVE",
"247 250 OFFCURVE",
"293 295 CURVE SMOOTH",
"339 340 OFFCURVE",
"374 353 OFFCURVE",
"421 353 CURVE SMOOTH",
"474 353 OFFCURVE",
"500 339 OFFCURVE",
"500 311 CURVE SMOOTH"
);
}
);
width = 555;
}
);
unicode = 0070;
},
{
glyphname = q;
layers = (
{
layerId = "0B97357B-A10C-4E6B-A805-18EA08AD0246";
name = Regular;
paths = (
{
closed = 1;
nodes = (
"596 400 OFFCURVE",
"565 430 OFFCURVE",
"504 430 CURVE SMOOTH",
"412 430 OFFCURVE",
"217 340 OFFCURVE",
"109 253 CURVE SMOOTH",
"55 209 OFFCURVE",
"28 166 OFFCURVE",
"28 124 CURVE SMOOTH",
"28 72 OFFCURVE",
"92 46 OFFCURVE",
"221 46 CURVE",
"272 58 LINE",
"286 53 OFFCURVE",
"296 46 OFFCURVE",
"301 38 CURVE",
"265 -15 OFFCURVE",
"251 -30 OFFCURVE",
"222 -30 CURVE",
"207 -27 LINE",
"199 -14 OFFCURVE",
"182 -10 OFFCURVE",
"149 -6 CURVE",
"121 -22 LINE",
"116 -41 OFFCURVE",
"113 -59 OFFCURVE",
"113 -75 CURVE",
"120 -73 OFFCURVE",
"128 -72 OFFCURVE",
"137 -72 CURVE SMOOTH",
"148 -72 OFFCURVE",
"158 -73 OFFCURVE",
"168 -75 CURVE",
"160 -128 OFFCURVE",
"97 -198 OFFCURVE",
"59 -236 CURVE SMOOTH",
"40 -255 OFFCURVE",
"28 -267 OFFCURVE",
"24 -271 CURVE",
"-5 -304 OFFCURVE",
"-19 -339 OFFCURVE",
"-19 -377 CURVE SMOOTH",
"-19 -415 OFFCURVE",
"7 -434 OFFCURVE",
"59 -434 CURVE SMOOTH",
"196 -434 OFFCURVE",
"282 -366 OFFCURVE",
"282 -238 CURVE SMOOTH",
"282 -223 OFFCURVE",
"279 -204 OFFCURVE",
"272 -180 CURVE SMOOTH",
"265 -154 OFFCURVE",
"261 -135 OFFCURVE",
"261 -122 CURVE SMOOTH",
"261 -93 OFFCURVE",
"290 -52 OFFCURVE",
"348 -1 CURVE SMOOTH",
"366 15 OFFCURVE",
"375 23 OFFCURVE",
"375 23 CURVE",
"442 81 OFFCURVE",
"490 124 OFFCURVE",
"517 152 CURVE SMOOTH",
"572 207 OFFCURVE",
"596 257 OFFCURVE",
"596 340 CURVE SMOOTH"
);
},
{
closed = 1;
nodes = (
"531 289 OFFCURVE",
"520 261 OFFCURVE",
"499 228 CURVE SMOOTH",
"435 128 OFFCURVE",
"332 95 OFFCURVE",
"169 95 CURVE SMOOTH",
"120 95 OFFCURVE",
"95 109 OFFCURVE",
"95 136 CURVE SMOOTH",
"95 192 OFFCURVE",
"203 272 OFFCURVE",
"323 325 CURVE SMOOTH",
"382 351 OFFCURVE",
"428 364 OFFCURVE",
"461 364 CURVE SMOOTH",
"508 364 OFFCURVE",
"531 347 OFFCURVE",
"531 312 CURVE SMOOTH"
);
},
{
closed = 1;
nodes = (
"214 -306 OFFCURVE",
"177 -379 OFFCURVE",
"105 -379 CURVE SMOOTH",
"84 -379 OFFCURVE",
"62 -373 OFFCURVE",
"37 -362 CURVE",
"58 -303 OFFCURVE",
"114 -227 OFFCURVE",
"207 -150 CURVE",
"212 -168 OFFCURVE",
"214 -189 OFFCURVE",
"214 -213 CURVE SMOOTH"
);
}
);
width = 602;
}
);
unicode = 0071;
},
{
glyphname = r;
layers = (
{
layerId = "0B97357B-A10C-4E6B-A805-18EA08AD0246";
name = Regular;
paths = (
{
closed = 1;
nodes = (
"442 229 LINE",
"432 289 OFFCURVE",
"389 319 OFFCURVE",
"312 318 CURVE SMOOTH",
"307 318 OFFCURVE",
"302 318 OFFCURVE",
"298 317 CURVE",
"264 317 LINE SMOOTH",
"238 317 OFFCURVE",
"222 326 OFFCURVE",
"217 343 CURVE",
"207 411 LINE",
"188 412 LINE",
"159 409 OFFCURVE",
"134 348 OFFCURVE",
"133 303 CURVE SMOOTH",
"130 228 OFFCURVE",
"128 207 OFFCURVE",
"109 168 CURVE SMOOTH",
"100 149 OFFCURVE",
"84 121 OFFCURVE",
"61 86 CURVE SMOOTH",
"29 37 OFFCURVE",
"12 -1 OFFCURVE",
"9 -27 CURVE",
"64 -27 OFFCURVE",
"105 7 OFFCURVE",
"130 74 CURVE SMOOTH",
"170 182 OFFCURVE",
"190 228 OFFCURVE",
"223 258 CURVE SMOOTH",
"240 273 OFFCURVE",
"260 280 OFFCURVE",
"285 280 CURVE"
);
}
);
width = 442;
}
);
unicode = 0072;
},
{
glyphname = s;
layers = (
{
layerId = "0B97357B-A10C-4E6B-A805-18EA08AD0246";
name = Regular;
paths = (
{
closed = 1;
nodes = (
"401 211 OFFCURVE",
"395 213 OFFCURVE",
"390 215 CURVE",
"384 213 OFFCURVE",
"352 206 OFFCURVE",
"294 193 CURVE SMOOTH",
"241 182 OFFCURVE",
"199 171 OFFCURVE",
"168 161 CURVE SMOOTH",
"137 151 OFFCURVE",
"115 141 OFFCURVE",
"102 131 CURVE",
"119 114 OFFCURVE",
"161 108 OFFCURVE",
"233 96 CURVE SMOOTH",
"254 92 OFFCURVE",
"272 88 OFFCURVE",
"286 85 CURVE",
"313 78 OFFCURVE",
"318 74 OFFCURVE",
"318 59 CURVE SMOOTH",
"318 48 OFFCURVE",
"307 37 OFFCURVE",
"284 26 CURVE SMOOTH",
"238 3 OFFCURVE",
"166 -14 OFFCURVE",
"127 -14 CURVE SMOOTH",
"110 -14 OFFCURVE",
"91 -3 OFFCURVE",
"68 20 CURVE SMOOTH",
"46 43 OFFCURVE",
"28 57 OFFCURVE",
"14 61 CURVE",
"14 53 LINE",
"11 25 OFFCURVE",
"38 -5 OFFCURVE",
"78 -22 CURVE SMOOTH",
"98 -31 OFFCURVE",
"118 -35 OFFCURVE",
"139 -35 CURVE SMOOTH",
"191 -35 OFFCURVE",
"272 -14 OFFCURVE",
"323 17 CURVE SMOOTH",
"348 32 OFFCURVE",
"361 48 OFFCURVE",
"361 64 CURVE SMOOTH",
"361 80 OFFCURVE",
"348 92 OFFCURVE",
"323 101 CURVE",
"297 109 OFFCURVE",
"251 119 OFFCURVE",
"184 131 CURVE",
"199 144 OFFCURVE",
"227 154 OFFCURVE",
"266 161 CURVE SMOOTH",
"302 167 LINE SMOOTH",
"341 174 OFFCURVE",
"367 180 OFFCURVE",
"382 185 CURVE SMOOTH",
"397 190 OFFCURVE",
"406 198 OFFCURVE",
"409 210 CURVE"
);
}
);
width = 400;
}
);
unicode = 0073;
},
{
glyphname = t;
layers = (
{
layerId = "0B97357B-A10C-4E6B-A805-18EA08AD0246";
name = Regular;
paths = (
{
closed = 1;
nodes = (
"473 621 OFFCURVE",
"449 651 OFFCURVE",
"433 651 CURVE",
"368 512 OFFCURVE",
"350 473 OFFCURVE",
"285 438 CURVE SMOOTH",
"252 420 OFFCURVE",
"210 411 OFFCURVE",
"159 411 CURVE SMOOTH",
"149 411 OFFCURVE",
"140 411 OFFCURVE",
"133 412 CURVE SMOOTH",
"126 413 OFFCURVE",
"117 413 OFFCURVE",
"107 413 CURVE SMOOTH",
"48 413 OFFCURVE",
"18 400 OFFCURVE",
"18 374 CURVE SMOOTH",
"18 354 OFFCURVE",
"40 337 OFFCURVE",
"64 337 CURVE SMOOTH",
"71 337 OFFCURVE",
"100 346 OFFCURVE",
"150 363 CURVE SMOOTH",
"175 372 OFFCURVE",
"194 376 OFFCURVE",
"209 375 CURVE SMOOTH",
"244 373 LINE",
"158 277 LINE SMOOTH",
"83 192 OFFCURVE",
"45 129 OFFCURVE",
"45 86 CURVE SMOOTH",
"45 13 OFFCURVE",
"120 -24 OFFCURVE",
"270 -24 CURVE SMOOTH",
"311 -24 OFFCURVE",
"353 -16 OFFCURVE",
"395 0 CURVE",
"388 9 OFFCURVE",
"385 15 OFFCURVE",
"386 18 CURVE",
"369 15 OFFCURVE",
"351 14 OFFCURVE",
"331 14 CURVE SMOOTH",
"219 14 OFFCURVE",
"117 40 OFFCURVE",
"117 99 CURVE SMOOTH",
"117 148 OFFCURVE",
"197 256 OFFCURVE",
"281 331 CURVE SMOOTH",
"323 368 OFFCURVE",
"356 387 OFFCURVE",
"379 387 CURVE SMOOTH",
"390 387 OFFCURVE",
"405 384 OFFCURVE",
"424 378 CURVE SMOOTH",
"470 364 LINE",
"471 375 LINE SMOOTH",
"473 395 OFFCURVE",
"465 412 OFFCURVE",
"446 427 CURVE",
"395 460 LINE",
"430 507 OFFCURVE",
"451 536 OFFCURVE",
"456 545 CURVE SMOOTH",
"467 566 OFFCURVE",
"473 585 OFFCURVE",
"473 601 CURVE SMOOTH"
);
}
);
width = 470;
}
);
unicode = 0074;
},
{
glyphname = u;
layers = (
{
layerId = "0B97357B-A10C-4E6B-A805-18EA08AD0246";
name = Regular;
paths = (
{
closed = 1;
nodes = (
"376 220 LINE",
"371 224 OFFCURVE",
"366 226 OFFCURVE",
"361 226 CURVE SMOOTH",
"348 226 OFFCURVE",
"317 186 OFFCURVE",
"297 158 CURVE",
"286 144 OFFCURVE",
"280 135 OFFCURVE",
"277 131 CURVE SMOOTH",
"236 76 OFFCURVE",
"215 60 OFFCURVE",
"135 28 CURVE",
"132 27 OFFCURVE",
"124 24 OFFCURVE",
"113 19 CURVE SMOOTH",
"89 9 OFFCURVE",
"75 5 OFFCURVE",
"60 5 CURVE SMOOTH",
"47 5 LINE",
"44 6 OFFCURVE",
"41 6 OFFCURVE",
"36 6 CURVE",
"29 12 LINE",
"38 31 OFFCURVE",
"55 53 OFFCURVE",
"79 80 CURVE SMOOTH",
"108 111 LINE SMOOTH",
"132 137 OFFCURVE",
"150 157 OFFCURVE",
"162 172 CURVE SMOOTH",
"173 186 OFFCURVE",
"179 197 OFFCURVE",
"179 204 CURVE SMOOTH",
"179 212 OFFCURVE",
"175 216 OFFCURVE",
"167 216 CURVE SMOOTH",
"150 216 OFFCURVE",
"77 142 OFFCURVE",
"22 74 CURVE SMOOTH",
"-6 40 OFFCURVE",
"-20 17 OFFCURVE",
"-20 4 CURVE SMOOTH",
"-20 -15 OFFCURVE",
"0 -24 OFFCURVE",
"39 -24 CURVE SMOOTH",
"75 -24 OFFCURVE",
"118 -11 OFFCURVE",
"167 16 CURVE",
"177 21 OFFCURVE",
"196 32 OFFCURVE",
"224 50 CURVE",
"223 47 OFFCURVE",
"223 42 OFFCURVE",
"223 37 CURVE SMOOTH",
"223 24 LINE SMOOTH",
"223 -9 OFFCURVE",
"234 -22 OFFCURVE",
"266 -22 CURVE SMOOTH",
"275 -22 OFFCURVE",
"285 -21 OFFCURVE",
"295 -18 CURVE",
"324 -11 LINE",
"316 -2 LINE",
"309 0 OFFCURVE",
"303 1 OFFCURVE",
"297 1 CURVE SMOOTH",
"291 1 LINE",
"282 1 LINE",
"279 1 LINE SMOOTH",
"267 1 OFFCURVE",
"261 6 OFFCURVE",
"261 17 CURVE SMOOTH",
"261 53 OFFCURVE",
"297 95 OFFCURVE",
"350 155 CURVE SMOOTH",
"370 178 OFFCURVE",
"380 197 OFFCURVE",
"380 210 CURVE"
);
}
);
width = 400;
}
);
unicode = 0075;
},
{
glyphname = v;
layers = (
{
layerId = "0B97357B-A10C-4E6B-A805-18EA08AD0246";
name = Regular;
paths = (
{
closed = 1;
nodes = (
"301 316 LINE SMOOTH",
"287 302 OFFCURVE",
"265 278 OFFCURVE",
"236 244 CURVE SMOOTH",
"183 181 OFFCURVE",
"148 141 OFFCURVE",
"131 124 CURVE",
"106 274 LINE SMOOTH",
"93 350 OFFCURVE",
"76 388 OFFCURVE",
"54 388 CURVE SMOOTH",
"30 388 OFFCURVE",
"15 363 OFFCURVE",
"15 334 CURVE SMOOTH",
"15 314 OFFCURVE",
"22 284 OFFCURVE",
"36 245 CURVE SMOOTH",
"50 205 OFFCURVE",
"57 175 OFFCURVE",
"56 155 CURVE SMOOTH",
"54 115 LINE",
"52 76 LINE",
"52 21 OFFCURVE",
"69 -7 OFFCURVE",
"103 -7 CURVE SMOOTH",
"139 -7 OFFCURVE",
"168 20 OFFCURVE",
"190 73 CURVE SMOOTH",
"226 161 LINE SMOOTH",
"235 185 OFFCURVE",
"241 198 OFFCURVE",
"244 201 CURVE",
"386 327 LINE SMOOTH",
"449 382 OFFCURVE",
"480 432 OFFCURVE",
"480 479 CURVE",
"461 479 LINE"
);
}
);
width = 386;
}
);
unicode = 0076;
},
{
glyphname = x;
layers = (
{
layerId = "0B97357B-A10C-4E6B-A805-18EA08AD0246";
name = Regular;
paths = (
{
closed = 1;
nodes = (
"501 169 OFFCURVE",
"427 112 OFFCURVE",
"352 81 CURVE SMOOTH",
"314 65 OFFCURVE",
"288 57 OFFCURVE",
"275 57 CURVE SMOOTH",
"216 57 OFFCURVE",
"169 62 OFFCURVE",
"135 73 CURVE SMOOTH",
"95 87 LINE",
"56 108 OFFCURVE",
"36 138 OFFCURVE",
"36 175 CURVE SMOOTH",
"36 248 OFFCURVE",
"94 326 OFFCURVE",
"176 373 CURVE SMOOTH",
"217 396 OFFCURVE",
"258 408 OFFCURVE",
"299 408 CURVE SMOOTH",
"328 408 OFFCURVE",
"353 405 OFFCURVE",
"375 398 CURVE",
"403 385 LINE",
"460 353 OFFCURVE",
"501 301 OFFCURVE",
"501 244 CURVE SMOOTH"
);
},
{
closed = 1;
nodes = (
"312 119 OFFCURVE",
"359 152 OFFCURVE",
"387 193 CURVE SMOOTH",
"401 213 OFFCURVE",
"408 231 OFFCURVE",
"408 248 CURVE SMOOTH",
"408 297 OFFCURVE",
"362 330 OFFCURVE",
"294 330 CURVE SMOOTH",
"250 330 OFFCURVE",
"204 297 OFFCURVE",
"176 255 CURVE SMOOTH",
"162 234 OFFCURVE",
"155 215 OFFCURVE",
"155 198 CURVE SMOOTH",
"155 149 OFFCURVE",
"200 119 OFFCURVE",
"269 119 CURVE SMOOTH"
);
}
);
width = 574;
}
);
unicode = 0078;
},
{
glyphname = y;
lastChange = "2015-06-27 03:46:02 +0000";
layers = (
{
layerId = "0B97357B-A10C-4E6B-A805-18EA08AD0246";
name = Regular;
paths = (
{
closed = 1;
nodes = (
"299 716 LINE",
"287 705 LINE",
"276 684 LINE",
"280 662 LINE",
"483 256 LINE",
"131 174 LINE",
"287 563 LINE",
"289 574 LINE",
"287 582 LINE",
"281 593 LINE",
"273 596 LINE",
"265 596 LINE",
"251 593 LINE",
"226 582 LINE",
"207 569 LINE",
"191 555 LINE",
"179 530 LINE",
"38 240 LINE",
"-83 0 LINE",
"617 156 LINE",
"515 390 LINE",
"362 705 LINE",
"330 721 LINE"
);
}
);
width = 530;
}
);
unicode = 0079;
},
{
glyphname = z;
layers = (
{
layerId = "0B97357B-A10C-4E6B-A805-18EA08AD0246";
name = Regular;
paths = (
{
closed = 1;
nodes = (
"577 309 OFFCURVE",
"530 359 OFFCURVE",
"461 392 CURVE",
"476 403 OFFCURVE",
"496 416 OFFCURVE",
"522 431 CURVE SMOOTH",
"529 435 OFFCURVE",
"553 449 OFFCURVE",
"554 453 CURVE",
"555 460 OFFCURVE",
"570 467 OFFCURVE",
"587 475 CURVE SMOOTH",
"596 479 OFFCURVE",
"598 481 OFFCURVE",
"594 482 CURVE",
"519 478 OFFCURVE",
"492 463 OFFCURVE",
"428 411 CURVE",
"405 418 OFFCURVE",
"375 422 OFFCURVE",
"337 422 CURVE SMOOTH",
"238 422 OFFCURVE",
"134 367 OFFCURVE",
"72 291 CURVE SMOOTH",
"41 252 OFFCURVE",
"25 214 OFFCURVE",
"25 175 CURVE SMOOTH",
"25 136 OFFCURVE",
"49 104 OFFCURVE",
"94 83 CURVE",
"57 60 OFFCURVE",
"34 39 OFFCURVE",
"25 20 CURVE",
"20 1 LINE",
"50 6 LINE",
"73 10 LINE",
"76 11 OFFCURVE",
"86 19 OFFCURVE",
"103 34 CURVE",
"143 66 LINE",
"188 55 OFFCURVE",
"243 50 OFFCURVE",
"309 50 CURVE SMOOTH",
"338 50 OFFCURVE",
"448 85 OFFCURVE",
"522 145 CURVE SMOOTH",
"559 174 OFFCURVE",
"577 209 OFFCURVE",
"577 248 CURVE SMOOTH"
);
},
{
closed = 1;
nodes = (
"139 133 LINE",
"123 141 OFFCURVE",
"117 146 OFFCURVE",
"110 155 CURVE SMOOTH",
"107 159 OFFCURVE",
"102 163 OFFCURVE",
"97 168 CURVE",
"97 232 OFFCURVE",
"143 293 OFFCURVE",
"214 328 CURVE SMOOTH",
"249 345 OFFCURVE",
"286 354 OFFCURVE",
"324 354 CURVE",
"341 353 LINE",
"357 353 LINE",
"161 150 LINE"
);
},
{
closed = 1;
nodes = (
"511 191 OFFCURVE",
"447 142 OFFCURVE",
"376 115 CURVE SMOOTH",
"340 102 OFFCURVE",
"311 95 OFFCURVE",
"290 95 CURVE SMOOTH",
"254 95 OFFCURVE",
"210 100 OFFCURVE",
"185 108 CURVE",
"413 346 LINE",
"478 329 OFFCURVE",
"511 299 OFFCURVE",
"511 254 CURVE SMOOTH"
);
}
);
width = 600;
}
);
unicode = 007A;
},
{
glyphname = braceleft;
layers = (
{
layerId = "0B97357B-A10C-4E6B-A805-18EA08AD0246";
name = Regular;
paths = (
{
closed = 1;
nodes = (
"581 40 OFFCURVE",
"556 51 OFFCURVE",
"517 50 CURVE SMOOTH",
"458 48 LINE",
"446 47 OFFCURVE",
"426 47 OFFCURVE",
"398 47 CURVE SMOOTH",
"267 47 OFFCURVE",
"191 68 OFFCURVE",
"172 109 CURVE",
"175 118 OFFCURVE",
"201 149 OFFCURVE",
"249 201 CURVE SMOOTH",
"339 297 LINE",
"319 325 OFFCURVE",
"305 343 OFFCURVE",
"298 351 CURVE SMOOTH",
"291 359 OFFCURVE",
"282 366 OFFCURVE",
"272 373 CURVE",
"305 390 LINE SMOOTH",
"336 405 OFFCURVE",
"357 417 OFFCURVE",
"370 425 CURVE SMOOTH",
"395 440 OFFCURVE",
"408 454 OFFCURVE",
"408 475 CURVE SMOOTH",
"408 502 OFFCURVE",
"392 522 OFFCURVE",
"361 535 CURVE",
"281 557 LINE",
"244 570 OFFCURVE",
"225 586 OFFCURVE",
"225 603 CURVE SMOOTH",
"225 643 OFFCURVE",
"285 689 OFFCURVE",
"329 713 CURVE SMOOTH",
"350 725 OFFCURVE",
"381 741 OFFCURVE",
"422 761 CURVE",
"469 786 OFFCURVE",
"495 811 OFFCURVE",
"499 834 CURVE",
"470 843 LINE",
"426 827 OFFCURVE",
"386 809 OFFCURVE",
"349 790 CURVE SMOOTH",
"221 724 OFFCURVE",
"157 657 OFFCURVE",
"157 590 CURVE SMOOTH",
"157 557 OFFCURVE",
"177 535 OFFCURVE",
"213 519 CURVE SMOOTH",
"230 511 OFFCURVE",
"257 501 OFFCURVE",
"292 488 CURVE",
"277 456 OFFCURVE",
"240 430 OFFCURVE",
"181 409 CURVE SMOOTH",
"130 391 OFFCURVE",
"105 370 OFFCURVE",
"105 346 CURVE SMOOTH",
"105 302 OFFCURVE",
"128 281 OFFCURVE",
"174 284 CURVE SMOOTH",
"225 287 LINE",
"222 278 OFFCURVE",
"188 242 OFFCURVE",
"121 177 CURVE SMOOTH",
"96 152 OFFCURVE",
"83 128 OFFCURVE",
"83 105 CURVE SMOOTH",
"83 62 OFFCURVE",
"111 34 OFFCURVE",
"166 21 CURVE SMOOTH",
"221 7 OFFCURVE",
"299 0 OFFCURVE",
"401 0 CURVE SMOOTH",
"472 0 OFFCURVE",
"536 6 OFFCURVE",
"593 18 CURVE"
);
}
);
width = 602;
}
);
unicode = 007B;
},
{
glyphname = bar;
layers = (
{
layerId = "0B97357B-A10C-4E6B-A805-18EA08AD0246";
name = Regular;
paths = (
{
closed = 1;
nodes = (
"308 600 OFFCURVE",
"302 612 OFFCURVE",
"291 623 CURVE",
"254 604 OFFCURVE",
"235 546 OFFCURVE",
"220 453 CURVE SMOOTH",
"193 296 OFFCURVE",
"158 177 OFFCURVE",
"113 96 CURVE",
"87 63 OFFCURVE",
"74 43 OFFCURVE",
"74 36 CURVE SMOOTH",
"74 33 OFFCURVE",
"76 27 OFFCURVE",
"80 18 CURVE SMOOTH",
"84 9 LINE",
"103 9 LINE",
"120 -14 OFFCURVE",
"131 -27 OFFCURVE",
"137 -30 CURVE",
"168 -22 OFFCURVE",
"184 8 OFFCURVE",
"184 60 CURVE SMOOTH",
"184 111 OFFCURVE",
"194 168 OFFCURVE",
"215 231 CURVE SMOOTH",
"277 423 LINE SMOOTH",
"298 486 OFFCURVE",
"308 541 OFFCURVE",
"308 588 CURVE SMOOTH"
);
}
);
width = 310;
}
);
unicode = 007C;
},
{
glyphname = braceright;
layers = (
{
layerId = "0B97357B-A10C-4E6B-A805-18EA08AD0246";
name = Regular;
paths = (
{
closed = 1;
nodes = (
"574 774 OFFCURVE",
"497 817 OFFCURVE",
"401 841 CURVE SMOOTH",
"353 852 OFFCURVE",
"309 858 OFFCURVE",
"270 858 CURVE SMOOTH",
"251 858 OFFCURVE",
"234 843 OFFCURVE",
"234 824 CURVE SMOOTH",
"234 797 OFFCURVE",
"295 782 OFFCURVE",
"332 778 CURVE SMOOTH",
"351 776 OFFCURVE",
"386 773 OFFCURVE",
"438 768 CURVE",
"486 761 OFFCURVE",
"510 743 OFFCURVE",
"510 713 CURVE SMOOTH",
"510 679 OFFCURVE",
"488 645 OFFCURVE",
"444 612 CURVE",
"319 538 LINE SMOOTH",
"277 513 OFFCURVE",
"256 491 OFFCURVE",
"256 472 CURVE SMOOTH",
"256 438 OFFCURVE",
"277 411 OFFCURVE",
"319 392 CURVE",
"257 377 OFFCURVE",
"226 356 OFFCURVE",
"226 328 CURVE SMOOTH",
"226 307 OFFCURVE",
"242 288 OFFCURVE",
"275 272 CURVE",
"301 263 LINE SMOOTH",
"348 246 OFFCURVE",
"379 235 OFFCURVE",
"394 228 CURVE SMOOTH",
"408 221 OFFCURVE",
"415 212 OFFCURVE",
"415 201 CURVE SMOOTH",
"415 141 OFFCURVE",
"308 96 OFFCURVE",
"284 84 CURVE",
"177 25 OFFCURVE",
"141 1 OFFCURVE",
"122 -46 CURVE",
"140 -48 OFFCURVE",
"150 -49 OFFCURVE",
"151 -50 CURVE",
"176 -50 OFFCURVE",
"224 -28 OFFCURVE",
"295 17 CURVE SMOOTH",
"439 108 OFFCURVE",
"511 174 OFFCURVE",
"511 213 CURVE SMOOTH",
"511 228 OFFCURVE",
"499 245 OFFCURVE",
"474 264 CURVE SMOOTH",
"449 283 OFFCURVE",
"414 306 OFFCURVE",
"367 335 CURVE",
"426 354 OFFCURVE",
"467 369 OFFCURVE",
"492 382 CURVE SMOOTH",
"516 395 OFFCURVE",
"528 410 OFFCURVE",
"528 428 CURVE SMOOTH",
"528 451 OFFCURVE",
"509 461 OFFCURVE",
"471 460 CURVE SMOOTH",
"466 460 OFFCURVE",
"462 460 OFFCURVE",
"459 459 CURVE",
"427 459 LINE SMOOTH",
"398 459 OFFCURVE",
"375 462 OFFCURVE",
"357 469 CURVE",
"366 482 OFFCURVE",
"410 519 OFFCURVE",
"489 580 CURVE SMOOTH",
"546 624 OFFCURVE",
"574 670 OFFCURVE",
"574 719 CURVE SMOOTH"
);
}
);
width = 574;
}
);
unicode = 007D;
},
{
glyphname = asciitilde;
layers = (
{
layerId = "0B97357B-A10C-4E6B-A805-18EA08AD0246";
name = Regular;
paths = (
{
closed = 1;
nodes = (
"631 289 OFFCURVE",
"624 303 OFFCURVE",
"610 303 CURVE SMOOTH",
"603 303 OFFCURVE",
"585 290 OFFCURVE",
"554 263 CURVE SMOOTH",
"523 236 OFFCURVE",
"498 222 OFFCURVE",
"479 222 CURVE SMOOTH",
"442 222 OFFCURVE",
"421 236 OFFCURVE",
"406 261 CURVE",
"398 273 OFFCURVE",
"388 291 OFFCURVE",
"377 316 CURVE",
"366 338 OFFCURVE",
"355 349 OFFCURVE",
"342 349 CURVE SMOOTH",
"325 349 OFFCURVE",
"281 334 OFFCURVE",
"211 305 CURVE",
"94 284 LINE",
"87 281 OFFCURVE",
"83 272 OFFCURVE",
"83 259 CURVE SMOOTH",
"83 226 OFFCURVE",
"96 209 OFFCURVE",
"121 209 CURVE SMOOTH",
"136 209 OFFCURVE",
"166 220 OFFCURVE",
"210 241 CURVE SMOOTH",
"254 262 OFFCURVE",
"283 273 OFFCURVE",
"297 273 CURVE SMOOTH",
"317 273 OFFCURVE",
"331 261 OFFCURVE",
"338 238 CURVE SMOOTH",
"353 189 OFFCURVE",
"391 164 OFFCURVE",
"450 164 CURVE SMOOTH",
"505 164 OFFCURVE",
"566 180 OFFCURVE",
"603 209 CURVE SMOOTH",
"622 224 OFFCURVE",
"631 241 OFFCURVE",
"631 262 CURVE SMOOTH"
);
}
);
width = 631;
}
);
unicode = 007E;
},
{
glyphname = florin;
layers = (
{
layerId = "0B97357B-A10C-4E6B-A805-18EA08AD0246";
name = Regular;
paths = (
{
closed = 1;
nodes = (
"854 505 OFFCURVE",
"868 544 OFFCURVE",
"868 581 CURVE SMOOTH",
"868 644 OFFCURVE",
"832 675 OFFCURVE",
"759 675 CURVE SMOOTH",
"664 675 OFFCURVE",
"558 600 OFFCURVE",
"443 450 CURVE SMOOTH",
"430 433 OFFCURVE",
"389 375 OFFCURVE",
"320 277 CURVE SMOOTH",
"297 244 OFFCURVE",
"261 221 OFFCURVE",
"213 209 CURVE",
"146 199 LINE SMOOTH",
"113 194 OFFCURVE",
"90 191 OFFCURVE",
"78 188 CURVE SMOOTH",
"53 182 OFFCURVE",
"42 170 OFFCURVE",
"37 138 CURVE",
"43 109 LINE",
"54 102 OFFCURVE",
"65 98 OFFCURVE",
"75 98 CURVE SMOOTH",
"86 98 OFFCURVE",
"108 106 OFFCURVE",
"142 123 CURVE SMOOTH",
"159 131 OFFCURVE",
"172 135 OFFCURVE",
"180 134 CURVE",
"233 131 LINE",
"227 124 OFFCURVE",
"206 75 OFFCURVE",
"170 -16 CURVE SMOOTH",
"143 -85 OFFCURVE",
"117 -119 OFFCURVE",
"90 -119 CURVE SMOOTH",
"68 -119 OFFCURVE",
"45 -109 OFFCURVE",
"22 -90 CURVE",
"34 -138 OFFCURVE",
"48 -169 OFFCURVE",
"80 -169 CURVE SMOOTH",
"141 -169 OFFCURVE",
"200 -69 OFFCURVE",
"260 55 CURVE",
"266 69 OFFCURVE",
"270 78 OFFCURVE",
"273 82 CURVE",
"304 141 OFFCURVE",
"335 170 OFFCURVE",
"366 170 CURVE",
"387 165 OFFCURVE",
"426 157 OFFCURVE",
"484 145 CURVE",
"485 152 OFFCURVE",
"486 159 OFFCURVE",
"486 167 CURVE SMOOTH",
"486 193 OFFCURVE",
"473 213 OFFCURVE",
"448 226 CURVE",
"380 251 LINE",
"478 412 LINE SMOOTH",
"560 543 OFFCURVE",
"648 609 OFFCURVE",
"742 609 CURVE SMOOTH",
"781 609 OFFCURVE",
"809 577 OFFCURVE",
"809 537 CURVE",
"807 517 LINE",
"786 466 OFFCURVE",
"770 428 OFFCURVE",
"760 403 CURVE",
"785 418 OFFCURVE",
"807 439 OFFCURVE",
"827 466 CURVE SMOOTH"
);
}
);
width = 421;
}
);
unicode = 0192;
},
{
glyphname = guillemotleft;
layers = (
{
layerId = "0B97357B-A10C-4E6B-A805-18EA08AD0246";
name = Regular;
paths = (
{
closed = 1;
nodes = (
"902 669 LINE",
"893 672 OFFCURVE",
"886 674 OFFCURVE",
"880 674 CURVE",
"769 587 LINE SMOOTH",
"557 421 OFFCURVE",
"437 338 OFFCURVE",
"410 338 CURVE SMOOTH",
"370 338 OFFCURVE",
"336 322 OFFCURVE",
"336 291 CURVE SMOOTH",
"336 271 LINE",
"381 259 OFFCURVE",
"394 250 OFFCURVE",
"401 214 CURVE",
"434 233 OFFCURVE",
"456 242 OFFCURVE",
"467 242 CURVE SMOOTH",
"527 242 OFFCURVE",
"559 232 OFFCURVE",
"593 208 CURVE SMOOTH",
"610 196 OFFCURVE",
"636 175 OFFCURVE",
"672 145 CURVE SMOOTH",
"691 129 LINE SMOOTH",
"722 103 OFFCURVE",
"752 90 OFFCURVE",
"779 90 CURVE",
"779 123 LINE SMOOTH",
"779 177 OFFCURVE",
"726 222 OFFCURVE",
"619 258 CURVE SMOOTH",
"552 281 OFFCURVE",
"511 298 OFFCURVE",
"496 309 CURVE",
"636 401 LINE SMOOTH",
"819 522 OFFCURVE",
"911 604 OFFCURVE",
"911 645 CURVE"
);
},
{
closed = 1;
nodes = (
"593 627 LINE",
"584 630 OFFCURVE",
"577 632 OFFCURVE",
"571 632 CURVE",
"460 545 LINE SMOOTH",
"248 379 OFFCURVE",
"128 296 OFFCURVE",
"101 296 CURVE SMOOTH",
"61 296 OFFCURVE",
"27 280 OFFCURVE",
"27 249 CURVE SMOOTH",
"27 229 LINE",
"72 217 OFFCURVE",
"85 208 OFFCURVE",
"92 172 CURVE",
"125 191 OFFCURVE",
"147 200 OFFCURVE",
"158 200 CURVE SMOOTH",
"218 200 OFFCURVE",
"250 190 OFFCURVE",
"284 166 CURVE SMOOTH",
"301 154 OFFCURVE",
"327 133 OFFCURVE",
"363 103 CURVE SMOOTH",
"382 87 LINE SMOOTH",
"413 61 OFFCURVE",
"442 48 OFFCURVE",
"470 48 CURVE",
"470 81 LINE SMOOTH",
"470 135 OFFCURVE",
"417 180 OFFCURVE",
"310 216 CURVE SMOOTH",
"243 239 OFFCURVE",
"202 256 OFFCURVE",
"187 267 CURVE",
"327 359 LINE SMOOTH",
"510 480 OFFCURVE",
"602 562 OFFCURVE",
"602 603 CURVE"
);
}
);
width = 864;
}
);
unicode = 00AB;
},
{
glyphname = guillemotright;
layers = (
{
layerId = "0B97357B-A10C-4E6B-A805-18EA08AD0246";
name = Regular;
paths = (
{
closed = 1;
nodes = (
"526 500 OFFCURVE",
"429 540 OFFCURVE",
"326 620 CURVE SMOOTH",
"265 668 OFFCURVE",
"223 701 OFFCURVE",
"201 720 CURVE",
"175 701 OFFCURVE",
"162 683 OFFCURVE",
"162 664 CURVE SMOOTH",
"162 641 OFFCURVE",
"180 619 OFFCURVE",
"217 598 CURVE SMOOTH",
"254 576 OFFCURVE",
"299 553 OFFCURVE",
"354 530 CURVE",
"362 527 OFFCURVE",
"369 524 OFFCURVE",
"376 521 CURVE SMOOTH",
"428 498 OFFCURVE",
"458 474 OFFCURVE",
"465 450 CURVE",
"452 394 OFFCURVE",
"318 274 OFFCURVE",
"179 182 CURVE SMOOTH",
"110 135 OFFCURVE",
"57 110 OFFCURVE",
"21 106 CURVE",
"21 88 LINE SMOOTH",
"21 72 OFFCURVE",
"22 59 OFFCURVE",
"25 49 CURVE",
"39 29 OFFCURVE",
"57 19 OFFCURVE",
"80 19 CURVE SMOOTH",
"95 19 OFFCURVE",
"107 26 OFFCURVE",
"116 39 CURVE SMOOTH",
"142 76 OFFCURVE",
"194 122 OFFCURVE",
"271 176 CURVE SMOOTH",
"482 323 LINE SMOOTH",
"555 374 OFFCURVE",
"594 405 OFFCURVE",
"601 417 CURVE",
"610 436 OFFCURVE",
"615 463 OFFCURVE",
"615 500 CURVE"
);
},
{
closed = 1;
nodes = (
"838 500 OFFCURVE",
"741 540 OFFCURVE",
"638 620 CURVE SMOOTH",
"577 668 OFFCURVE",
"535 701 OFFCURVE",
"513 720 CURVE",
"487 701 OFFCURVE",
"474 683 OFFCURVE",
"474 664 CURVE SMOOTH",
"474 641 OFFCURVE",
"492 619 OFFCURVE",
"529 598 CURVE SMOOTH",
"566 576 OFFCURVE",
"611 553 OFFCURVE",
"666 530 CURVE",
"674 527 OFFCURVE",
"681 524 OFFCURVE",
"688 521 CURVE SMOOTH",
"740 498 OFFCURVE",
"770 474 OFFCURVE",
"777 450 CURVE",
"764 394 OFFCURVE",
"630 274 OFFCURVE",
"491 182 CURVE SMOOTH",
"422 135 OFFCURVE",
"369 110 OFFCURVE",
"333 106 CURVE",
"333 88 LINE SMOOTH",
"333 72 OFFCURVE",
"334 59 OFFCURVE",
"337 49 CURVE",
"351 29 OFFCURVE",
"369 19 OFFCURVE",
"392 19 CURVE SMOOTH",
"407 19 OFFCURVE",
"419 26 OFFCURVE",
"428 39 CURVE SMOOTH",
"454 76 OFFCURVE",
"506 122 OFFCURVE",
"583 176 CURVE SMOOTH",
"794 323 LINE SMOOTH",
"867 374 OFFCURVE",
"906 405 OFFCURVE",
"913 417 CURVE",
"922 436 OFFCURVE",
"927 463 OFFCURVE",
"927 500 CURVE"
);
}
);
width = 872;
}
);
unicode = 00BB;
},
{
glyphname = ellipsis;
layers = (
{
layerId = "0B97357B-A10C-4E6B-A805-18EA08AD0246";
name = Regular;
paths = (
{
closed = 1;
nodes = (
"151 73 OFFCURVE",
"129 77 OFFCURVE",
"108 77 CURVE SMOOTH",
"71 77 OFFCURVE",
"52 65 OFFCURVE",
"52 41 CURVE SMOOTH",
"52 20 OFFCURVE",
"67 -13 OFFCURVE",
"80 -13 CURVE SMOOTH",
"83 -13 OFFCURVE",
"95 -6 OFFCURVE",
"116 9 CURVE",
"117 10 OFFCURVE",
"126 12 OFFCURVE",
"145 15 CURVE SMOOTH",
"161 18 OFFCURVE",
"166 34 OFFCURVE",
"170 50 CURVE",
"171 58 OFFCURVE",
"172 63 OFFCURVE",
"173 66 CURVE"
);
},
{
closed = 1;
nodes = (
"361 73 OFFCURVE",
"339 77 OFFCURVE",
"318 77 CURVE SMOOTH",
"281 77 OFFCURVE",
"262 65 OFFCURVE",
"262 41 CURVE SMOOTH",
"262 20 OFFCURVE",
"277 -13 OFFCURVE",
"290 -13 CURVE SMOOTH",
"293 -13 OFFCURVE",
"305 -6 OFFCURVE",
"326 9 CURVE",
"327 10 OFFCURVE",
"336 12 OFFCURVE",
"355 15 CURVE SMOOTH",
"371 18 OFFCURVE",
"376 34 OFFCURVE",
"380 50 CURVE",
"381 58 OFFCURVE",
"382 63 OFFCURVE",
"383 66 CURVE"
);
},
{
closed = 1;
nodes = (
"581 68 OFFCURVE",
"559 72 OFFCURVE",
"538 72 CURVE SMOOTH",
"501 72 OFFCURVE",
"482 60 OFFCURVE",
"482 36 CURVE SMOOTH",
"482 15 OFFCURVE",
"497 -18 OFFCURVE",
"510 -18 CURVE SMOOTH",
"513 -18 OFFCURVE",
"525 -11 OFFCURVE",
"546 4 CURVE",
"547 5 OFFCURVE",
"556 7 OFFCURVE",
"575 10 CURVE SMOOTH",
"591 13 OFFCURVE",
"596 29 OFFCURVE",
"600 45 CURVE",
"601 53 OFFCURVE",
"602 58 OFFCURVE",
"603 61 CURVE"
);
}
);
width = 620;
}
);
unicode = 2026;
},
{
glyphname = emdash;
layers = (
{
layerId = "0B97357B-A10C-4E6B-A805-18EA08AD0246";
name = Regular;
paths = (
{
closed = 1;
nodes = (
"708 304 OFFCURVE",
"695 316 OFFCURVE",
"668 316 CURVE SMOOTH",
"660 316 OFFCURVE",
"614 312 OFFCURVE",
"530 305 CURVE SMOOTH",
"300 284 LINE SMOOTH",
"230 279 OFFCURVE",
"177 275 OFFCURVE",
"140 274 CURVE",
"65 268 LINE",
"52 259 OFFCURVE",
"46 243 OFFCURVE",
"46 220 CURVE",
"37 210 LINE",
"37 201 LINE",
"55 196 OFFCURVE",
"74 194 OFFCURVE",
"95 194 CURVE SMOOTH",
"116 194 OFFCURVE",
"163 199 OFFCURVE",
"236 208 CURVE SMOOTH",
"449 236 LINE SMOOTH",
"512 245 OFFCURVE",
"560 249 OFFCURVE",
"593 249 CURVE SMOOTH",
"602 249 OFFCURVE",
"619 244 OFFCURVE",
"645 233 CURVE SMOOTH",
"656 228 OFFCURVE",
"666 226 OFFCURVE",
"675 226 CURVE SMOOTH",
"697 226 OFFCURVE",
"708 244 OFFCURVE",
"708 280 CURVE SMOOTH"
);
}
);
width = 727;
}
);
unicode = 2014;
},
{
glyphname = divide;
layers = (
{
layerId = "0B97357B-A10C-4E6B-A805-18EA08AD0246";
name = Regular;
paths = (
{
closed = 1;
nodes = (
"331 418 OFFCURVE",
"309 422 OFFCURVE",
"288 422 CURVE SMOOTH",
"251 422 OFFCURVE",
"232 410 OFFCURVE",
"232 386 CURVE SMOOTH",
"232 365 OFFCURVE",
"247 331 OFFCURVE",
"260 331 CURVE SMOOTH",
"263 331 OFFCURVE",
"275 339 OFFCURVE",
"296 354 CURVE",
"297 355 OFFCURVE",
"306 357 OFFCURVE",
"325 360 CURVE SMOOTH",
"341 363 OFFCURVE",
"346 379 OFFCURVE",
"350 395 CURVE",
"351 403 OFFCURVE",
"352 408 OFFCURVE",
"353 411 CURVE"
);
},
{
closed = 1;
nodes = (
"501 293 OFFCURVE",
"488 305 OFFCURVE",
"461 305 CURVE SMOOTH",
"442 305 OFFCURVE",
"380 298 OFFCURVE",
"277 283 CURVE",
"239 280 LINE SMOOTH",
"211 277 OFFCURVE",
"185 274 OFFCURVE",
"160 273 CURVE SMOOTH",
"122 271 LINE SMOOTH",
"103 270 OFFCURVE",
"91 269 OFFCURVE",
"85 268 CURVE",
"72 259 OFFCURVE",
"66 243 OFFCURVE",
"66 220 CURVE",
"57 210 LINE",
"57 201 LINE",
"75 196 OFFCURVE",
"94 194 OFFCURVE",
"115 194 CURVE SMOOTH",
"147 194 OFFCURVE",
"192 201 OFFCURVE",
"251 216 CURVE SMOOTH",
"310 231 OFFCURVE",
"355 238 OFFCURVE",
"387 238 CURVE SMOOTH",
"395 238 OFFCURVE",
"412 233 OFFCURVE",
"438 222 CURVE SMOOTH",
"449 217 OFFCURVE",
"459 215 OFFCURVE",
"468 215 CURVE SMOOTH",
"490 215 OFFCURVE",
"501 233 OFFCURVE",
"501 269 CURVE SMOOTH"
);
},
{
closed = 1;
nodes = (
"330 170 OFFCURVE",
"308 174 OFFCURVE",
"287 174 CURVE SMOOTH",
"250 174 OFFCURVE",
"231 162 OFFCURVE",
"231 138 CURVE SMOOTH",
"231 117 OFFCURVE",
"246 83 OFFCURVE",
"259 83 CURVE SMOOTH",
"262 83 OFFCURVE",
"274 91 OFFCURVE",
"295 106 CURVE",
"296 107 OFFCURVE",
"305 109 OFFCURVE",
"324 112 CURVE SMOOTH",
"340 115 OFFCURVE",
"345 131 OFFCURVE",
"349 147 CURVE",
"350 155 OFFCURVE",
"351 160 OFFCURVE",
"352 163 CURVE"
);
}
);
width = 555;
}
);
unicode = 00F7;
},
{
glyphname = guilsinglleft;
layers = (
{
layerId = "0B97357B-A10C-4E6B-A805-18EA08AD0246";
name = Regular;
paths = (
{
closed = 1;
nodes = (
"642 707 LINE",
"633 710 OFFCURVE",
"626 712 OFFCURVE",
"620 712 CURVE",
"509 625 LINE SMOOTH",
"297 459 OFFCURVE",
"177 376 OFFCURVE",
"150 376 CURVE SMOOTH",
"110 376 OFFCURVE",
"76 360 OFFCURVE",
"76 329 CURVE SMOOTH",
"76 309 LINE",
"121 297 OFFCURVE",
"134 288 OFFCURVE",
"141 252 CURVE",
"174 271 OFFCURVE",
"196 280 OFFCURVE",
"207 280 CURVE SMOOTH",
"267 280 OFFCURVE",
"299 270 OFFCURVE",
"333 246 CURVE SMOOTH",
"350 234 OFFCURVE",
"376 213 OFFCURVE",
"412 183 CURVE SMOOTH",
"431 167 LINE SMOOTH",
"462 141 OFFCURVE",
"492 128 OFFCURVE",
"519 128 CURVE",
"519 161 LINE SMOOTH",
"519 215 OFFCURVE",
"466 260 OFFCURVE",
"359 296 CURVE SMOOTH",
"292 319 OFFCURVE",
"251 336 OFFCURVE",
"236 347 CURVE",
"376 439 LINE SMOOTH",
"559 560 OFFCURVE",
"651 642 OFFCURVE",
"651 683 CURVE"
);
}
);
width = 697;
}
);
unicode = 2039;
},
{
glyphname = guilsinglright;
layers = (
{
layerId = "0B97357B-A10C-4E6B-A805-18EA08AD0246";
name = Regular;
paths = (
{
closed = 1;
nodes = (
"614 490 OFFCURVE",
"517 530 OFFCURVE",
"414 610 CURVE SMOOTH",
"353 658 OFFCURVE",
"311 691 OFFCURVE",
"289 710 CURVE",
"263 691 OFFCURVE",
"250 673 OFFCURVE",
"250 654 CURVE SMOOTH",
"250 631 OFFCURVE",
"268 609 OFFCURVE",
"305 588 CURVE SMOOTH",
"342 566 OFFCURVE",
"387 543 OFFCURVE",
"442 520 CURVE",
"450 517 OFFCURVE",
"457 514 OFFCURVE",
"464 511 CURVE SMOOTH",
"516 488 OFFCURVE",
"546 464 OFFCURVE",
"553 440 CURVE",
"540 384 OFFCURVE",
"406 264 OFFCURVE",
"267 172 CURVE SMOOTH",
"198 125 OFFCURVE",
"145 100 OFFCURVE",
"109 96 CURVE",
"109 78 LINE SMOOTH",
"109 62 OFFCURVE",
"110 49 OFFCURVE",
"113 39 CURVE",
"127 19 OFFCURVE",
"145 9 OFFCURVE",
"168 9 CURVE SMOOTH",
"183 9 OFFCURVE",
"195 16 OFFCURVE",
"204 29 CURVE SMOOTH",
"230 66 OFFCURVE",
"282 112 OFFCURVE",
"359 166 CURVE SMOOTH",
"570 313 LINE SMOOTH",
"643 364 OFFCURVE",
"682 395 OFFCURVE",
"689 407 CURVE",
"698 426 OFFCURVE",
"703 453 OFFCURVE",
"703 490 CURVE"
);
}
);
width = 753;
}
);
unicode = 203A;
},
{
glyphname = periodcentered;
layers = (
{
layerId = "0B97357B-A10C-4E6B-A805-18EA08AD0246";
name = Regular;
paths = (
{
closed = 1;
nodes = (
"161 415 OFFCURVE",
"139 419 OFFCURVE",
"118 419 CURVE SMOOTH",
"81 419 OFFCURVE",
"62 407 OFFCURVE",
"62 383 CURVE SMOOTH",
"62 362 OFFCURVE",
"77 328 OFFCURVE",
"90 328 CURVE SMOOTH",
"93 328 OFFCURVE",
"105 336 OFFCURVE",
"126 351 CURVE",
"127 352 OFFCURVE",
"136 354 OFFCURVE",
"155 357 CURVE SMOOTH",
"171 360 OFFCURVE",
"176 376 OFFCURVE",
"180 392 CURVE",
"181 400 OFFCURVE",
"182 405 OFFCURVE",
"183 408 CURVE"
);
}
);
width = 240;
}
);
unicode = 00B7;
},
{
glyphname = daggerdbl;
layers = (
{
layerId = "0B97357B-A10C-4E6B-A805-18EA08AD0246";
name = Regular;
paths = (
{
closed = 1;
nodes = (
"470 474 OFFCURVE",
"458 485 OFFCURVE",
"434 485 CURVE",
"323 474 LINE",
"333 520 OFFCURVE",
"338 558 OFFCURVE",
"338 588 CURVE SMOOTH",
"338 600 OFFCURVE",
"332 612 OFFCURVE",
"321 623 CURVE",
"285 606 OFFCURVE",
"269 557 OFFCURVE",
"252 464 CURVE",
"210 458 OFFCURVE",
"182 455 OFFCURVE",
"168 455 CURVE SMOOTH",
"163 455 LINE SMOOTH",
"143 455 OFFCURVE",
"114 453 OFFCURVE",
"102 450 CURVE SMOOTH",
"95 448 OFFCURVE",
"91 444 OFFCURVE",
"89 438 CURVE",
"86 432 OFFCURVE",
"85 422 OFFCURVE",
"85 407 CURVE",
"77 398 LINE",
"77 390 LINE",
"90 386 OFFCURVE",
"107 384 OFFCURVE",
"128 384 CURVE SMOOTH",
"151 384 OFFCURVE",
"188 390 OFFCURVE",
"241 402 CURVE",
"226 334 LINE",
"183 329 LINE SMOOTH",
"162 326 OFFCURVE",
"147 325 OFFCURVE",
"138 325 CURVE SMOOTH",
"133 325 LINE SMOOTH",
"113 325 OFFCURVE",
"84 323 OFFCURVE",
"72 320 CURVE SMOOTH",
"65 318 OFFCURVE",
"61 314 OFFCURVE",
"59 308 CURVE",
"56 302 OFFCURVE",
"55 292 OFFCURVE",
"55 277 CURVE",
"47 268 LINE",
"47 260 LINE",
"60 256 OFFCURVE",
"77 254 OFFCURVE",
"98 254 CURVE SMOOTH",
"129 254 OFFCURVE",
"166 260 OFFCURVE",
"210 272 CURVE",
"190 201 OFFCURVE",
"167 142 OFFCURVE",
"142 96 CURVE",
"119 66 LINE SMOOTH",
"109 53 OFFCURVE",
"104 43 OFFCURVE",
"104 36 CURVE SMOOTH",
"104 33 OFFCURVE",
"106 27 OFFCURVE",
"110 18 CURVE SMOOTH",
"114 9 LINE",
"133 9 LINE",
"150 -14 OFFCURVE",
"161 -27 OFFCURVE",
"167 -30 CURVE",
"198 -22 OFFCURVE",
"214 8 OFFCURVE",
"214 60 CURVE SMOOTH",
"214 105 OFFCURVE",
"231 180 OFFCURVE",
"265 285 CURVE",
"294 291 OFFCURVE",
"318 294 OFFCURVE",
"339 294 CURVE SMOOTH",
"348 294 OFFCURVE",
"357 292 OFFCURVE",
"367 287 CURVE",
"391 278 OFFCURVE",
"406 273 OFFCURVE",
"411 273 CURVE SMOOTH",
"430 273 OFFCURVE",
"440 289 OFFCURVE",
"440 322 CURVE SMOOTH",
"440 344 OFFCURVE",
"428 355 OFFCURVE",
"404 355 CURVE SMOOTH",
"379 355 OFFCURVE",
"340 351 OFFCURVE",
"285 343 CURVE",
"309 418 LINE",
"329 422 OFFCURVE",
"349 424 OFFCURVE",
"369 424 CURVE SMOOTH",
"378 424 OFFCURVE",
"387 422 OFFCURVE",
"397 417 CURVE",
"421 408 OFFCURVE",
"436 403 OFFCURVE",
"441 403 CURVE SMOOTH",
"460 403 OFFCURVE",
"470 419 OFFCURVE",
"470 452 CURVE SMOOTH"
);
}
);
width = 555;
}
);
unicode = 2021;
},
{
glyphname = quotesinglbase;
layers = (
{
layerId = "0B97357B-A10C-4E6B-A805-18EA08AD0246";
name = Regular;
paths = (
{
closed = 1;
nodes = (
"146 48 OFFCURVE",
"135 63 OFFCURVE",
"114 63 CURVE SMOOTH",
"105 63 OFFCURVE",
"96 59 OFFCURVE",
"87 50 CURVE",
"75 39 OFFCURVE",
"54 -33 OFFCURVE",
"41 -100 CURVE SMOOTH",
"34 -134 OFFCURVE",
"31 -157 OFFCURVE",
"32 -168 CURVE SMOOTH",
"33 -183 LINE",
"89 -183 OFFCURVE",
"91 -187 OFFCURVE",
"110 -133 CURVE SMOOTH",
"129 -79 OFFCURVE",
"146 -4 OFFCURVE",
"146 17 CURVE SMOOTH"
);
}
);
width = 192;
}
);
unicode = 201A;
},
{
glyphname = perthousand;
layers = (
{
layerId = "0B97357B-A10C-4E6B-A805-18EA08AD0246";
name = Regular;
paths = (
{
closed = 1;
nodes = (
"551 653 LINE",
"540 656 OFFCURVE",
"531 658 OFFCURVE",
"524 658 CURVE SMOOTH",
"514 658 OFFCURVE",
"502 657 OFFCURVE",
"489 654 CURVE",
"471 651 OFFCURVE",
"459 649 OFFCURVE",
"453 649 CURVE SMOOTH",
"441 649 OFFCURVE",
"424 661 OFFCURVE",
"403 684 CURVE SMOOTH",
"382 707 OFFCURVE",
"363 719 OFFCURVE",
"348 719 CURVE SMOOTH",
"289 719 OFFCURVE",
"207 679 OFFCURVE",
"156 624 CURVE SMOOTH",
"131 597 OFFCURVE",
"118 570 OFFCURVE",
"118 543 CURVE SMOOTH",
"118 494 OFFCURVE",
"152 462 OFFCURVE",
"201 462 CURVE SMOOTH",
"245 462 OFFCURVE",
"266 474 OFFCURVE",
"281 498 CURVE SMOOTH",
"288 509 OFFCURVE",
"300 531 OFFCURVE",
"315 562 CURVE SMOOTH",
"327 585 OFFCURVE",
"341 597 OFFCURVE",
"357 597 CURVE",
"390 595 LINE",
"423 593 LINE",
"433 584 LINE",
"424 528 OFFCURVE",
"389 461 OFFCURVE",
"326 382 CURVE SMOOTH",
"313 365 OFFCURVE",
"300 350 OFFCURVE",
"288 335 CURVE",
"275 320 OFFCURVE",
"264 306 OFFCURVE",
"253 292 CURVE SMOOTH",
"185 209 OFFCURVE",
"138 150 OFFCURVE",
"113 113 CURVE SMOOTH",
"88 76 OFFCURVE",
"75 44 OFFCURVE",
"75 18 CURVE",
"93 13 OFFCURVE",
"110 11 OFFCURVE",
"125 11 CURVE SMOOTH",
"127 11 LINE SMOOTH",
"131 11 OFFCURVE",
"137 13 OFFCURVE",
"145 16 CURVE",
"263 214 LINE",
"340 317 LINE",
"418 420 LINE SMOOTH",
"489 511 OFFCURVE",
"528 563 OFFCURVE",
"535 574 CURVE SMOOTH",
"548 593 OFFCURVE",
"556 613 OFFCURVE",
"560 634 CURVE"
);
},
{
closed = 1;
nodes = (
"276 544 OFFCURVE",
"257 523 OFFCURVE",
"220 523 CURVE SMOOTH",
"202 523 OFFCURVE",
"184 528 OFFCURVE",
"167 537 CURVE",
"175 560 OFFCURVE",
"189 580 OFFCURVE",
"208 597 CURVE SMOOTH",
"262 644 LINE",
"271 620 OFFCURVE",
"276 601 OFFCURVE",
"276 586 CURVE SMOOTH"
);
},
{
closed = 1;
nodes = (
"507 323 OFFCURVE",
"490 336 OFFCURVE",
"455 336 CURVE SMOOTH",
"422 336 OFFCURVE",
"371 281 OFFCURVE",
"337 220 CURVE SMOOTH",
"320 189 OFFCURVE",
"311 165 OFFCURVE",
"311 147 CURVE SMOOTH",
"311 106 OFFCURVE",
"336 85 OFFCURVE",
"385 85 CURVE SMOOTH",
"462 85 OFFCURVE",
"498 106 OFFCURVE",
"498 171 CURVE SMOOTH",
"498 178 OFFCURVE",
"496 186 OFFCURVE",
"492 197 CURVE",
"483 219 OFFCURVE",
"479 232 OFFCURVE",
"479 237 CURVE SMOOTH",
"479 244 OFFCURVE",
"484 254 OFFCURVE",
"493 267 CURVE SMOOTH",
"502 280 OFFCURVE",
"507 290 OFFCURVE",
"507 296 CURVE SMOOTH"
);
},
{
closed = 1;
nodes = (
"727 323 OFFCURVE",
"710 336 OFFCURVE",
"675 336 CURVE SMOOTH",
"642 336 OFFCURVE",
"591 281 OFFCURVE",
"557 220 CURVE SMOOTH",
"540 189 OFFCURVE",
"531 165 OFFCURVE",
"531 147 CURVE SMOOTH",
"531 106 OFFCURVE",
"556 85 OFFCURVE",
"605 85 CURVE SMOOTH",
"682 85 OFFCURVE",
"718 106 OFFCURVE",
"718 171 CURVE SMOOTH",
"718 178 OFFCURVE",
"716 186 OFFCURVE",
"712 197 CURVE",
"703 219 OFFCURVE",
"699 232 OFFCURVE",
"699 237 CURVE SMOOTH",
"699 244 OFFCURVE",
"704 254 OFFCURVE",
"713 267 CURVE SMOOTH",
"722 280 OFFCURVE",
"727 290 OFFCURVE",
"727 296 CURVE SMOOTH"
);
},
{
closed = 1;
nodes = (
"471 151 OFFCURVE",
"436 120 OFFCURVE",
"400 120 CURVE SMOOTH",
"379 120 OFFCURVE",
"354 138 OFFCURVE",
"354 157 CURVE SMOOTH",
"354 193 OFFCURVE",
"390 234 OFFCURVE",
"426 234 CURVE SMOOTH",
"449 234 OFFCURVE",
"471 210 OFFCURVE",
"471 187 CURVE SMOOTH"
);
},
{
closed = 1;
nodes = (
"691 151 OFFCURVE",
"656 120 OFFCURVE",
"620 120 CURVE SMOOTH",
"599 120 OFFCURVE",
"574 138 OFFCURVE",
"574 157 CURVE SMOOTH",
"574 193 OFFCURVE",
"610 234 OFFCURVE",
"646 234 CURVE SMOOTH",
"669 234 OFFCURVE",
"691 210 OFFCURVE",
"691 187 CURVE SMOOTH"
);
}
);
width = 780;
}
);
unicode = 2030;
},
{
glyphname = quotedblbase;
layers = (
{
layerId = "0B97357B-A10C-4E6B-A805-18EA08AD0246";
name = Regular;
paths = (
{
closed = 1;
nodes = (
"441 125 OFFCURVE",
"420 161 OFFCURVE",
"387 161 CURVE SMOOTH",
"364 161 OFFCURVE",
"353 145 OFFCURVE",
"353 114 CURVE SMOOTH",
"353 51 OFFCURVE",
"366 -15 OFFCURVE",
"421 -8 CURVE",
"433 36 LINE SMOOTH",
"438 57 OFFCURVE",
"441 74 OFFCURVE",
"441 86 CURVE SMOOTH"
);
},
{
closed = 1;
nodes = (
"301 39 OFFCURVE",
"284 72 OFFCURVE",
"261 92 CURVE SMOOTH",
"249 102 OFFCURVE",
"237 107 OFFCURVE",
"225 107 CURVE SMOOTH",
"207 107 OFFCURVE",
"198 93 OFFCURVE",
"198 65 CURVE SMOOTH",
"198 48 OFFCURVE",
"210 7 OFFCURVE",
"224 -20 CURVE SMOOTH",
"231 -34 OFFCURVE",
"237 -41 OFFCURVE",
"243 -41 CURVE",
"252 -38 LINE",
"286 -20 LINE",
"296 -13 OFFCURVE",
"301 -3 OFFCURVE",
"301 12 CURVE SMOOTH"
);
}
);
width = 457;
}
);
unicode = 201E;
},
{
glyphname = Acircumflex;
layers = (
{
layerId = "0B97357B-A10C-4E6B-A805-18EA08AD0246";
name = Regular;
paths = (
{
closed = 1;
nodes = (
"968 885 OFFCURVE",
"965 937 OFFCURVE",
"959 987 CURVE SMOOTH",
"953 1037 OFFCURVE",
"944 1062 OFFCURVE",
"932 1062 CURVE SMOOTH",
"925 1062 OFFCURVE",
"914 1057 OFFCURVE",
"899 1046 CURVE",
"885 1032 LINE SMOOTH",
"879 1026 OFFCURVE",
"874 1022 OFFCURVE",
"871 1020 CURVE SMOOTH",
"676 882 LINE",
"607 848 LINE",
"591 839 OFFCURVE",
"583 830 OFFCURVE",
"583 821 CURVE SMOOTH",
"583 806 OFFCURVE",
"609 793 OFFCURVE",
"628 793 CURVE SMOOTH",
"642 793 OFFCURVE",
"659 803 OFFCURVE",
"680 823 CURVE SMOOTH",
"718 859 OFFCURVE",
"757 893 OFFCURVE",
"797 925 CURVE SMOOTH",
"803 930 OFFCURVE",
"818 940 OFFCURVE",
"841 953 CURVE SMOOTH",
"861 964 OFFCURVE",
"876 973 OFFCURVE",
"886 982 CURVE",
"901 953 OFFCURVE",
"908 914 OFFCURVE",
"908 864 CURVE SMOOTH",
"908 859 OFFCURVE",
"907 852 OFFCURVE",
"905 843 CURVE",
"902 835 OFFCURVE",
"901 828 OFFCURVE",
"901 822 CURVE SMOOTH",
"901 805 OFFCURVE",
"915 787 OFFCURVE",
"931 787 CURVE SMOOTH",
"951 787 OFFCURVE",
"968 807 OFFCURVE",
"968 831 CURVE SMOOTH"
);
},
{
closed = 1;
nodes = (
"782 789 LINE",
"739 789 OFFCURVE",
"705 767 OFFCURVE",
"657 716 CURVE SMOOTH",
"633 690 OFFCURVE",
"595 647 OFFCURVE",
"542 586 CURVE SMOOTH",
"533 575 OFFCURVE",
"518 558 OFFCURVE",
"498 535 CURVE SMOOTH",
"438 466 OFFCURVE",
"395 425 OFFCURVE",
"368 410 CURVE",
"357 417 OFFCURVE",
"344 421 OFFCURVE",
"329 421 CURVE SMOOTH",
"306 421 OFFCURVE",
"282 394 OFFCURVE",
"258 340 CURVE SMOOTH",
"235 290 OFFCURVE",
"203 262 OFFCURVE",
"161 255 CURVE SMOOTH",
"128 250 OFFCURVE",
"112 232 OFFCURVE",
"112 201 CURVE SMOOTH",
"112 191 LINE",
"169 172 LINE",
"154 152 LINE SMOOTH",
"125 112 OFFCURVE",
"105 83 OFFCURVE",
"94 65 CURVE SMOOTH",
"83 46 OFFCURVE",
"76 28 OFFCURVE",
"74 9 CURVE",
"121 9 OFFCURVE",
"161 45 OFFCURVE",
"186 84 CURVE SMOOTH",
"199 103 OFFCURVE",
"213 128 OFFCURVE",
"229 158 CURVE SMOOTH",
"241 181 LINE",
"273 221 OFFCURVE",
"318 241 OFFCURVE",
"376 241 CURVE SMOOTH",
"413 241 LINE SMOOTH",
"457 241 OFFCURVE",
"488 236 OFFCURVE",
"505 227 CURVE",
"505 225 OFFCURVE",
"507 219 OFFCURVE",
"511 210 CURVE SMOOTH",
"515 201 OFFCURVE",
"517 195 OFFCURVE",
"517 192 CURVE SMOOTH",
"517 182 OFFCURVE",
"515 168 OFFCURVE",
"511 151 CURVE SMOOTH",
"502 116 OFFCURVE",
"498 92 OFFCURVE",
"498 81 CURVE SMOOTH",
"498 41 OFFCURVE",
"518 1 OFFCURVE",
"548 -22 CURVE SMOOTH",
"563 -34 OFFCURVE",
"579 -40 OFFCURVE",
"598 -40 CURVE SMOOTH",
"604 -40 OFFCURVE",
"608 -40 OFFCURVE",
"610 -39 CURVE",
"631 -36 LINE",
"595 9 LINE SMOOTH",
"569 42 OFFCURVE",
"556 71 OFFCURVE",
"556 95 CURVE SMOOTH",
"556 147 OFFCURVE",
"575 215 OFFCURVE",
"614 299 CURVE SMOOTH",
"728 549 LINE SMOOTH",
"773 645 OFFCURVE",
"800 724 OFFCURVE",
"810 786 CURVE"
);
},
{
closed = 1;
nodes = (
"724 632 OFFCURVE",
"693 571 OFFCURVE",
"605 407 CURVE SMOOTH",
"561 325 OFFCURVE",
"535 282 OFFCURVE",
"528 278 CURVE SMOOTH",
"513 270 OFFCURVE",
"496 266 OFFCURVE",
"475 266 CURVE SMOOTH",
"455 266 OFFCURVE",
"424 272 OFFCURVE",
"382 283 CURVE",
"369 287 OFFCURVE",
"351 291 OFFCURVE",
"328 296 CURVE",
"399 415 OFFCURVE",
"603 624 OFFCURVE",
"724 709 CURVE"
);
},
{
closed = 1;
nodes = (
"349 387 LINE",
"349 384 OFFCURVE",
"342 376 OFFCURVE",
"328 364 CURVE",
"324 374 OFFCURVE",
"322 382 OFFCURVE",
"322 389 CURVE SMOOTH",
"322 397 OFFCURVE",
"327 401 OFFCURVE",
"337 401 CURVE",
"347 412 LINE"
);
},
{
closed = 1;
nodes = (
"307 362 LINE",
"317 371 LINE",
"326 362 LINE",
"326 352 LINE",
"317 342 LINE",
"307 352 LINE"
);
}
);
width = 725;
}
);
unicode = 00C2;
},
{
glyphname = Aacute;
layers = (
{
layerId = "0B97357B-A10C-4E6B-A805-18EA08AD0246";
name = Regular;
paths = (
{
closed = 1;
nodes = (
"953 964 OFFCURVE",
"980 1001 OFFCURVE",
"980 1021 CURVE SMOOTH",
"980 1040 OFFCURVE",
"970 1050 OFFCURVE",
"950 1050 CURVE SMOOTH",
"935 1050 OFFCURVE",
"917 1040 OFFCURVE",
"896 1021 CURVE",
"852 975 LINE SMOOTH",
"809 930 OFFCURVE",
"785 901 OFFCURVE",
"778 886 CURVE SMOOTH",
"771 872 LINE",
"776 869 OFFCURVE",
"782 866 OFFCURVE",
"790 861 CURVE SMOOTH",
"805 852 OFFCURVE",
"812 850 OFFCURVE",
"821 850 CURVE",
"831 849 OFFCURVE",
"857 870 OFFCURVE",
"900 911 CURVE SMOOTH"
);
},
{
closed = 1;
nodes = (
"782 789 LINE",
"739 789 OFFCURVE",
"705 767 OFFCURVE",
"657 716 CURVE SMOOTH",
"633 690 OFFCURVE",
"595 647 OFFCURVE",
"542 586 CURVE SMOOTH",
"533 575 OFFCURVE",
"518 558 OFFCURVE",
"498 535 CURVE SMOOTH",
"438 466 OFFCURVE",
"395 425 OFFCURVE",
"368 410 CURVE",
"357 417 OFFCURVE",
"344 421 OFFCURVE",
"329 421 CURVE SMOOTH",
"306 421 OFFCURVE",
"282 394 OFFCURVE",
"258 340 CURVE SMOOTH",
"235 290 OFFCURVE",
"203 262 OFFCURVE",
"161 255 CURVE SMOOTH",
"128 250 OFFCURVE",
"112 232 OFFCURVE",
"112 201 CURVE SMOOTH",
"112 191 LINE",
"169 172 LINE",
"154 152 LINE SMOOTH",
"125 112 OFFCURVE",
"105 83 OFFCURVE",
"94 65 CURVE SMOOTH",
"83 46 OFFCURVE",
"76 28 OFFCURVE",
"74 9 CURVE",
"121 9 OFFCURVE",
"161 45 OFFCURVE",
"186 84 CURVE SMOOTH",
"199 103 OFFCURVE",
"213 128 OFFCURVE",
"229 158 CURVE SMOOTH",
"241 181 LINE",
"273 221 OFFCURVE",
"318 241 OFFCURVE",
"376 241 CURVE SMOOTH",
"413 241 LINE SMOOTH",
"457 241 OFFCURVE",
"488 236 OFFCURVE",
"505 227 CURVE",
"505 225 OFFCURVE",
"507 219 OFFCURVE",
"511 210 CURVE SMOOTH",
"515 201 OFFCURVE",
"517 195 OFFCURVE",
"517 192 CURVE SMOOTH",
"517 182 OFFCURVE",
"515 168 OFFCURVE",
"511 151 CURVE SMOOTH",
"502 116 OFFCURVE",
"498 92 OFFCURVE",
"498 81 CURVE SMOOTH",
"498 41 OFFCURVE",
"518 1 OFFCURVE",
"548 -22 CURVE SMOOTH",
"563 -34 OFFCURVE",
"579 -40 OFFCURVE",
"598 -40 CURVE SMOOTH",
"604 -40 OFFCURVE",
"608 -40 OFFCURVE",
"610 -39 CURVE",
"631 -36 LINE",
"595 9 LINE SMOOTH",
"569 42 OFFCURVE",
"556 71 OFFCURVE",
"556 95 CURVE SMOOTH",
"556 147 OFFCURVE",
"575 215 OFFCURVE",
"614 299 CURVE SMOOTH",
"728 549 LINE SMOOTH",
"773 645 OFFCURVE",
"800 724 OFFCURVE",
"810 786 CURVE"
);
},
{
closed = 1;
nodes = (
"724 632 OFFCURVE",
"693 571 OFFCURVE",
"605 407 CURVE SMOOTH",
"561 325 OFFCURVE",
"535 282 OFFCURVE",
"528 278 CURVE SMOOTH",
"513 270 OFFCURVE",
"496 266 OFFCURVE",
"475 266 CURVE SMOOTH",
"455 266 OFFCURVE",
"424 272 OFFCURVE",
"382 283 CURVE",
"369 287 OFFCURVE",
"351 291 OFFCURVE",
"328 296 CURVE",
"399 415 OFFCURVE",
"603 624 OFFCURVE",
"724 709 CURVE"
);
},
{
closed = 1;
nodes = (
"349 387 LINE",
"349 384 OFFCURVE",
"342 376 OFFCURVE",
"328 364 CURVE",
"324 374 OFFCURVE",
"322 382 OFFCURVE",
"322 389 CURVE SMOOTH",
"322 397 OFFCURVE",
"327 401 OFFCURVE",
"337 401 CURVE",
"347 412 LINE"
);
},
{
closed = 1;
nodes = (
"307 362 LINE",
"317 371 LINE",
"326 362 LINE",
"326 352 LINE",
"317 342 LINE",
"307 352 LINE"
);
}
);
width = 725;
}
);
unicode = 00C1;
},
{
glyphname = Egrave;
layers = (
{
layerId = "0B97357B-A10C-4E6B-A805-18EA08AD0246";
name = Regular;
paths = (
{
closed = 1;
nodes = (
"582 773 OFFCURVE",
"550 855 OFFCURVE",
"497 884 CURVE",
"466 871 OFFCURVE",
"450 850 OFFCURVE",
"450 823 CURVE SMOOTH",
"450 786 OFFCURVE",
"480 744 OFFCURVE",
"521 717 CURVE SMOOTH",
"542 703 OFFCURVE",
"562 695 OFFCURVE",
"582 693 CURVE"
);
},
{
closed = 1;
nodes = (
"717 623 OFFCURVE",
"665 635 OFFCURVE",
"646 638 CURVE SMOOTH",
"627 641 OFFCURVE",
"605 643 OFFCURVE",
"580 643 CURVE SMOOTH",
"473 643 OFFCURVE",
"404 625 OFFCURVE",
"373 589 CURVE",
"285 437 LINE",
"174 350 LINE",
"171 327 OFFCURVE",
"154 286 OFFCURVE",
"122 227 CURVE SMOOTH",
"91 170 OFFCURVE",
"75 135 OFFCURVE",
"75 122 CURVE SMOOTH",
"75 41 OFFCURVE",
"186 3 OFFCURVE",
"315 3 CURVE SMOOTH",
"459 3 OFFCURVE",
"542 8 OFFCURVE",
"564 19 CURVE",
"552 38 OFFCURVE",
"527 48 OFFCURVE",
"490 48 CURVE SMOOTH",
"477 48 OFFCURVE",
"451 46 OFFCURVE",
"413 41 CURVE SMOOTH",
"396 39 OFFCURVE",
"381 38 OFFCURVE",
"367 38 CURVE SMOOTH",
"226 38 OFFCURVE",
"155 70 OFFCURVE",
"155 133 CURVE SMOOTH",
"155 208 OFFCURVE",
"187 251 OFFCURVE",
"246 276 CURVE SMOOTH",
"275 288 OFFCURVE",
"313 298 OFFCURVE",
"360 305 CURVE SMOOTH",
"433 317 OFFCURVE",
"480 327 OFFCURVE",
"499 335 CURVE",
"492 349 OFFCURVE",
"472 359 OFFCURVE",
"439 366 CURVE SMOOTH",
"405 372 OFFCURVE",
"365 378 OFFCURVE",
"319 383 CURVE",
"386 490 OFFCURVE",
"421 538 OFFCURVE",
"469 567 CURVE SMOOTH",
"493 581 OFFCURVE",
"521 588 OFFCURVE",
"553 588 CURVE SMOOTH",
"568 588 OFFCURVE",
"590 587 OFFCURVE",
"619 585 CURVE SMOOTH",
"648 583 OFFCURVE",
"670 582 OFFCURVE",
"685 582 CURVE SMOOTH",
"730 582 OFFCURVE",
"768 589 OFFCURVE",
"800 603 CURVE"
);
}
);
width = 565;
}
);
unicode = 00C8;
},
{
glyphname = Edieresis;
layers = (
{
layerId = "0B97357B-A10C-4E6B-A805-18EA08AD0246";
name = Regular;
paths = (
{
closed = 1;
nodes = (
"574 785 OFFCURVE",
"552 789 OFFCURVE",
"531 789 CURVE SMOOTH",
"494 789 OFFCURVE",
"475 777 OFFCURVE",
"475 753 CURVE SMOOTH",
"475 732 OFFCURVE",
"490 698 OFFCURVE",
"503 698 CURVE SMOOTH",
"506 698 OFFCURVE",
"518 706 OFFCURVE",
"539 721 CURVE",
"540 722 OFFCURVE",
"549 724 OFFCURVE",
"568 727 CURVE SMOOTH",
"584 730 OFFCURVE",
"589 746 OFFCURVE",
"593 762 CURVE",
"594 770 OFFCURVE",
"595 775 OFFCURVE",
"596 778 CURVE"
);
},
{
closed = 1;
nodes = (
"762 781 OFFCURVE",
"740 785 OFFCURVE",
"719 785 CURVE SMOOTH",
"682 785 OFFCURVE",
"663 773 OFFCURVE",
"663 749 CURVE SMOOTH",
"663 728 OFFCURVE",
"678 694 OFFCURVE",
"691 694 CURVE SMOOTH",
"694 694 OFFCURVE",
"706 702 OFFCURVE",
"727 717 CURVE",
"728 718 OFFCURVE",
"737 720 OFFCURVE",
"756 723 CURVE SMOOTH",
"772 726 OFFCURVE",
"777 742 OFFCURVE",
"781 758 CURVE",
"782 766 OFFCURVE",
"783 771 OFFCURVE",
"784 774 CURVE"
);
},
{
closed = 1;
nodes = (
"717 623 OFFCURVE",
"665 635 OFFCURVE",
"646 638 CURVE SMOOTH",
"627 641 OFFCURVE",
"605 643 OFFCURVE",
"580 643 CURVE SMOOTH",
"473 643 OFFCURVE",
"404 625 OFFCURVE",
"373 589 CURVE",
"285 437 LINE",
"174 350 LINE",
"171 327 OFFCURVE",
"154 286 OFFCURVE",
"122 227 CURVE SMOOTH",
"91 170 OFFCURVE",
"75 135 OFFCURVE",
"75 122 CURVE SMOOTH",
"75 41 OFFCURVE",
"186 3 OFFCURVE",
"315 3 CURVE SMOOTH",
"459 3 OFFCURVE",
"542 8 OFFCURVE",
"564 19 CURVE",
"552 38 OFFCURVE",
"527 48 OFFCURVE",
"490 48 CURVE SMOOTH",
"477 48 OFFCURVE",
"451 46 OFFCURVE",
"413 41 CURVE SMOOTH",
"396 39 OFFCURVE",
"381 38 OFFCURVE",
"367 38 CURVE SMOOTH",
"226 38 OFFCURVE",
"155 70 OFFCURVE",
"155 133 CURVE SMOOTH",
"155 208 OFFCURVE",
"187 251 OFFCURVE",
"246 276 CURVE SMOOTH",
"275 288 OFFCURVE",
"313 298 OFFCURVE",
"360 305 CURVE SMOOTH",
"433 317 OFFCURVE",
"480 327 OFFCURVE",
"499 335 CURVE",
"492 349 OFFCURVE",
"472 359 OFFCURVE",
"439 366 CURVE SMOOTH",
"405 372 OFFCURVE",
"365 378 OFFCURVE",
"319 383 CURVE",
"386 490 OFFCURVE",
"421 538 OFFCURVE",
"469 567 CURVE SMOOTH",
"493 581 OFFCURVE",
"521 588 OFFCURVE",
"553 588 CURVE SMOOTH",
"568 588 OFFCURVE",
"590 587 OFFCURVE",
"619 585 CURVE SMOOTH",
"648 583 OFFCURVE",
"670 582 OFFCURVE",
"685 582 CURVE SMOOTH",
"730 582 OFFCURVE",
"768 589 OFFCURVE",
"800 603 CURVE"
);
}
);
width = 565;
}
);
unicode = 00CB;
},
{
glyphname = Iacute;
layers = (
{
layerId = "0B97357B-A10C-4E6B-A805-18EA08AD0246";
name = Regular;
paths = (
{
closed = 1;
nodes = (
"698 790 OFFCURVE",
"725 827 OFFCURVE",
"725 847 CURVE SMOOTH",
"725 866 OFFCURVE",
"715 876 OFFCURVE",
"695 876 CURVE SMOOTH",
"680 876 OFFCURVE",
"662 866 OFFCURVE",
"641 847 CURVE",
"597 801 LINE SMOOTH",
"554 756 OFFCURVE",
"530 727 OFFCURVE",
"523 712 CURVE SMOOTH",
"516 698 LINE",
"521 695 OFFCURVE",
"527 692 OFFCURVE",
"535 687 CURVE SMOOTH",
"550 678 OFFCURVE",
"557 676 OFFCURVE",
"566 676 CURVE",
"576 675 OFFCURVE",
"602 696 OFFCURVE",
"645 737 CURVE SMOOTH"
);
},
{
closed = 1;
nodes = (
"812 616 OFFCURVE",
"791 632 OFFCURVE",
"754 632 CURVE SMOOTH",
"649 632 OFFCURVE",
"519 617 OFFCURVE",
"366 586 CURVE SMOOTH",
"284 570 OFFCURVE",
"241 554 OFFCURVE",
"237 538 CURVE",
"236 531 OFFCURVE",
"235 523 OFFCURVE",
"235 513 CURVE SMOOTH",
"235 489 LINE",
"258 487 LINE SMOOTH",
"275 486 OFFCURVE",
"316 498 OFFCURVE",
"382 524 CURVE SMOOTH",
"408 535 OFFCURVE",
"432 540 OFFCURVE",
"455 540 CURVE SMOOTH",
"475 540 OFFCURVE",
"488 533 OFFCURVE",
"494 520 CURVE",
"483 455 OFFCURVE",
"433 319 OFFCURVE",
"377 207 CURVE SMOOTH",
"349 150 OFFCURVE",
"325 110 OFFCURVE",
"305 87 CURVE SMOOTH",
"285 63 OFFCURVE",
"237 47 OFFCURVE",
"186 36 CURVE SMOOTH",
"161 31 OFFCURVE",
"139 27 OFFCURVE",
"121 24 CURVE",
"90 17 OFFCURVE",
"75 4 OFFCURVE",
"75 -17 CURVE SMOOTH",
"75 -46 OFFCURVE",
"88 -61 OFFCURVE",
"113 -61 CURVE SMOOTH",
"148 -61 OFFCURVE",
"192 -55 OFFCURVE",
"247 -43 CURVE SMOOTH",
"408 -8 LINE SMOOTH",
"465 3 OFFCURVE",
"511 9 OFFCURVE",
"546 9 CURVE",
"585 7 LINE",
"623 5 LINE",
"679 5 OFFCURVE",
"707 22 OFFCURVE",
"707 57 CURVE SMOOTH",
"707 78 OFFCURVE",
"696 89 OFFCURVE",
"675 89 CURVE SMOOTH",
"656 89 OFFCURVE",
"606 80 OFFCURVE",
"523 61 CURVE SMOOTH",
"487 53 OFFCURVE",
"456 49 OFFCURVE",
"429 49 CURVE SMOOTH",
"408 49 OFFCURVE",
"384 52 OFFCURVE",
"357 57 CURVE",
"546 450 LINE",
"547 453 OFFCURVE",
"554 478 OFFCURVE",
"565 525 CURVE SMOOTH",
"569 543 OFFCURVE",
"573 554 OFFCURVE",
"578 559 CURVE",
"605 566 OFFCURVE",
"645 569 OFFCURVE",
"699 570 CURVE SMOOTH",
"751 571 OFFCURVE",
"791 575 OFFCURVE",
"819 584 CURVE"
);
}
);
width = 697;
}
);
unicode = 00CD;
},
{
glyphname = Icircumflex;
layers = (
{
layerId = "0B97357B-A10C-4E6B-A805-18EA08AD0246";
name = Regular;
paths = (
{
closed = 1;
nodes = (
"719 756 OFFCURVE",
"716 808 OFFCURVE",
"710 858 CURVE SMOOTH",
"704 908 OFFCURVE",
"695 933 OFFCURVE",
"683 933 CURVE SMOOTH",
"676 933 OFFCURVE",
"665 928 OFFCURVE",
"650 917 CURVE",
"636 903 LINE SMOOTH",
"630 897 OFFCURVE",
"625 893 OFFCURVE",
"622 891 CURVE SMOOTH",
"427 753 LINE",
"358 719 LINE",
"342 710 OFFCURVE",
"334 701 OFFCURVE",
"334 692 CURVE SMOOTH",
"334 677 OFFCURVE",
"360 664 OFFCURVE",
"379 664 CURVE SMOOTH",
"393 664 OFFCURVE",
"410 674 OFFCURVE",
"431 694 CURVE SMOOTH",
"469 730 OFFCURVE",
"508 764 OFFCURVE",
"548 796 CURVE SMOOTH",
"554 801 OFFCURVE",
"569 811 OFFCURVE",
"592 824 CURVE SMOOTH",
"612 835 OFFCURVE",
"627 844 OFFCURVE",
"637 853 CURVE",
"652 824 OFFCURVE",
"659 785 OFFCURVE",
"659 735 CURVE SMOOTH",
"659 730 OFFCURVE",
"658 723 OFFCURVE",
"656 714 CURVE",
"653 706 OFFCURVE",
"652 699 OFFCURVE",
"652 693 CURVE SMOOTH",
"652 676 OFFCURVE",
"666 658 OFFCURVE",
"682 658 CURVE SMOOTH",
"702 658 OFFCURVE",
"719 678 OFFCURVE",
"719 702 CURVE SMOOTH"
);
},
{
closed = 1;
nodes = (
"812 616 OFFCURVE",
"791 632 OFFCURVE",
"754 632 CURVE SMOOTH",
"649 632 OFFCURVE",
"519 617 OFFCURVE",
"366 586 CURVE SMOOTH",
"284 570 OFFCURVE",
"241 554 OFFCURVE",
"237 538 CURVE",
"236 531 OFFCURVE",
"235 523 OFFCURVE",
"235 513 CURVE SMOOTH",
"235 489 LINE",
"258 487 LINE SMOOTH",
"275 486 OFFCURVE",
"316 498 OFFCURVE",
"382 524 CURVE SMOOTH",
"408 535 OFFCURVE",
"432 540 OFFCURVE",
"455 540 CURVE SMOOTH",
"475 540 OFFCURVE",
"488 533 OFFCURVE",
"494 520 CURVE",
"483 455 OFFCURVE",
"433 319 OFFCURVE",
"377 207 CURVE SMOOTH",
"349 150 OFFCURVE",
"325 110 OFFCURVE",
"305 87 CURVE SMOOTH",
"285 63 OFFCURVE",
"237 47 OFFCURVE",
"186 36 CURVE SMOOTH",
"161 31 OFFCURVE",
"139 27 OFFCURVE",
"121 24 CURVE",
"90 17 OFFCURVE",
"75 4 OFFCURVE",
"75 -17 CURVE SMOOTH",
"75 -46 OFFCURVE",
"88 -61 OFFCURVE",
"113 -61 CURVE SMOOTH",
"148 -61 OFFCURVE",
"192 -55 OFFCURVE",
"247 -43 CURVE SMOOTH",
"408 -8 LINE SMOOTH",
"465 3 OFFCURVE",
"511 9 OFFCURVE",
"546 9 CURVE",
"585 7 LINE",
"623 5 LINE",
"679 5 OFFCURVE",
"707 22 OFFCURVE",
"707 57 CURVE SMOOTH",
"707 78 OFFCURVE",
"696 89 OFFCURVE",
"675 89 CURVE SMOOTH",
"656 89 OFFCURVE",
"606 80 OFFCURVE",
"523 61 CURVE SMOOTH",
"487 53 OFFCURVE",
"456 49 OFFCURVE",
"429 49 CURVE SMOOTH",
"408 49 OFFCURVE",
"384 52 OFFCURVE",
"357 57 CURVE",
"546 450 LINE",
"547 453 OFFCURVE",
"554 478 OFFCURVE",
"565 525 CURVE SMOOTH",
"569 543 OFFCURVE",
"573 554 OFFCURVE",
"578 559 CURVE",
"605 566 OFFCURVE",
"645 569 OFFCURVE",
"699 570 CURVE SMOOTH",
"751 571 OFFCURVE",
"791 575 OFFCURVE",
"819 584 CURVE"
);
}
);
width = 697;
}
);
unicode = 00CE;
},
{
glyphname = Igrave;
layers = (
{
layerId = "0B97357B-A10C-4E6B-A805-18EA08AD0246";
name = Regular;
paths = (
{
closed = 1;
nodes = (
"511 747 OFFCURVE",
"479 829 OFFCURVE",
"426 858 CURVE",
"395 845 OFFCURVE",
"379 824 OFFCURVE",
"379 797 CURVE SMOOTH",
"379 760 OFFCURVE",
"409 718 OFFCURVE",
"450 691 CURVE SMOOTH",
"471 677 OFFCURVE",
"491 669 OFFCURVE",
"511 667 CURVE"
);
},
{
closed = 1;
nodes = (
"812 616 OFFCURVE",
"791 632 OFFCURVE",
"754 632 CURVE SMOOTH",
"649 632 OFFCURVE",
"519 617 OFFCURVE",
"366 586 CURVE SMOOTH",
"284 570 OFFCURVE",
"241 554 OFFCURVE",
"237 538 CURVE",
"236 531 OFFCURVE",
"235 523 OFFCURVE",
"235 513 CURVE SMOOTH",
"235 489 LINE",
"258 487 LINE SMOOTH",
"275 486 OFFCURVE",
"316 498 OFFCURVE",
"382 524 CURVE SMOOTH",
"408 535 OFFCURVE",
"432 540 OFFCURVE",
"455 540 CURVE SMOOTH",
"475 540 OFFCURVE",
"488 533 OFFCURVE",
"494 520 CURVE",
"483 455 OFFCURVE",
"433 319 OFFCURVE",
"377 207 CURVE SMOOTH",
"349 150 OFFCURVE",
"325 110 OFFCURVE",
"305 87 CURVE SMOOTH",
"285 63 OFFCURVE",
"237 47 OFFCURVE",
"186 36 CURVE SMOOTH",
"161 31 OFFCURVE",
"139 27 OFFCURVE",
"121 24 CURVE",
"90 17 OFFCURVE",
"75 4 OFFCURVE",
"75 -17 CURVE SMOOTH",
"75 -46 OFFCURVE",
"88 -61 OFFCURVE",
"113 -61 CURVE SMOOTH",
"148 -61 OFFCURVE",
"192 -55 OFFCURVE",
"247 -43 CURVE SMOOTH",
"408 -8 LINE SMOOTH",
"465 3 OFFCURVE",
"511 9 OFFCURVE",
"546 9 CURVE",
"585 7 LINE",
"623 5 LINE",
"679 5 OFFCURVE",
"707 22 OFFCURVE",
"707 57 CURVE SMOOTH",
"707 78 OFFCURVE",
"696 89 OFFCURVE",
"675 89 CURVE SMOOTH",
"656 89 OFFCURVE",
"606 80 OFFCURVE",
"523 61 CURVE SMOOTH",
"487 53 OFFCURVE",
"456 49 OFFCURVE",
"429 49 CURVE SMOOTH",
"408 49 OFFCURVE",
"384 52 OFFCURVE",
"357 57 CURVE",
"546 450 LINE",
"547 453 OFFCURVE",
"554 478 OFFCURVE",
"565 525 CURVE SMOOTH",
"569 543 OFFCURVE",
"573 554 OFFCURVE",
"578 559 CURVE",
"605 566 OFFCURVE",
"645 569 OFFCURVE",
"699 570 CURVE SMOOTH",
"751 571 OFFCURVE",
"791 575 OFFCURVE",
"819 584 CURVE"
);
}
);
width = 697;
}
);
unicode = 00CC;
},
{
glyphname = Idieresis;
layers = (
{
layerId = "0B97357B-A10C-4E6B-A805-18EA08AD0246";
name = Regular;
paths = (
{
closed = 1;
nodes = (
"494 765 OFFCURVE",
"472 769 OFFCURVE",
"451 769 CURVE SMOOTH",
"414 769 OFFCURVE",
"395 757 OFFCURVE",
"395 733 CURVE SMOOTH",
"395 712 OFFCURVE",
"410 678 OFFCURVE",
"423 678 CURVE SMOOTH",
"426 678 OFFCURVE",
"438 686 OFFCURVE",
"459 701 CURVE",
"460 702 OFFCURVE",
"469 704 OFFCURVE",
"488 707 CURVE SMOOTH",
"504 710 OFFCURVE",
"509 726 OFFCURVE",
"513 742 CURVE",
"514 750 OFFCURVE",
"515 755 OFFCURVE",
"516 758 CURVE"
);
},
{
closed = 1;
nodes = (
"682 761 OFFCURVE",
"660 765 OFFCURVE",
"639 765 CURVE SMOOTH",
"602 765 OFFCURVE",
"583 753 OFFCURVE",
"583 729 CURVE SMOOTH",
"583 708 OFFCURVE",
"598 674 OFFCURVE",
"611 674 CURVE SMOOTH",
"614 674 OFFCURVE",
"626 682 OFFCURVE",
"647 697 CURVE",
"648 698 OFFCURVE",
"657 700 OFFCURVE",
"676 703 CURVE SMOOTH",
"692 706 OFFCURVE",
"697 722 OFFCURVE",
"701 738 CURVE",
"702 746 OFFCURVE",
"703 751 OFFCURVE",
"704 754 CURVE"
);
},
{
closed = 1;
nodes = (
"812 616 OFFCURVE",
"791 632 OFFCURVE",
"754 632 CURVE SMOOTH",
"649 632 OFFCURVE",
"519 617 OFFCURVE",
"366 586 CURVE SMOOTH",
"284 570 OFFCURVE",
"241 554 OFFCURVE",
"237 538 CURVE",
"236 531 OFFCURVE",
"235 523 OFFCURVE",
"235 513 CURVE SMOOTH",
"235 489 LINE",
"258 487 LINE SMOOTH",
"275 486 OFFCURVE",
"316 498 OFFCURVE",
"382 524 CURVE SMOOTH",
"408 535 OFFCURVE",
"432 540 OFFCURVE",
"455 540 CURVE SMOOTH",
"475 540 OFFCURVE",
"488 533 OFFCURVE",
"494 520 CURVE",
"483 455 OFFCURVE",
"433 319 OFFCURVE",
"377 207 CURVE SMOOTH",
"349 150 OFFCURVE",
"325 110 OFFCURVE",
"305 87 CURVE SMOOTH",
"285 63 OFFCURVE",
"237 47 OFFCURVE",
"186 36 CURVE SMOOTH",
"161 31 OFFCURVE",
"139 27 OFFCURVE",
"121 24 CURVE",
"90 17 OFFCURVE",
"75 4 OFFCURVE",
"75 -17 CURVE SMOOTH",
"75 -46 OFFCURVE",
"88 -61 OFFCURVE",
"113 -61 CURVE SMOOTH",
"148 -61 OFFCURVE",
"192 -55 OFFCURVE",
"247 -43 CURVE SMOOTH",
"408 -8 LINE SMOOTH",
"465 3 OFFCURVE",
"511 9 OFFCURVE",
"546 9 CURVE",
"585 7 LINE",
"623 5 LINE",
"679 5 OFFCURVE",
"707 22 OFFCURVE",
"707 57 CURVE SMOOTH",
"707 78 OFFCURVE",
"696 89 OFFCURVE",
"675 89 CURVE SMOOTH",
"656 89 OFFCURVE",
"606 80 OFFCURVE",
"523 61 CURVE SMOOTH",
"487 53 OFFCURVE",
"456 49 OFFCURVE",
"429 49 CURVE SMOOTH",
"408 49 OFFCURVE",
"384 52 OFFCURVE",
"357 57 CURVE",
"546 450 LINE",
"547 453 OFFCURVE",
"554 478 OFFCURVE",
"565 525 CURVE SMOOTH",
"569 543 OFFCURVE",
"573 554 OFFCURVE",
"578 559 CURVE",
"605 566 OFFCURVE",
"645 569 OFFCURVE",
"699 570 CURVE SMOOTH",
"751 571 OFFCURVE",
"791 575 OFFCURVE",
"819 584 CURVE"
);
}
);
width = 697;
}
);
unicode = 00CF;
},
{
glyphname = Oacute;
layers = (
{
layerId = "0B97357B-A10C-4E6B-A805-18EA08AD0246";
name = Regular;
paths = (
{
closed = 1;
nodes = (
"771 864 OFFCURVE",
"798 901 OFFCURVE",
"798 921 CURVE SMOOTH",
"798 940 OFFCURVE",
"788 950 OFFCURVE",
"768 950 CURVE SMOOTH",
"753 950 OFFCURVE",
"735 940 OFFCURVE",
"714 921 CURVE",
"670 875 LINE SMOOTH",
"627 830 OFFCURVE",
"603 801 OFFCURVE",
"596 786 CURVE SMOOTH",
"589 772 LINE",
"594 769 OFFCURVE",
"600 766 OFFCURVE",
"608 761 CURVE SMOOTH",
"623 752 OFFCURVE",
"630 750 OFFCURVE",
"639 750 CURVE",
"649 749 OFFCURVE",
"675 770 OFFCURVE",
"718 811 CURVE SMOOTH"
);
},
{
closed = 1;
nodes = (
"800 481 OFFCURVE",
"766 594 OFFCURVE",
"704 663 CURVE SMOOTH",
"673 697 OFFCURVE",
"636 714 OFFCURVE",
"595 714 CURVE SMOOTH",
"546 714 OFFCURVE",
"485 664 OFFCURVE",
"453 633 CURVE SMOOTH",
"436 617 OFFCURVE",
"426 607 OFFCURVE",
"423 604 CURVE",
"350 544 OFFCURVE",
"299 503 OFFCURVE",
"270 481 CURVE SMOOTH",
"146 380 OFFCURVE",
"84 271 OFFCURVE",
"84 152 CURVE SMOOTH",
"84 65 OFFCURVE",
"134 21 OFFCURVE",
"215 5 CURVE SMOOTH",
"255 -4 OFFCURVE",
"306 -8 OFFCURVE",
"367 -8 CURVE SMOOTH",
"423 -8 LINE SMOOTH",
"531 -8 OFFCURVE",
"661 84 OFFCURVE",
"741 205 CURVE SMOOTH",
"780 265 OFFCURVE",
"800 322 OFFCURVE",
"800 377 CURVE SMOOTH"
);
},
{
closed = 1;
nodes = (
"706 334 OFFCURVE",
"652 192 OFFCURVE",
"549 112 CURVE SMOOTH",
"497 72 OFFCURVE",
"435 52 OFFCURVE",
"363 52 CURVE SMOOTH",
"300 52 OFFCURVE",
"227 77 OFFCURVE",
"183 119 CURVE SMOOTH",
"161 140 OFFCURVE",
"150 163 OFFCURVE",
"150 189 CURVE SMOOTH",
"150 266 OFFCURVE",
"260 383 OFFCURVE",
"344 458 CURVE SMOOTH",
"428 533 OFFCURVE",
"515 589 OFFCURVE",
"570 589 CURVE SMOOTH",
"666 589 OFFCURVE",
"706 570 OFFCURVE",
"706 497 CURVE SMOOTH"
);
}
);
width = 819;
}
);
unicode = 00D3;
},
{
glyphname = Ocircumflex;
layers = (
{
layerId = "0B97357B-A10C-4E6B-A805-18EA08AD0246";
name = Regular;
paths = (
{
closed = 1;
nodes = (
"766 810 OFFCURVE",
"763 862 OFFCURVE",
"757 912 CURVE SMOOTH",
"751 962 OFFCURVE",
"742 987 OFFCURVE",
"730 987 CURVE SMOOTH",
"723 987 OFFCURVE",
"712 982 OFFCURVE",
"697 971 CURVE",
"683 957 LINE SMOOTH",
"677 951 OFFCURVE",
"672 947 OFFCURVE",
"669 945 CURVE SMOOTH",
"474 807 LINE",
"405 773 LINE",
"389 764 OFFCURVE",
"381 755 OFFCURVE",
"381 746 CURVE SMOOTH",
"381 731 OFFCURVE",
"407 718 OFFCURVE",
"426 718 CURVE SMOOTH",
"440 718 OFFCURVE",
"457 728 OFFCURVE",
"478 748 CURVE SMOOTH",
"516 784 OFFCURVE",
"555 818 OFFCURVE",
"595 850 CURVE SMOOTH",
"601 855 OFFCURVE",
"616 865 OFFCURVE",
"639 878 CURVE SMOOTH",
"659 889 OFFCURVE",
"674 898 OFFCURVE",
"684 907 CURVE",
"699 878 OFFCURVE",
"706 839 OFFCURVE",
"706 789 CURVE SMOOTH",
"706 784 OFFCURVE",
"705 777 OFFCURVE",
"703 768 CURVE",
"700 760 OFFCURVE",
"699 753 OFFCURVE",
"699 747 CURVE SMOOTH",
"699 730 OFFCURVE",
"713 712 OFFCURVE",
"729 712 CURVE SMOOTH",
"749 712 OFFCURVE",
"766 732 OFFCURVE",
"766 756 CURVE SMOOTH"
);
},
{
closed = 1;
nodes = (
"800 481 OFFCURVE",
"766 594 OFFCURVE",
"704 663 CURVE SMOOTH",
"673 697 OFFCURVE",
"636 714 OFFCURVE",
"595 714 CURVE SMOOTH",
"546 714 OFFCURVE",
"485 664 OFFCURVE",
"453 633 CURVE SMOOTH",
"436 617 OFFCURVE",
"426 607 OFFCURVE",
"423 604 CURVE",
"350 544 OFFCURVE",
"299 503 OFFCURVE",
"270 481 CURVE SMOOTH",
"146 380 OFFCURVE",
"84 271 OFFCURVE",
"84 152 CURVE SMOOTH",
"84 65 OFFCURVE",
"134 21 OFFCURVE",
"215 5 CURVE SMOOTH",
"255 -4 OFFCURVE",
"306 -8 OFFCURVE",
"367 -8 CURVE SMOOTH",
"423 -8 LINE SMOOTH",
"531 -8 OFFCURVE",
"661 84 OFFCURVE",
"741 205 CURVE SMOOTH",
"780 265 OFFCURVE",
"800 322 OFFCURVE",
"800 377 CURVE SMOOTH"
);
},
{
closed = 1;
nodes = (
"706 334 OFFCURVE",
"652 192 OFFCURVE",
"549 112 CURVE SMOOTH",
"497 72 OFFCURVE",
"435 52 OFFCURVE",
"363 52 CURVE SMOOTH",
"300 52 OFFCURVE",
"227 77 OFFCURVE",
"183 119 CURVE SMOOTH",
"161 140 OFFCURVE",
"150 163 OFFCURVE",
"150 189 CURVE SMOOTH",
"150 266 OFFCURVE",
"260 383 OFFCURVE",
"344 458 CURVE SMOOTH",
"428 533 OFFCURVE",
"515 589 OFFCURVE",
"570 589 CURVE SMOOTH",
"666 589 OFFCURVE",
"706 570 OFFCURVE",
"706 497 CURVE SMOOTH"
);
}
);
width = 819;
}
);
unicode = 00D4;
},
{
glyphname = Ograve;
layers = (
{
layerId = "0B97357B-A10C-4E6B-A805-18EA08AD0246";
name = Regular;
paths = (
{
closed = 1;
nodes = (
"613 836 OFFCURVE",
"581 918 OFFCURVE",
"528 947 CURVE",
"497 934 OFFCURVE",
"481 913 OFFCURVE",
"481 886 CURVE SMOOTH",
"481 849 OFFCURVE",
"511 807 OFFCURVE",
"552 780 CURVE SMOOTH",
"573 766 OFFCURVE",
"593 758 OFFCURVE",
"613 756 CURVE"
);
},
{
closed = 1;
nodes = (
"800 481 OFFCURVE",
"766 594 OFFCURVE",
"704 663 CURVE SMOOTH",
"673 697 OFFCURVE",
"636 714 OFFCURVE",
"595 714 CURVE SMOOTH",
"546 714 OFFCURVE",
"485 664 OFFCURVE",
"453 633 CURVE SMOOTH",
"436 617 OFFCURVE",
"426 607 OFFCURVE",
"423 604 CURVE",
"350 544 OFFCURVE",
"299 503 OFFCURVE",
"270 481 CURVE SMOOTH",
"146 380 OFFCURVE",
"84 271 OFFCURVE",
"84 152 CURVE SMOOTH",
"84 65 OFFCURVE",
"134 21 OFFCURVE",
"215 5 CURVE SMOOTH",
"255 -4 OFFCURVE",
"306 -8 OFFCURVE",
"367 -8 CURVE SMOOTH",
"423 -8 LINE SMOOTH",
"531 -8 OFFCURVE",
"661 84 OFFCURVE",
"741 205 CURVE SMOOTH",
"780 265 OFFCURVE",
"800 322 OFFCURVE",
"800 377 CURVE SMOOTH"
);
},
{
closed = 1;
nodes = (
"706 334 OFFCURVE",
"652 192 OFFCURVE",
"549 112 CURVE SMOOTH",
"497 72 OFFCURVE",
"435 52 OFFCURVE",
"363 52 CURVE SMOOTH",
"300 52 OFFCURVE",
"227 77 OFFCURVE",
"183 119 CURVE SMOOTH",
"161 140 OFFCURVE",
"150 163 OFFCURVE",
"150 189 CURVE SMOOTH",
"150 266 OFFCURVE",
"260 383 OFFCURVE",
"344 458 CURVE SMOOTH",
"428 533 OFFCURVE",
"515 589 OFFCURVE",
"570 589 CURVE SMOOTH",
"666 589 OFFCURVE",
"706 570 OFFCURVE",
"706 497 CURVE SMOOTH"
);
}
);
width = 819;
}
);
unicode = 00D2;
},
{
glyphname = Ucircumflex;
layers = (
{
layerId = "0B97357B-A10C-4E6B-A805-18EA08AD0246";
name = Regular;
paths = (
{
closed = 1;
nodes = (
"845 790 OFFCURVE",
"842 842 OFFCURVE",
"836 892 CURVE SMOOTH",
"830 942 OFFCURVE",
"821 967 OFFCURVE",
"809 967 CURVE SMOOTH",
"802 967 OFFCURVE",
"791 962 OFFCURVE",
"776 951 CURVE",
"762 937 LINE SMOOTH",
"756 931 OFFCURVE",
"751 927 OFFCURVE",
"748 925 CURVE SMOOTH",
"553 787 LINE",
"484 753 LINE",
"468 744 OFFCURVE",
"460 735 OFFCURVE",
"460 726 CURVE SMOOTH",
"460 711 OFFCURVE",
"486 698 OFFCURVE",
"505 698 CURVE SMOOTH",
"519 698 OFFCURVE",
"536 708 OFFCURVE",
"557 728 CURVE SMOOTH",
"595 764 OFFCURVE",
"634 798 OFFCURVE",
"674 830 CURVE SMOOTH",
"680 835 OFFCURVE",
"695 845 OFFCURVE",
"718 858 CURVE SMOOTH",
"738 869 OFFCURVE",
"753 878 OFFCURVE",
"763 887 CURVE",
"778 858 OFFCURVE",
"785 819 OFFCURVE",
"785 769 CURVE SMOOTH",
"785 764 OFFCURVE",
"784 757 OFFCURVE",
"782 748 CURVE",
"779 740 OFFCURVE",
"778 733 OFFCURVE",
"778 727 CURVE SMOOTH",
"778 710 OFFCURVE",
"792 692 OFFCURVE",
"808 692 CURVE SMOOTH",
"828 692 OFFCURVE",
"845 712 OFFCURVE",
"845 736 CURVE SMOOTH"
);
},
{
closed = 1;
nodes = (
"903 690 LINE",
"864 690 OFFCURVE",
"807 634 OFFCURVE",
"733 523 CURVE SMOOTH",
"562 267 OFFCURVE",
"484 163 OFFCURVE",
"376 97 CURVE SMOOTH",
"321 64 OFFCURVE",
"258 47 OFFCURVE",
"185 47 CURVE SMOOTH",
"149 47 OFFCURVE",
"131 63 OFFCURVE",
"131 95 CURVE SMOOTH",
"131 135 OFFCURVE",
"163 189 OFFCURVE",
"227 267 CURVE SMOOTH",
"259 306 OFFCURVE",
"309 365 OFFCURVE",
"377 444 CURVE",
"385 454 OFFCURVE",
"389 459 OFFCURVE",
"390 460 CURVE",
"450 530 OFFCURVE",
"480 572 OFFCURVE",
"480 585 CURVE SMOOTH",
"480 603 LINE",
"459 600 OFFCURVE",
"405 545 OFFCURVE",
"319 439 CURVE SMOOTH",
"156 238 OFFCURVE",
"74 113 OFFCURVE",
"74 66 CURVE SMOOTH",
"74 13 OFFCURVE",
"98 0 OFFCURVE",
"169 0 CURVE SMOOTH",
"223 0 OFFCURVE",
"291 24 OFFCURVE",
"374 72 CURVE SMOOTH",
"427 103 OFFCURVE",
"465 123 OFFCURVE",
"489 134 CURVE",
"489 103 LINE SMOOTH",
"489 12 OFFCURVE",
"508 -30 OFFCURVE",
"576 -30 CURVE SMOOTH",
"592 -30 OFFCURVE",
"626 -23 OFFCURVE",
"678 -8 CURVE",
"654 -2 LINE SMOOTH",
"601 11 OFFCURVE",
"576 18 OFFCURVE",
"559 37 CURVE",
"550 46 OFFCURVE",
"546 59 OFFCURVE",
"546 75 CURVE SMOOTH",
"546 158 OFFCURVE",
"654 305 OFFCURVE",
"787 472 CURVE SMOOTH",
"812 504 LINE SMOOTH",
"874 584 OFFCURVE",
"905 640 OFFCURVE",
"905 671 CURVE"
);
}
);
width = 800;
}
);
unicode = 00DB;
},
{
glyphname = Uacute;
layers = (
{
layerId = "0B97357B-A10C-4E6B-A805-18EA08AD0246";
name = Regular;
paths = (
{
closed = 1;
nodes = (
"800 809 OFFCURVE",
"827 846 OFFCURVE",
"827 866 CURVE SMOOTH",
"827 885 OFFCURVE",
"817 895 OFFCURVE",
"797 895 CURVE SMOOTH",
"782 895 OFFCURVE",
"764 885 OFFCURVE",
"743 866 CURVE",
"699 820 LINE SMOOTH",
"656 775 OFFCURVE",
"632 746 OFFCURVE",
"625 731 CURVE SMOOTH",
"618 717 LINE",
"623 714 OFFCURVE",
"629 711 OFFCURVE",
"637 706 CURVE SMOOTH",
"652 697 OFFCURVE",
"659 695 OFFCURVE",
"668 695 CURVE",
"678 694 OFFCURVE",
"704 715 OFFCURVE",
"747 756 CURVE SMOOTH"
);
},
{
closed = 1;
nodes = (
"903 690 LINE",
"864 690 OFFCURVE",
"807 634 OFFCURVE",
"733 523 CURVE SMOOTH",
"562 267 OFFCURVE",
"484 163 OFFCURVE",
"376 97 CURVE SMOOTH",
"321 64 OFFCURVE",
"258 47 OFFCURVE",
"185 47 CURVE SMOOTH",
"149 47 OFFCURVE",
"131 63 OFFCURVE",
"131 95 CURVE SMOOTH",
"131 135 OFFCURVE",
"163 189 OFFCURVE",
"227 267 CURVE SMOOTH",
"259 306 OFFCURVE",
"309 365 OFFCURVE",
"377 444 CURVE",
"385 454 OFFCURVE",
"389 459 OFFCURVE",
"390 460 CURVE",
"450 530 OFFCURVE",
"480 572 OFFCURVE",
"480 585 CURVE SMOOTH",
"480 603 LINE",
"459 600 OFFCURVE",
"405 545 OFFCURVE",
"319 439 CURVE SMOOTH",
"156 238 OFFCURVE",
"74 113 OFFCURVE",
"74 66 CURVE SMOOTH",
"74 13 OFFCURVE",
"98 0 OFFCURVE",
"169 0 CURVE SMOOTH",
"223 0 OFFCURVE",
"291 24 OFFCURVE",
"374 72 CURVE SMOOTH",
"427 103 OFFCURVE",
"465 123 OFFCURVE",
"489 134 CURVE",
"489 103 LINE SMOOTH",
"489 12 OFFCURVE",
"508 -30 OFFCURVE",
"576 -30 CURVE SMOOTH",
"592 -30 OFFCURVE",
"626 -23 OFFCURVE",
"678 -8 CURVE",
"654 -2 LINE SMOOTH",
"601 11 OFFCURVE",
"576 18 OFFCURVE",
"559 37 CURVE",
"550 46 OFFCURVE",
"546 59 OFFCURVE",
"546 75 CURVE SMOOTH",
"546 158 OFFCURVE",
"654 305 OFFCURVE",
"787 472 CURVE SMOOTH",
"812 504 LINE SMOOTH",
"874 584 OFFCURVE",
"905 640 OFFCURVE",
"905 671 CURVE"
);
}
);
width = 800;
}
);
unicode = 00DA;
},
{
glyphname = Ugrave;
layers = (
{
layerId = "0B97357B-A10C-4E6B-A805-18EA08AD0246";
name = Regular;
paths = (
{
closed = 1;
nodes = (
"673 781 OFFCURVE",
"641 863 OFFCURVE",
"588 892 CURVE",
"557 879 OFFCURVE",
"541 858 OFFCURVE",
"541 831 CURVE SMOOTH",
"541 794 OFFCURVE",
"571 752 OFFCURVE",
"612 725 CURVE SMOOTH",
"633 711 OFFCURVE",
"653 703 OFFCURVE",
"673 701 CURVE"
);
},
{
closed = 1;
nodes = (
"903 690 LINE",
"864 690 OFFCURVE",
"807 634 OFFCURVE",
"733 523 CURVE SMOOTH",
"562 267 OFFCURVE",
"484 163 OFFCURVE",
"376 97 CURVE SMOOTH",
"321 64 OFFCURVE",
"258 47 OFFCURVE",
"185 47 CURVE SMOOTH",
"149 47 OFFCURVE",
"131 63 OFFCURVE",
"131 95 CURVE SMOOTH",
"131 135 OFFCURVE",
"163 189 OFFCURVE",
"227 267 CURVE SMOOTH",
"259 306 OFFCURVE",
"309 365 OFFCURVE",
"377 444 CURVE",
"385 454 OFFCURVE",
"389 459 OFFCURVE",
"390 460 CURVE",
"450 530 OFFCURVE",
"480 572 OFFCURVE",
"480 585 CURVE SMOOTH",
"480 603 LINE",
"459 600 OFFCURVE",
"405 545 OFFCURVE",
"319 439 CURVE SMOOTH",
"156 238 OFFCURVE",
"74 113 OFFCURVE",
"74 66 CURVE SMOOTH",
"74 13 OFFCURVE",
"98 0 OFFCURVE",
"169 0 CURVE SMOOTH",
"223 0 OFFCURVE",
"291 24 OFFCURVE",
"374 72 CURVE SMOOTH",
"427 103 OFFCURVE",
"465 123 OFFCURVE",
"489 134 CURVE",
"489 103 LINE SMOOTH",
"489 12 OFFCURVE",
"508 -30 OFFCURVE",
"576 -30 CURVE SMOOTH",
"592 -30 OFFCURVE",
"626 -23 OFFCURVE",
"678 -8 CURVE",
"654 -2 LINE SMOOTH",
"601 11 OFFCURVE",
"576 18 OFFCURVE",
"559 37 CURVE",
"550 46 OFFCURVE",
"546 59 OFFCURVE",
"546 75 CURVE SMOOTH",
"546 158 OFFCURVE",
"654 305 OFFCURVE",
"787 472 CURVE SMOOTH",
"812 504 LINE SMOOTH",
"874 584 OFFCURVE",
"905 640 OFFCURVE",
"905 671 CURVE"
);
}
);
width = 800;
}
);
unicode = 00D9;
},
{
glyphname = dotlessi;
layers = (
{
layerId = "0B97357B-A10C-4E6B-A805-18EA08AD0246";
name = Regular;
paths = (
{
closed = 1;
nodes = (
"180 299 OFFCURVE",
"170 314 OFFCURVE",
"150 334 CURVE",
"121 310 OFFCURVE",
"98 267 OFFCURVE",
"83 225 CURVE SMOOTH",
"76 204 OFFCURVE",
"70 186 OFFCURVE",
"65 172 CURVE SMOOTH",
"64 169 OFFCURVE",
"55 154 OFFCURVE",
"39 127 CURVE SMOOTH",
"28 108 OFFCURVE",
"22 92 OFFCURVE",
"22 78 CURVE SMOOTH",
"22 74 OFFCURVE",
"23 67 OFFCURVE",
"25 58 CURVE",
"27 38 LINE",
"75 38 OFFCURVE",
"84 41 OFFCURVE",
"99 71 CURVE SMOOTH",
"106 86 OFFCURVE",
"115 105 OFFCURVE",
"124 129 CURVE SMOOTH",
"161 225 OFFCURVE",
"180 278 OFFCURVE",
"180 288 CURVE SMOOTH"
);
}
);
width = 263;
}
);
unicode = 0131;
},
{
glyphname = ring;
layers = (
{
layerId = "0B97357B-A10C-4E6B-A805-18EA08AD0246";
name = Regular;
paths = (
{
closed = 1;
nodes = (
"342 753 OFFCURVE",
"311 778 OFFCURVE",
"248 778 CURVE SMOOTH",
"208 778 OFFCURVE",
"142 754 OFFCURVE",
"100 720 CURVE SMOOTH",
"79 703 OFFCURVE",
"68 686 OFFCURVE",
"68 670 CURVE SMOOTH",
"68 633 OFFCURVE",
"105 615 OFFCURVE",
"178 615 CURVE SMOOTH",
"258 615 OFFCURVE",
"342 647 OFFCURVE",
"342 702 CURVE SMOOTH"
);
},
{
closed = 1;
nodes = (
"316 677 OFFCURVE",
"280 655 OFFCURVE",
"237 644 CURVE SMOOTH",
"215 639 OFFCURVE",
"195 637 OFFCURVE",
"178 638 CURVE",
"144 636 OFFCURVE",
"116 646 OFFCURVE",
"95 667 CURVE",
"122 711 OFFCURVE",
"196 748 OFFCURVE",
"249 748 CURVE SMOOTH",
"294 748 OFFCURVE",
"316 734 OFFCURVE",
"316 705 CURVE SMOOTH"
);
}
);
width = 414;
}
);
unicode = 02DA;
},
{
glyphname = cedilla;
layers = (
{
layerId = "0B97357B-A10C-4E6B-A805-18EA08AD0246";
name = Regular;
paths = (
{
closed = 1;
nodes = (
"254 -15 OFFCURVE",
"235 20 OFFCURVE",
"214 43 CURVE",
"203 54 OFFCURVE",
"194 60 OFFCURVE",
"187 60 CURVE SMOOTH",
"160 60 OFFCURVE",
"124 41 OFFCURVE",
"124 21 CURVE SMOOTH",
"124 12 OFFCURVE",
"134 -1 OFFCURVE",
"154 -20 CURVE SMOOTH",
"174 -40 OFFCURVE",
"184 -55 OFFCURVE",
"184 -64 CURVE SMOOTH",
"184 -72 OFFCURVE",
"168 -94 OFFCURVE",
"136 -131 CURVE SMOOTH",
"75 -202 LINE",
"82 -203 OFFCURVE",
"88 -204 OFFCURVE",
"94 -204 CURVE SMOOTH",
"149 -204 OFFCURVE",
"202 -161 OFFCURVE",
"232 -107 CURVE SMOOTH",
"247 -80 OFFCURVE",
"254 -55 OFFCURVE",
"254 -32 CURVE SMOOTH"
);
}
);
width = 276;
}
);
unicode = 00B8;
},
{
glyphname = Udieresis;
layers = (
{
layerId = "0B97357B-A10C-4E6B-A805-18EA08AD0246";
name = Regular;
paths = (
{
closed = 1;
nodes = (
"661 805 OFFCURVE",
"639 809 OFFCURVE",
"618 809 CURVE SMOOTH",
"581 809 OFFCURVE",
"562 797 OFFCURVE",
"562 773 CURVE SMOOTH",
"562 752 OFFCURVE",
"577 718 OFFCURVE",
"590 718 CURVE SMOOTH",
"593 718 OFFCURVE",
"605 726 OFFCURVE",
"626 741 CURVE",
"627 742 OFFCURVE",
"636 744 OFFCURVE",
"655 747 CURVE SMOOTH",
"671 750 OFFCURVE",
"676 766 OFFCURVE",
"680 782 CURVE",
"681 790 OFFCURVE",
"682 795 OFFCURVE",
"683 798 CURVE"
);
},
{
closed = 1;
nodes = (
"849 801 OFFCURVE",
"827 805 OFFCURVE",
"806 805 CURVE SMOOTH",
"769 805 OFFCURVE",
"750 793 OFFCURVE",
"750 769 CURVE SMOOTH",
"750 748 OFFCURVE",
"765 714 OFFCURVE",
"778 714 CURVE SMOOTH",
"781 714 OFFCURVE",
"793 722 OFFCURVE",
"814 737 CURVE",
"815 738 OFFCURVE",
"824 740 OFFCURVE",
"843 743 CURVE SMOOTH",
"859 746 OFFCURVE",
"864 762 OFFCURVE",
"868 778 CURVE",
"869 786 OFFCURVE",
"870 791 OFFCURVE",
"871 794 CURVE"
);
},
{
closed = 1;
nodes = (
"903 690 LINE",
"864 690 OFFCURVE",
"807 634 OFFCURVE",
"733 523 CURVE SMOOTH",
"562 267 OFFCURVE",
"484 163 OFFCURVE",
"376 97 CURVE SMOOTH",
"321 64 OFFCURVE",
"258 47 OFFCURVE",
"185 47 CURVE SMOOTH",
"149 47 OFFCURVE",
"131 63 OFFCURVE",
"131 95 CURVE SMOOTH",
"131 135 OFFCURVE",
"163 189 OFFCURVE",
"227 267 CURVE SMOOTH",
"259 306 OFFCURVE",
"309 365 OFFCURVE",
"377 444 CURVE",
"385 454 OFFCURVE",
"389 459 OFFCURVE",
"390 460 CURVE",
"450 530 OFFCURVE",
"480 572 OFFCURVE",
"480 585 CURVE SMOOTH",
"480 603 LINE",
"459 600 OFFCURVE",
"405 545 OFFCURVE",
"319 439 CURVE SMOOTH",
"156 238 OFFCURVE",
"74 113 OFFCURVE",
"74 66 CURVE SMOOTH",
"74 13 OFFCURVE",
"98 0 OFFCURVE",
"169 0 CURVE SMOOTH",
"223 0 OFFCURVE",
"291 24 OFFCURVE",
"374 72 CURVE SMOOTH",
"427 103 OFFCURVE",
"465 123 OFFCURVE",
"489 134 CURVE",
"489 103 LINE SMOOTH",
"489 12 OFFCURVE",
"508 -30 OFFCURVE",
"576 -30 CURVE SMOOTH",
"592 -30 OFFCURVE",
"626 -23 OFFCURVE",
"678 -8 CURVE",
"654 -2 LINE SMOOTH",
"601 11 OFFCURVE",
"576 18 OFFCURVE",
"559 37 CURVE",
"550 46 OFFCURVE",
"546 59 OFFCURVE",
"546 75 CURVE SMOOTH",
"546 158 OFFCURVE",
"654 305 OFFCURVE",
"787 472 CURVE SMOOTH",
"812 504 LINE SMOOTH",
"874 584 OFFCURVE",
"905 640 OFFCURVE",
"905 671 CURVE"
);
}
);
width = 800;
}
);
unicode = 00DC;
},
{
glyphname = cent;
layers = (
{
layerId = "0B97357B-A10C-4E6B-A805-18EA08AD0246";
name = Regular;
paths = (
{
closed = 1;
nodes = (
"602 57 LINE",
"601 58 OFFCURVE",
"598 58 OFFCURVE",
"595 58 CURVE SMOOTH",
"588 58 OFFCURVE",
"578 55 OFFCURVE",
"565 50 CURVE SMOOTH",
"534 37 LINE",
"461 19 OFFCURVE",
"382 10 OFFCURVE",
"296 10 CURVE",
"391 366 LINE",
"418 368 LINE",
"425 367 OFFCURVE",
"436 366 OFFCURVE",
"451 363 CURVE",
"415 315 OFFCURVE",
"397 287 OFFCURVE",
"397 278 CURVE SMOOTH",
"397 259 OFFCURVE",
"420 245 OFFCURVE",
"441 245 CURVE SMOOTH",
"466 245 OFFCURVE",
"496 288 OFFCURVE",
"513 338 CURVE SMOOTH",
"522 363 OFFCURVE",
"526 383 OFFCURVE",
"526 400 CURVE SMOOTH",
"526 419 OFFCURVE",
"514 435 OFFCURVE",
"489 450 CURVE",
"403 426 LINE",
"408 449 OFFCURVE",
"410 476 OFFCURVE",
"410 507 CURVE SMOOTH",
"410 521 OFFCURVE",
"405 533 OFFCURVE",
"394 544 CURVE",
"367 530 OFFCURVE",
"346 482 OFFCURVE",
"330 399 CURVE",
"122 316 OFFCURVE",
"18 221 OFFCURVE",
"18 114 CURVE SMOOTH",
"18 21 OFFCURVE",
"82 -26 OFFCURVE",
"211 -26 CURVE",
"191 -51 OFFCURVE",
"181 -69 OFFCURVE",
"181 -78 CURVE SMOOTH",
"181 -87 OFFCURVE",
"184 -97 OFFCURVE",
"191 -106 CURVE",
"210 -106 LINE",
"226 -131 OFFCURVE",
"237 -146 OFFCURVE",
"243 -149 CURVE",
"263 -143 OFFCURVE",
"277 -127 OFFCURVE",
"284 -101 CURVE",
"287 -78 OFFCURVE",
"288 -62 OFFCURVE",
"289 -52 CURVE SMOOTH",
"291 -26 LINE",
"416 -26 OFFCURVE",
"557 8 OFFCURVE",
"633 65 CURVE",
"631 67 LINE",
"612 66 LINE"
);
},
{
closed = 1;
nodes = (
"298 203 OFFCURVE",
"268 91 OFFCURVE",
"231 10 CURVE",
"143 10 OFFCURVE",
"76 52 OFFCURVE",
"76 125 CURVE SMOOTH",
"76 184 OFFCURVE",
"130 244 OFFCURVE",
"205 291 CURVE SMOOTH",
"242 314 OFFCURVE",
"281 333 OFFCURVE",
"321 347 CURVE"
);
}
);
width = 631;
}
);
unicode = 00A2;
},
{
glyphname = sterling;
layers = (
{
layerId = "0B97357B-A10C-4E6B-A805-18EA08AD0246";
name = Regular;
paths = (
{
closed = 1;
nodes = (
"631 85 LINE",
"627 85 OFFCURVE",
"616 78 OFFCURVE",
"599 64 CURVE SMOOTH",
"582 49 OFFCURVE",
"570 42 OFFCURVE",
"561 42 CURVE SMOOTH",
"550 42 OFFCURVE",
"525 54 OFFCURVE",
"488 77 CURVE SMOOTH",
"451 100 OFFCURVE",
"426 111 OFFCURVE",
"411 111 CURVE SMOOTH",
"396 111 OFFCURVE",
"376 105 OFFCURVE",
"353 93 CURVE SMOOTH",
"306 68 OFFCURVE",
"279 56 OFFCURVE",
"272 56 CURVE SMOOTH",
"252 56 OFFCURVE",
"235 61 OFFCURVE",
"221 71 CURVE",
"216 74 OFFCURVE",
"211 79 OFFCURVE",
"206 86 CURVE",
"302 275 LINE",
"311 254 OFFCURVE",
"320 240 OFFCURVE",
"333 240 CURVE SMOOTH",
"360 240 OFFCURVE",
"381 269 OFFCURVE",
"398 300 CURVE",
"401 330 LINE",
"373 290 OFFCURVE",
"357 270 OFFCURVE",
"336 270 CURVE SMOOTH",
"327 270 OFFCURVE",
"323 284 OFFCURVE",
"323 313 CURVE",
"372 407 OFFCURVE",
"412 485 OFFCURVE",
"442 546 CURVE SMOOTH",
"472 607 OFFCURVE",
"487 642 OFFCURVE",
"487 653 CURVE SMOOTH",
"487 677 OFFCURVE",
"465 707 OFFCURVE",
"445 707 CURVE SMOOTH",
"432 707 OFFCURVE",
"421 699 OFFCURVE",
"412 683 CURVE SMOOTH",
"403 667 OFFCURVE",
"394 644 OFFCURVE",
"385 613 CURVE SMOOTH",
"365 547 OFFCURVE",
"334 470 OFFCURVE",
"293 383 CURVE",
"288 402 OFFCURVE",
"283 416 OFFCURVE",
"279 424 CURVE",
"275 431 OFFCURVE",
"269 435 OFFCURVE",
"261 435 CURVE SMOOTH",
"229 435 OFFCURVE",
"215 419 OFFCURVE",
"176 375 CURVE",
"173 345 LINE",
"183 355 OFFCURVE",
"191 362 OFFCURVE",
"198 366 CURVE",
"217 380 OFFCURVE",
"235 387 OFFCURVE",
"252 387 CURVE SMOOTH",
"260 387 OFFCURVE",
"266 370 OFFCURVE",
"269 336 CURVE",
"230 258 OFFCURVE",
"190 192 OFFCURVE",
"151 138 CURVE SMOOTH",
"121 99 LINE SMOOTH",
"92 62 OFFCURVE",
"78 36 OFFCURVE",
"78 23 CURVE SMOOTH",
"78 2 OFFCURVE",
"119 -9 OFFCURVE",
"201 -9 CURVE SMOOTH",
"225 -9 OFFCURVE",
"253 -1 OFFCURVE",
"285 14 CURVE",
"350 48 OFFCURVE",
"387 65 OFFCURVE",
"395 65 CURVE SMOOTH",
"408 65 OFFCURVE",
"433 54 OFFCURVE",
"472 33 CURVE SMOOTH",
"510 11 OFFCURVE",
"540 0 OFFCURVE",
"562 0 CURVE SMOOTH",
"581 0 OFFCURVE",
"604 13 OFFCURVE",
"631 38 CURVE"
);
}
);
width = 631;
}
);
unicode = 00A3;
},
{
glyphname = idieresis;
layers = (
{
layerId = "0B97357B-A10C-4E6B-A805-18EA08AD0246";
name = Regular;
paths = (
{
closed = 1;
nodes = (
"124 477 OFFCURVE",
"102 481 OFFCURVE",
"81 481 CURVE SMOOTH",
"44 481 OFFCURVE",
"25 469 OFFCURVE",
"25 445 CURVE SMOOTH",
"25 424 OFFCURVE",
"40 390 OFFCURVE",
"53 390 CURVE SMOOTH",
"56 390 OFFCURVE",
"68 398 OFFCURVE",
"89 413 CURVE",
"90 414 OFFCURVE",
"99 416 OFFCURVE",
"118 419 CURVE SMOOTH",
"134 422 OFFCURVE",
"139 438 OFFCURVE",
"143 454 CURVE",
"144 462 OFFCURVE",
"145 467 OFFCURVE",
"146 470 CURVE"
);
},
{
closed = 1;
nodes = (
"312 473 OFFCURVE",
"290 477 OFFCURVE",
"269 477 CURVE SMOOTH",
"232 477 OFFCURVE",
"213 465 OFFCURVE",
"213 441 CURVE SMOOTH",
"213 420 OFFCURVE",
"228 386 OFFCURVE",
"241 386 CURVE SMOOTH",
"244 386 OFFCURVE",
"256 394 OFFCURVE",
"277 409 CURVE",
"278 410 OFFCURVE",
"287 412 OFFCURVE",
"306 415 CURVE SMOOTH",
"322 418 OFFCURVE",
"327 434 OFFCURVE",
"331 450 CURVE",
"332 458 OFFCURVE",
"333 463 OFFCURVE",
"334 466 CURVE"
);
},
{
closed = 1;
nodes = (
"180 299 OFFCURVE",
"170 314 OFFCURVE",
"150 334 CURVE",
"121 310 OFFCURVE",
"98 267 OFFCURVE",
"83 225 CURVE SMOOTH",
"76 204 OFFCURVE",
"70 186 OFFCURVE",
"65 172 CURVE SMOOTH",
"64 169 OFFCURVE",
"55 154 OFFCURVE",
"39 127 CURVE SMOOTH",
"28 108 OFFCURVE",
"22 92 OFFCURVE",
"22 78 CURVE SMOOTH",
"22 74 OFFCURVE",
"23 67 OFFCURVE",
"25 58 CURVE",
"27 38 LINE",
"75 38 OFFCURVE",
"84 41 OFFCURVE",
"99 71 CURVE SMOOTH",
"106 86 OFFCURVE",
"115 105 OFFCURVE",
"124 129 CURVE SMOOTH",
"161 225 OFFCURVE",
"180 278 OFFCURVE",
"180 288 CURVE SMOOTH"
);
}
);
width = 263;
}
);
unicode = 00EF;
},
